<svg width="520" height="346" xmlns="http://www.w3.org/2000/svg">
<path style="fill:#3d3736; stroke:none;" d="M0 0L0 346L83 345.961L120 343L117 339L138 339L138 337L133 337L133 336L148 335L148 334L142 333L143 330L138 332L140 329L140 328L136 328L136 327L144 325L144 324L142 324L142 323L151 323L151 322C147.076 320.288 142.177 319.432 141 315L138 314L149 306L147 305L147 304L160.004 299.862L182 296L181 293L189 293L189 290L199 290C205.655 281.894 215.897 283.506 225 280L223 277L236 276L235 268L239 268L237 274L270 277L271 267C260.343 260.722 256.933 265.301 246 267C255.318 258.614 261.808 260.956 272 265C268.985 259.366 261.371 254.171 255 253.305C252.123 252.914 247.99 254.379 245.43 252.883C240.617 250.07 243.047 243.604 245 240L242 238L246 238L254 228L255 228L255 232L256 232L260 228L260 233C267.614 228.201 258.433 223.234 255 219L248 217L248 221C244.004 221 238.044 219.999 234.8 222.858C231.183 226.046 228.462 234.958 236 232L232 237L232 241L231 241C229.545 235.559 228.824 225.092 224 222L224 227C216.08 224.565 223.63 216.582 228 214L235 220C233.351 209.803 223.438 212.223 216 210.722C211.191 209.752 207.698 205.787 203 204.499C194.235 202.097 177.911 202.48 169 204.278C162.694 205.55 152.34 216.238 147 208C155.21 209.955 162.885 208.616 163 199L164 199L164 204L169 202L169 196L170 196L170 202L197 202L194 195L200 199L201 196L202 196L206 202L206 200L212 202L209 204L209 205L224 209L224 207L214 203C215.908 198.496 216.288 195.399 214 191L220 191L220 189L209 188L209 187C219.569 187 222.999 187.766 223 199L220 198L219 204L225 203L225 207L226 207L227 203L220 202L220 201L227 201L227 200L225 188L236 189C233.718 181.191 214.965 179 208 179L208 176L200 175L200 174L210 173L210 178L212 178L213 167L256 167C253.783 158.609 243.063 162.137 245 151L241 151L241 157L212 154L212 155L218 155L218 159L210 158L208 173L207 173L207 167L205 167L205 172C191.752 166.492 175.425 159.74 161 159L160 154L153 155C153.103 149.852 155.013 143.95 149 142L149 120L144 120L144 94L145 94L147 96C149.753 90.0384 147.696 75.9534 146.871 69.0895C146.259 63.994 143.632 59.3832 149 56L148 52L149 47L151 44L147 45L144 34L136 32L136 22L130 22L130 23L134 23L131 25L131 30L112 25L112 11L119 11L118 0L0 0z"/>
<path style="fill:#b67749; stroke:none;" d="M118 0L119 11L112 11L112 16L113 16L119 15L118 17L144 14L142 12L143 9L138 6L138 5L146 0L118 0z"/>
<path style="fill:#cf7029; stroke:none;" d="M138 5L138 6L143 9L144 14L118 17L119 15L113 14L112 25L122 26L122 25L115 23L115 22C130.163 19.4327 143.787 17.8767 159 21L155 24L155 26L172 32L172 33L164 35L164 37L174 41L174 43L167 45L167 47L177 49L177 52L187 53C187.004 57.8493 186.39 62.0638 192 63C187.64 70.108 196.862 73.8923 203 75L198 82L221 94L218 95L218 96L244 96L243 99L235 100C235.781 110.144 244.873 105.334 249.137 111.344C250.471 113.224 249.135 116.855 249 119L253 117L257 125L258 125L260 124C256.283 116.034 257.372 104.985 269 105.29C274.235 105.427 278.608 108.84 284 109C288.416 100.789 300.039 103.774 305.397 97.5671C308.454 94.0253 306.974 87.0908 306 83L313 83L311 95C315.198 93.5094 320.515 92.4909 322 88L323 88L323 90L324 90L325 72L331 72L332 79L333 79L334 73L353 69L353 68L344 67L353 64C350.281 59.2887 344.824 59.2339 340 58L347 54L350 55C352.482 51.1711 356.794 52.0003 361 52C370.496 51.9994 379.556 53.1935 389 52L405 40L400 36L400 35L402 34L402 33L400 31L403 30L402 27C407.543 25.2375 417.845 24.0095 420 18L400 14C400.346 9.73404 399.227 7.91492 395 7L395 3L408 3L408 2L406 2L406 1L418 1L418 0L291 0L291 1L293 2L288 4L291 9L284 8L284 9L287 9C280.747 10.8475 276.987 8.40067 271 7.27393C258.799 4.97769 246.392 2.5217 234 0.590271C221.713 -1.32477 208.422 0 196 0C175.774 0 156.84 -1.58725 138 5z"/>
<path style="fill:#f1ae48; stroke:none;" d="M233 0L233 1L287 10L287 9L284 9L284 8L291 9L288 4L293 2L275 0L233 0z"/>
<path style="fill:#b67749; stroke:none;" d="M406 1L406 2L408 2L408 3L395 3L395 7C398.718 8.3479 400.133 9.99487 400 14L420 18C416.544 23.802 407.85 24.5098 402 27L403 30L400 31L402 33L402 34L400 35L400 36L405 40L389 52C379.253 52.4915 369.842 52 360 52C356.23 52 350.946 50.5842 350 55L347 54L340 58L353 64L344 67L353 68L353 69L334 73L333 79L332 79L331 72L326 73L326 88L344 81L350 81C350.615 88.7232 359.757 88.573 366 90L365 85L371 85L371 91L374 91L373 103L377 103L377 86L384 86L383 101L411 104L411 95L404 95L404 94L407 94L407 93L404 92L406 87C401.002 85.6369 401.696 80.3723 402 76L400 79L391 76L417.726 61.5447L429 53L429 52L425 52L429 49L428 42C434.053 41.3032 436.541 34.5922 431 31C433.577 28.1119 439.544 24.7631 438.623 20.2245C437.812 16.2236 431.131 16.4844 428.423 14.1852C419.117 6.28485 433.763 2.47223 439 1L406 1z"/>
<path style="fill:#77594b; stroke:none;" d="M431 31C435.484 35.392 434.203 40.7064 428 42L429 49L425 52L429 52L429 53L417.726 61.0355L391 76L402 76C401.474 80.478 400.724 86.0033 406 87L404 92L407 93L407 94L404 94L404 95L411 95L411 104L422.196 100.146L428.263 92.0278L443 91L442 97C445.657 98.9028 450.965 100.473 454 97L474 99L484.394 75.0278L498 71L498 91C503.318 90.4559 515.79 87.1207 518.972 82.5008C522.275 77.7057 520 65.6738 520 60L520 0L450 0C444.434 0 429.714 -0.235016 426.529 5.43286C420.503 16.1523 436.684 14.3029 438.248 20.2245C439.31 24.2424 432.864 27.9337 431 31M112 3L117 7L117 2L112 3M85 12L85 13L110 23L110 11L85 12z"/>
<path style="fill:#f1ae48; stroke:none;" d="M264 16L260 16L261 18L233 22L233 23L272 29L271 25L281 25L281 24L268 20L273 11C268.732 11.048 264.734 11.17 264 16z"/>
<path style="fill:#b67749; stroke:none;" d="M115 22L115 23L122 25L122 26L119 27L130 30L130 22L136 22L136 32L144 34L147 45L151 44L149 47L148 52L149 56C144.545 56.9497 145.016 62.1042 145 66C150.137 67.5383 151.671 71.9478 152 77L153 77L153 73L155 73L155 78L156 78L157 75C168.24 85.6732 185.434 84.7713 199 92.5278C202.192 94.3527 208.382 92.7832 209 97L225 97L223 103L219 103L219 110L215 108C210.711 113.306 203.997 121.026 203.475 128.17C203.249 131.266 205.16 133.911 205.057 136.961C204.938 140.467 203.124 142.377 204 146L198 145L193 156L161 158L161 159L205 172L205 167L207 167L207 173L208 173L209 153L241 157L242 138C247.547 139.744 250.198 139.286 255 136C258.472 142.326 267.415 137.004 270 132L260 131L260 130C267.657 129.937 279.963 132.643 283 124L289 125L287 105L284 109L279 109C281.493 116.935 278.729 125.696 269 126.642C264.716 127.058 261.327 124.26 257 125L253 117L249 119C249.265 116.907 250.982 113.28 249.843 111.344C246.242 105.222 236.536 109.742 235 100L244 96L218 96L218 95L221 94C215.416 87.5162 206.273 83.6109 198 82L203 75C197.263 73.3125 188.492 69.9615 192 63C186.902 61.4525 187.017 57.7829 187 53L177 52L177 49L167 47L167 45L174 43L174 41L164 37L164 35L172 33L172 32L155 26L155 24L159 21C145.387 16.7522 128.624 18.3954 115 22z"/>
<path style="fill:#77594b; stroke:none;" d="M130 23L130 30L131 30L134 23L130 23M147 66L147 96L145 94L144 94L144 120L149 120L149 142C154.17 144.81 153.029 149.783 153 155L160 154L161 158C172.781 158.54 181.184 160.308 193 156L198 145L204 146C202.16 130.481 207.738 121.152 215 108L219 110L219 103L223 103L225 97L209 97L198 91.1667L157 75L156 78L155 78L155 73L153 73L153 77L152 77L149 66L147 66z"/>
<path style="fill:#3d3736; stroke:none;" d="M496 71L483.652 75.0278L474 99L454 97C450.071 99.9758 446.283 98.641 442 97L443 91L427.471 92.0278L413 103.081L393.039 102.853L385.148 100.341L377 115L379 118L354 124.391L339 127L339 128L348 126L348 127L333 136C336.961 146.132 336.006 156.223 336 167L329 167L335 169C334.347 178.645 331.315 186.277 335 196L332 200L331 200L329 178L321 180L321 184L320 184L320 173L323 173L324 168L288 173L285 202L319 200L318 185L320 187L328 186L328 200C321.193 198.919 320.129 203.207 319 209L285 210L285 214L291 212L292 224L296 228L297 228L299 213L304 211C305.575 217.616 306.899 226.42 301 231L300 227L299 227L298 239L299 239L303 233L303 238L305 238L305 233L307 233L307 237L308 237C308 226.083 308.471 220.28 313 211L314 211C316.989 216.375 316.388 223.171 315 229L321 233L318 215L326 216L324 221L329 228L326 223L325 223L325 228L324 228L324 223L322 223L323 233L328 233L325 235L324 243L324 244L326 248C322.356 248 317.904 246.783 317 251C326.166 248.825 332.46 253.024 338.276 242.896C342.035 236.351 339.04 223.511 346 219L344 230L346 230L346 226L348 226L349 238L345 239L342 231L342 245L346 244L345 240C348.768 241.636 353.231 241.307 356 238L357 238L368 238.989L398 238C398 234.976 399.673 236.371 401 238L409 240L409 245C394.028 241.039 364.994 236.963 352 247L353 244L349 245L349 254C355.488 255.353 354.7 259.425 354 265L366 264L350 269C354.155 271.839 359.182 270.717 364 271.285C376.306 272.738 401.114 275.628 411 268C406.085 275.16 407.977 280.828 408 289L414 290L414 285L419 284L418 288L420 288C414.501 294.602 403.658 291.898 396 291.17C379.589 289.608 357.022 288.186 341 292L341 300C343.126 302.308 343.81 303.344 342 306L342 307L343 313C368.508 313.07 393.443 318.745 419 314L422 323L422 327L418 327L418 328L421 328L420 332L430 334L429 331C435.106 334.769 443.16 335.022 450 333C444.003 339.147 428.238 337.83 420 338L421 340L417 340C421.075 344.162 442.267 347.733 447.867 345.397C450.881 344.139 452.156 340.635 455 339L453 341L454 346L520 346L520 83L498 91L498 71L496 71z"/>
<path style="fill:#77594b; stroke:none;" d="M73 72L73 73C78.9594 74.2294 90.5824 74.6678 94 80L95 80L103 79C96.1348 74.283 81.3447 72.3593 73 72M325 72L324 90L328 89L328 88C325.024 84.0718 324.553 75.883 329 73L325 72M16 81L16 113L17 113L16 81M30 81L30 115L31 115L30 81z"/>
<path style="fill:#3d3736; stroke:none;" d="M344 81C340.087 84.2188 327.714 89.9678 323 88L322 88L318 93L337 97L318 96L290 108L291 111C299.817 108.074 301.993 109.569 302 119L304 119C304 99.9175 323.704 101 339 101L338 97C348.874 94.8923 362.104 93.406 373 96L374 91L371 91L371 85L365 85L366 90C359.94 88.0783 351.225 88.5073 350 81L344 81z"/>
<path style="fill:#77594b; stroke:none;" d="M306 83C306.84 87.5266 308.43 93.9085 304.682 97.5671C299.232 102.886 280.563 101.463 289 113L290 113L290 108C297.685 104.864 313.55 103.301 318 96L337 97C332.77 92.1585 316.335 92.3773 311 95L313 83L306 83z"/>
<path style="fill:#3d3736; stroke:none;" d="M377 86C377 91.9812 375.358 99.3906 383 100L384 86L377 86M445 86L446 94L447 94L449 86L445 86z"/>
<path style="fill:#77594b; stroke:none;" d="M56 88L56 89L61 90C61 97.2372 64.8782 117.835 55 118L62 121L62 88L56 88M65 90L65 119L66 119L66 92L71 92L71 120C74.1731 112.438 75.1726 90.334 65 90M49 92L49 117L50 117L49 92M338 97L339 101L305 106L305 107L308 107L308 117C311.329 116.602 314.144 119.07 315 115L317 117L321 116L319 118L319 119L323 121L325 103L338 103L338 116L327 116L329 121L330 121L331 119L338 122L336 128C337.925 129.123 340.517 130.531 337 131L337 132L348 127L348 126L339 128L339 127L355 124.391L379 118L377 115C384.172 111.74 382.508 106.761 383 100L378 98L377 98L377 103L373 103C372.842 89.6533 347.411 94.5653 338 97M83 96L83 122L78 122L78 124L84 124L83 96M97 96L97 98L102 98L97 96M41 99L41 116L42 116L41 99z"/>
<path style="fill:#3d3736; stroke:none;" d="M318 103L317 115L319 115L318 103M325 103L325 116L338 116L338 103L325 103M355 103L355 116L368 116L368 103L355 103z"/>
<path style="fill:#f3e7b6; stroke:none;" d="M265.005 105.654C253.446 109.297 266.949 116.456 273.848 113.397C281.89 109.831 269.857 104.124 265.005 105.654z"/>
<path style="fill:#3d3736; stroke:none;" d="M312 105L312 116L314 116L314 105L312 105z"/>
<path style="fill:#77594b; stroke:none;" d="M388 105L389 111L405 106L388 105z"/>
<path style="fill:#747a88; stroke:none;" d="M310 106L309 115L311 115L310 106z"/>
<path style="fill:#f1ae48; stroke:none;" d="M276 107C276.346 117.914 263.648 113.553 258 110C257.301 112.372 256.872 114.494 257.192 117.002C259.805 137.483 292.802 120.661 276 107z"/>
<path style="fill:#747a88; stroke:none;" d="M304 107L304 120L301 120L301 109L300 109L299 121L298 121L298 109C286.444 110.546 289 122.101 289 131L296 126L308 126L313 124C318.159 120.662 324.389 120.953 329 125C322.086 124.993 318.862 130.776 318 137L317 137L317 129L316 129C313.649 133.518 314.35 136.381 316 141L319 140C319.311 148.263 314.759 165.631 326 166L323 173L320 173L320 184L321 184L321 180C325.221 179.875 328.566 179.317 330 175L331 175L330 188L334 188L334 173L329 173L329 167L336 167C336.027 156.83 338.043 145.167 333 136L340 133L340 132L337 132L337 131L340 131L336 128L338 122L330 121L329 121L323 115L323 121L319 119L319 118L321 116L315 115L306 118L306 107L304 107z"/>
<path style="fill:#3d3736; stroke:none;" d="M306 107L306 118L308 118L308 107L306 107z"/>
<path style="fill:#77594b; stroke:none;" d="M297 108L298 121L299 121L301 108L297 108M301 109C301 112.884 299.419 119.018 304 120L304 119L301 109z"/>
<path style="fill:#3d3736; stroke:none;" d="M294 111L294 121L296 121L296 111L294 111M291 113L291 123L292 123L291 113z"/>
<path style="fill:#77594b; stroke:none;" d="M122 119C124.665 122.701 129.772 121.947 134 122L134 121L122 119M313 124C310.812 122.298 309.362 123.927 308 126L296 126L288 135C296.539 129.629 309.874 126.519 320 126L319 130L329 125C325.065 120.512 317.494 120.018 313 124z"/>
<path style="fill:#747a88; stroke:none;" d="M382 122L380 137L380 138L387 138L387 139L379 140L379 153L395 152L395 138L388 140L394 137L394 136L384 137L384 122L382 122z"/>
<path style="fill:#b49b90; stroke:none;" d="M283 124C278.681 132.056 268.098 129.833 260 130L260 131L270 132C266.458 136.595 259.545 141.198 255 136C250.032 138.515 247.5 139.2 242 138L241 151L245 151C245.009 162.342 253.927 163.914 264 166C258.747 175.843 264 189.341 264 200L281 200L283 164L286 164L289 137L290 137L290 144L291 144L288 124L283 124z"/>
<path style="fill:#77594b; stroke:none;" d="M126 125L122 126L126 128C126 138.671 128.215 152.053 124 162L128 163L121 168L121 175L127 173L128 173L129 173L135 176C134.287 165.269 132 154.991 132 144C132 139.429 130.773 133.74 135 131L128 129L126 125z"/>
<path style="fill:#3d3736; stroke:none;" d="M289 136L292 144L293 144L293 137L294 137L292 149C295.63 148.817 300.145 148.99 301 145L304 146L303 143L296 144L296 141L300 142L301 133L302 133L302 141L303 141L305 132L306 132L306 141L307 141L308 132L312 131L312 138L313 138L316 129L317 129L317 137L318 137L320 126C312.027 126.187 292.767 128.53 289 136z"/>
<path style="fill:#77594b; stroke:none;" d="M107 127L107 128L113 129L107 127M423 131L423 132L427 131L423 131M311 131L308 132L308 136L311 134L311 139L303 141L302 141L302 133L301 133L300 142L296 141L296 144L305 142L306 160L304 160C304 155.087 305.564 147.959 301 145L302 162L300 162L300 148L292 149L289 169L299 168L299 164L303 164L302 169L287 172L289 150L288 150L286 164L283 164L284 174C278.7 178.459 280.322 193.592 281 200L279 198L278 198L264 200C264 188.813 259.488 176.648 264 166L256 164L256 167L213 167L212 178L210 178L210 173L200 174L200 175L208 176L208 179C215.919 179.005 231.573 181.736 236 189L225 188L227 200L227 201L220 201L220 202L227 203L226 207L225 207L225 203L221 206L216 203L224 207L224 209L217 209L217 210L226 210L232 206L232 211L241 212L241 211L238 209L242 209L242 205L247 206L249 198L246 200L242 199L240 206L239 206L238 206C235.295 200.434 229.432 193.15 238 190L237 186L243 186L242 190L248 193L247 188L241 183L243 179L244 179L245 182L255 178L255 195L258 195L258 208L259 208L260 200L262 200L264 217L265 217L264 209L273 208L274 211L277 210L281 218L283 217L284 217L282 222L281 222L280 218L279 218C279.383 222.59 280.259 228.242 276 231L276 232L279 232L279 238L280 238L281 223L284 224L283 241L260 245L260 246L284 247L284 246L280 246L280 245L281 243L300 245L300 244L295 243L298 237L297 232L296 232L296 235L295 235L294 224L292 224L293 240L289 239L290 213L285 214L283 204L280 207L281 200L282 203L283 203L282 195L285 186L285 185L282 185L282 184C286.833 181.562 286.982 178.042 287 173L315 168.87L326 166C311.657 165.699 324.484 144.032 315 142L316 138L314 135L313 135L313 138L312 138L311 131z"/>
<path style="fill:#b49b90; stroke:none;" d="M305 132L304 140L306 140L305 132z"/>
<path style="fill:#77594b; stroke:none;" d="M357 151L357 152L354 152L357 185L359 185L359 169L362 169L362 165L363 165L363 170L364 170C364.509 166.886 368.094 162.057 370.397 167.164C372.52 171.873 372.033 183.996 369 188L371 212L369 212L369 201L368 201L368 212L361 212L357 190L354 190C354.003 194.06 353.493 197.471 357 200L354 214C356.767 216.112 356.837 218.952 354 221L354 222L357 230L358 230L358 222L360 222L360 230L361 230C361.105 220.585 367.792 217.492 375 224L376 224L378 193L373 193L374 185L375 185C375.787 187.047 376.213 187.047 377 185L378 185L381 187L381 188L378 188L378 189L390 188L389 183L379 183L380 163L379 163L378 183L373 183L376 181L378 133C372.419 133 360.029 131.981 355.5 135.722C352.217 138.434 352.826 150.106 357 151z"/>
<path style="fill:#b49b90; stroke:none;" d="M310 134L308 139C311.012 138.354 311.498 136.613 310 134z"/>
<path style="fill:#747a88; stroke:none;" d="M441 141L441 142C446.613 140.791 450.553 138.665 454 134L441 141M289 137L289 151C293.053 146.478 294.186 142.975 294 137L293 137L293 144L292 144L292 140L291 140L291 144L290 144L289 137z"/>
<path style="fill:#b49b90; stroke:none;" d="M315 139L317 142L315 139z"/>
<path style="fill:#3d3736; stroke:none;" d="M365 139L365 148L366 148L365 139M367 139C367.004 143.849 366.39 148.064 372 149L372 139L367 139M317 140L318 154L319 154C319.012 149.519 320.78 143.102 317 140z"/>
<path style="fill:#b49b90; stroke:none;" d="M304 142L304 160L306 160L304 142M316 143L314 160L317 160L316 143M308 163C314.192 159.754 312 150.013 312 144C305.59 146.577 308 157.159 308 163M291 147L287 172L302 169L303 164L299 164L299 168L289 169C290.53 161.867 294.035 154.232 291 147M300 148L300 162L302 162L302 148L300 148z"/>
<path style="fill:#77594b; stroke:none;" d="M55 151L55 152C64.2211 155.39 60.5388 181.711 59 190L61 179L62 151L55 151z"/>
<path style="fill:#747a88; stroke:none;" d="M65 151L71 153L71 152L65 151M293 151L293 159L295 159L295 151L293 151z"/>
<path style="fill:#3d3736; stroke:none;" d="M298 152L298 161L297 161L296 153L295 153L293 161L299 162L298 152z"/>
<path style="fill:#77594b; stroke:none;" d="M381 152L379 156L381 160L385 160L387 155L387 161L388 161L388 155L389 155L390 157L392 155L389 158L391 160C389.688 164.436 387.504 174.199 389.589 178.542C390.835 181.139 394.642 181.293 396.436 183.547C399.594 187.515 398.077 195.478 397 200L407 200L407 184L408 184L408 207C414.873 204.371 415.246 185.497 412.397 179.275C409.112 172.104 398.939 178.213 395.002 173.566C389.77 167.393 402.213 152.275 388.001 152.005C385.669 151.96 383.332 152 381 152M77 153L77 192L84 192L84 153L77 153M209 153L209 168L210 168L210 158L212 159L212 154L223 154L209 153z"/>
<path style="fill:#747a88; stroke:none;" d="M244 153L244 159L245 159L244 153z"/>
<path style="fill:#77594b; stroke:none;" d="M419 160L428 159L428 153C422.173 153.053 419.21 153.681 419 160M444 177L445 177L445 166L447 166L447 176C451.237 173.104 450.996 169.825 451 165L453 165L453 178L454 178L454 164L456 164L456 190L442 182L442 212L443 212C443 206.355 441.381 199.098 447 196L444 217L453 221C461.064 218.488 458.17 210.453 458.015 204C457.637 188.343 458.675 172.725 458 157L457 157L457 161C451.068 160.728 446.506 159.545 446 153C437.869 155.699 443.995 170.608 444 177M96 154L102 157L96 154z"/>
<path style="fill:#3d3736; stroke:none;" d="M393 154L393 163L394 163L393 154M78 155L78 189L80 189L82 155L78 155z"/>
<path style="fill:#b67749; stroke:none;" d="M212 155L212 159L218 159L218 155L212 155z"/>
<path style="fill:#77594b; stroke:none;" d="M107 156L107 193L113 192L113 157L107 156z"/>
<path style="fill:#3d3736; stroke:none;" d="M108 158L108 191L112 191C112 183.88 115.654 160.54 108 158z"/>
<path style="fill:#747a88; stroke:none;" d="M316 161L314 167C317.347 165.652 318.215 164.005 316 161M387 161L386 180C389.686 176.779 388.803 165.298 387 161z"/>
<path style="fill:#77594b; stroke:none;" d="M48 162L48 185L49 185L48 162z"/>
<path style="fill:#747a88; stroke:none;" d="M308 163L308 167L313 167L313 162L308 163M345 162L339 169C342.352 167.758 345.195 165.811 345 162M382 162L381 181C387.326 178.901 385.555 167.26 384 162L382 162z"/>
<path style="fill:#b49b90; stroke:none;" d="M308.333 164.667L308.667 165.333L308.333 164.667z"/>
<path style="fill:#77594b; stroke:none;" d="M143 167L143 183L145 183L145 167L143 167M329 169L329 173L334 175L335 175L335 169L329 169z"/>
<path style="fill:#b49b90; stroke:none;" d="M302.333 172.667L302.667 173.333L302.333 172.667z"/>
<path style="fill:#747a88; stroke:none;" d="M281 173L281 179L282 179L284 174L281 173z"/>
<path style="fill:#b49b90; stroke:none;" d="M287 173L287 193L288 193L287 173z"/>
<path style="fill:#747a88; stroke:none;" d="M304 174L303 199L305 199L304 174M307 175C307.003 179.424 306.177 184.304 311 186L308 182L308 181L311 181L310 175L307 175M314 175L314 180L316 180L316 175L314 175z"/>
<path style="fill:#77594b; stroke:none;" d="M330 175L329 190L334 193L335 193L335 188L330 188L330 175z"/>
<path style="fill:#747a88; stroke:none;" d="M245 182L244 179L243 179L241 183L247 188C247.31 193.099 251.881 194.874 256 197L255 178C250.676 178.522 247.56 178.074 245 182z"/>
<path style="fill:#b49b90; stroke:none;" d="M290 179L290 183L291 183L290 179z"/>
<path style="fill:#747a88; stroke:none;" d="M291 179L291 197L292 197L294 184L291 179z"/>
<path style="fill:#77594b; stroke:none;" d="M130 181C123.218 186.096 125.023 203.824 125 212L121 212C121.912 217.632 126.825 220.446 132 222L132 223L111 223L111 224L133 224L132 216L132 215L132 214C125.203 205.028 134.089 190.744 130 181z"/>
<path style="fill:#747a88; stroke:none;" d="M286 181L282 184L282 185L286 185L284 205L290 206L295 203C292.322 199.53 288.756 200.841 285 202C288.212 196.092 288.649 187.313 286 181M297 181L296 184L301 182L297 181M314 182L314 184L316 184L316 182L314 182z"/>
<path style="fill:#3d3736; stroke:none;" d="M403 182L403 199L405 199L405 182L403 182z"/>
<path style="fill:#747a88; stroke:none;" d="M156 183L156 185L158 185L158 183L156 183z"/>
<path style="fill:#3d3736; stroke:none;" d="M399 183L399 199L402 199L402 183L399 183M285 185L282 195L286 195L285 185z"/>
<path style="fill:#b49b90; stroke:none;" d="M314 185L314 198L316 198L317 185L314 185z"/>
<path style="fill:#77594b; stroke:none;" d="M318 185L318 198L319 198L318 185z"/>
<path style="fill:#b49b90; stroke:none;" d="M319 185L319 205L320 205L319 185z"/>
<path style="fill:#3d3736; stroke:none;" d="M237 186L238 190C229.102 191.942 234.641 201.142 238 206L239 206L240 206C242.437 201.459 243.452 198.625 249 198L244 205L244 210L247 212L250 211C250.519 213.423 253.133 215.519 255.278 212.667C263.557 201.654 249.782 193.302 242 190L243 186L237 186z"/>
<path style="fill:#b49b90; stroke:none;" d="M307 199L311 199L311 186C305.535 187.814 307 194.155 307 199z"/>
<path style="fill:#747a88; stroke:none;" d="M313 186L313 198L314 198L313 186M316 186L316 198L317 198L316 186z"/>
<path style="fill:#77594b; stroke:none;" d="M320 202L321 202L328 200L328 186C317.883 186.12 320 193.96 320 202M209 187L209 188L220 189L217 200L220 198L223 199C223 187.308 220.092 187 209 187M149 189L149 191L153 191L153 189L149 189z"/>
<path style="fill:#b49b90; stroke:none;" d="M290 189L290 197L291 197L290 189z"/>
<path style="fill:#3d3736; stroke:none;" d="M227 190L227 198L232 198C231.947 193.542 231.704 191.026 227 190z"/>
<path style="fill:#747a88; stroke:none;" d="M329 190L331 200L332 200L335 196L334 191L329 190M214 191L214 203L219 204L219 191L214 191M194 195L199 202C199.558 197.647 198.39 195.717 194 195z"/>
<path style="fill:#b49b90; stroke:none;" d="M256 195C256 201.69 258.661 213.586 250 215L250 216L268 220L259 211L258 211L258 195L256 195z"/>
<path style="fill:#3d3736; stroke:none;" d="M449 196L450 213L456 213L456 195L449 196z"/>
<path style="fill:#77594b; stroke:none;" d="M169 196L169 202L164 204L164 199L163 199C162.691 208.429 154.822 209.451 147 208C148.027 212.794 155.373 211.345 159 209.75C171.365 204.312 187.926 200.526 202 204.306C207.143 205.687 210.661 210.148 216 211L216 210L213 206L209 205L209 204L212 202L206 202L202 196L201 196L199 202L170 202L169 196z"/>
<path style="fill:#747a88; stroke:none;" d="M244 198L244 200L246 200L246 198L244 198z"/>
<path style="fill:#3d3736; stroke:none;" d="M283 199L283 203L282 203L281 200L280 207L284 205L283 199z"/>
<path style="fill:#747a88; stroke:none;" d="M260 200L258 211L259 211L260 209L261 214L262 214L262 200L260 200z"/>
<path style="fill:#77594b; stroke:none;" d="M301 208L304 202L304 201L295 201L294 209L319 209L319 200C309.38 200.02 307.653 201.749 301 208z"/>
<path style="fill:#747a88; stroke:none;" d="M301 208L306 201C302.232 202.384 301.305 204.044 301 208M312 201L312 207L317 207L316 202L312 201z"/>
<path style="fill:#b49b90; stroke:none;" d="M297 202L297 208L298 208L299 202L297 202z"/>
<path style="fill:#747a88; stroke:none;" d="M395 202L395 214L404 214L403 210L407 204L395 202M141 203L141 209L142 209L141 203M220 203L221 206L220 203z"/>
<path style="fill:#b49b90; stroke:none;" d="M290 206C285.371 202.907 284.143 206.639 284 211L285 211L296 203L290 206z"/>
<path style="fill:#747a88; stroke:none;" d="M307 203L307 207L310 207L310 203L307 203M242 205L245 213L241 211L242 214C236.811 213.652 232.544 211.65 230 207C222.288 209.191 219.879 209.423 212 207L212 208C221.463 213.75 236.95 216 248 216L248 217C243.356 217.106 237.711 215.836 236 221L248 221L248 217L255 219C258.487 225.479 264.4 225.85 261 234L267 237L272 234L272 233L269 233L269 232L274 229L271 231L268 229L269 223L275 227L270 218L266 220L267 228L266 228C264.848 221.277 256.045 217.524 250 216L250 215L255 215L255 214L250 211L247 212L244 210L244 205L242 205z"/>
<path style="fill:#3d3736; stroke:none;" d="M230 206L230 210L232 210L232 206L230 206z"/>
<path style="fill:#77594b; stroke:none;" d="M406 207L403 210L404 214C392.86 214.009 392.004 222.888 393 233L383 231L382 235L405 235L405 231L407 234L410 234L412 229L397 228L398 233L394 233L394 232L396 216L397 216L397 226L400 226L400 215L401 215L401 226L402 226L402 215L403 215L403 226L404 226L405 215L406 215L406 226L415 226L415 217L412 217L412 212L407 212L406 207M93 210L111 209L111 210L107 210L107 211L117 211C112.497 207.457 97.0795 205.331 93 210z"/>
<path style="fill:#b49b90; stroke:none;" d="M225.667 208.333L226.333 208.667L225.667 208.333M238 209L245 213L238 209z"/>
<path style="fill:#3d3736; stroke:none;" d="M272 208L266 209C264.993 213.295 264.475 218.089 270 218L275 227L269 223L268 229L271 231L274 229L267 234C268.018 237.514 269.903 237.418 273 236L273 241L270 244L268 242L267 242C267.854 245.987 271.49 245 275 245L275 244L273 242L277 242C275.324 237.587 274.477 233.768 279 231L279 224L273 218L277 218L277 219L275 220C277.396 220.575 277.487 220.475 278 218L281 222L282 222L284 217L281 218L277 210L274 211L272 208z"/>
<path style="fill:#77594b; stroke:none;" d="M285 209L285 210L293 209L285 209z"/>
<path style="fill:#747a88; stroke:none;" d="M94 209L94 210L111 210L94 209z"/>
<path style="fill:#77594b; stroke:none;" d="M165 219C175.101 214.815 188.998 206.511 199 216L190 218C195.992 216.887 200.863 216.305 206 220L195 220L195 221L211 223L207 215C196.171 213.07 170.966 202.3 165 219z"/>
<path style="fill:#b49b90; stroke:none;" d="M264 209L264 211L266 211L266 209L264 209z"/>
<path style="fill:#3d3736; stroke:none;" d="M233 211L233 212L242 214L233 211z"/>
<path style="fill:#747a88; stroke:none;" d="M303 211L302 228L306 226L303 211M306 211L306 214L307 214L306 211M313 211L314 215L315 215L313 211z"/>
<path style="fill:#77594b; stroke:none;" d="M40 212L39 247L30 247L30 214L29 214L28 247L21 247L21 242L20 242L20 249L52 250L52 228L51 228L49 249L48 249L48 229L47 229L47 246L40 246L40 212M257 212L257 214L260 214L260 212L257 212z"/>
<path style="fill:#b49b90; stroke:none;" d="M290 212L290 235C294.529 231.721 293.233 216.267 290 212z"/>
<path style="fill:#77594b; stroke:none;" d="M299 213L299 222L300 222L300 215L301 215L301 231L305 226L304 226L302 228L302 213L299 213z"/>
<path style="fill:#747a88; stroke:none;" d="M310 213L311 234L312 234L313 230L310 213z"/>
<path style="fill:#77594b; stroke:none;" d="M311 213L313 230L312 234L311 234L310 216L308 216L308 237L307 237L307 233L305 233L305 238C308.465 238.541 310.026 239.39 309 243L315 244L314 239L323 239L324 234L328 235L323 233L322 223L324 223L324 228L325 228L325 223L326 223L329 228C328.725 224.098 327.883 222.097 324 221L326 216L324 218L318 215L321 233L317 229L314 230L313 213L311 213z"/>
<path style="fill:#b49b90; stroke:none;" d="M313 213L314 230L315 230L316 213L315 213L313 213z"/>
<path style="fill:#747a88; stroke:none;" d="M328 213L332 223L333 223C333.241 218.331 332.126 215.406 328 213z"/>
<path style="fill:#77594b; stroke:none;" d="M224 227L224 222L231 241L232 241L235 237L235 236L230 236L231 225L237 222C237.272 216.107 243.336 217.272 248 217L248 216L235 216L235 220L233 217L228 214C223.038 215.921 214.953 225.489 224 227M253 216L253 217L266 220C261.985 215.547 258.656 215.574 253 216z"/>
<path style="fill:#747a88; stroke:none;" d="M300 215L297 228L296 228L295 224L294 224L295 235L296 235C296.478 232.135 299.028 225.11 300 229L301 229L300 215M402 215L402 226L403 226L402 215M405 215L405 226L406 226L405 215z"/>
<path style="fill:#77594b; stroke:none;" d="M139 222L143 223L143 224L138 223L137 228L134 227L131.946 258L132 271L127 271L127 272L131 275L140 274L139 280L123 283L124 280L116 281L116 280L120 280L120 279L117 278L120 277L118 274L126 271L125 239L124 239C124 245.885 127.11 263.099 122.397 268.427C120.137 270.982 116.059 271.062 113 272L114 274L100 279L100 280L125 284L125 285L110 285L110 286L142 287L142 286L133 286L133 285L145 283L145 282L142 282L146 279L146 273L143 268L141 270L135 271L134 258L139 254L138 254L135 256L135 232L136 232L136 245L137 245L141 243L141 248L142 248C145.018 239.943 144.513 233.469 152 228L145 224L152 224L152 223L146 222L146 216L139 222M499 216L496 219C498.348 218.706 499.951 218.507 499 216z"/>
<path style="fill:#747a88; stroke:none;" d="M185 219L185 220L198 220L197 218L204 218C198.38 215.642 190.645 217.215 185 219z"/>
<path style="fill:#3d3736; stroke:none;" d="M255 217L255 218L266 228C270.386 220.474 261.156 217.182 255 217z"/>
<path style="fill:#77594b; stroke:none;" d="M67 218L67 219L85 220L85 218L67 218M180 218L175 222L181 224L179 222L180 218z"/>
<path style="fill:#b49b90; stroke:none;" d="M197 218L197 219L206 220L197 218z"/>
<path style="fill:#747a88; stroke:none;" d="M273 218L276 222L277 219L273 218z"/>
<path style="fill:#b49b90; stroke:none;" d="M278 218L276 224L280 224L278 218z"/>
<path style="fill:#747a88; stroke:none;" d="M420 222L420 223L434 219C429.018 216.969 424.533 219.953 420 222z"/>
<path style="fill:#b49b90; stroke:none;" d="M319 219L319 220L324 220L319 219z"/>
<path style="fill:#77594b; stroke:none;" d="M343 219C342.932 226.465 340.464 235.885 338.081 242.961C337.064 245.981 337.296 251.337 333 250L332 250L318 250L318 251L323 251L322 254C329.639 254.021 349.071 253.852 353 261L343 260L353 263L351 268C356.485 268 362.585 269.018 366 264L354 265C355.053 259.326 355.843 254.788 349 254C349 250.699 348.131 245.499 352 245L352 244L346 245L348 243L348 242L345 240L346 244L342 245L342 231L345 239L349 238L348 226L346 226L346 230L344 230L346 219L343 219z"/>
<path style="fill:#3d3736; stroke:none;" d="M286 220L285 235L287 235L286 220z"/>
<path style="fill:#b49b90; stroke:none;" d="M318 221L318 227L319 227L318 221z"/>
<path style="fill:#747a88; stroke:none;" d="M288 222L287 236L288 236L288 222M58 223L58 225L61 225L61 223L58 223z"/>
<path style="fill:#b49b90; stroke:none;" d="M238.667 223.333L239.333 223.667L238.667 223.333z"/>
<path style="fill:#747a88; stroke:none;" d="M246 223L252 227L246 223M281 223L280 235C283.559 233.003 284.992 224.996 281 223M111 224L111 225L134 225L111 224M135 224L135 228L137 228L137 224L135 224M231 225L229 230L231 225z"/>
<path style="fill:#77594b; stroke:none;" d="M83 226L84 234L85 234L83 226z"/>
<path style="fill:#747a88; stroke:none;" d="M241 228L241 229C242.96 229.653 243.554 230 241 230L241 231L244 228L241 228z"/>
<path style="fill:#b49b90; stroke:none;" d="M254 228L246 238L261 237L261 238L257 239L257 241L262 244L261 239L270 239L270 237C264.696 235.974 260.875 233.547 260 228L256 232L255 232L254 228z"/>
<path style="fill:#747a88; stroke:none;" d="M334 229L335 234L338 234L338 228L334 229z"/>
<path style="fill:#77594b; stroke:none;" d="M161 229L161 232L165 232L165 229L161 229z"/>
<path style="fill:#747a88; stroke:none;" d="M237 229L237 231L239 231L239 229L237 229z"/>
<path style="fill:#b49b90; stroke:none;" d="M241.667 229.333L242.333 229.667L241.667 229.333M249 229L249 230L250 232L252 229L249 229z"/>
<path style="fill:#cf7029; stroke:none;" d="M113 230L113 235L117 235L117 234L113 230z"/>
<path style="fill:#747a88; stroke:none;" d="M121 259L122 259L123 235L126 235L126 245L129 245L127 235L131 235L131 240L132 240L132 230C117.353 230.011 121 247.465 121 259z"/>
<path style="fill:#f3e7b6; stroke:none;" d="M249.667 230.333L250.333 230.667L249.667 230.333z"/>
<path style="fill:#77594b; stroke:none;" d="M330 230L329 243L331 243L332 230L330 230z"/>
<path style="fill:#b67749; stroke:none;" d="M82 231L82 241L84 241L82 231z"/>
<path style="fill:#77594b; stroke:none;" d="M118 231L118 255L119 255L120 231L118 231z"/>
<path style="fill:#b49b90; stroke:none;" d="M123 231C123.854 234.987 127.489 234 131 234L131 233L123 231z"/>
<path style="fill:#747a88; stroke:none;" d="M219 237L224 235L225 231C221.119 231.822 219.188 232.899 219 237M72 232L72 245L73 245L72 232z"/>
<path style="fill:#77594b; stroke:none;" d="M75 234L78 232L75 234z"/>
<path style="fill:#b49b90; stroke:none;" d="M87.3333 232.667L87.6667 233.333L87.3333 232.667z"/>
<path style="fill:#77594b; stroke:none;" d="M111 232L114.691 239.155L115 253L105 252L104 252L105 269L106 269L107 266L113 270L114 266C109.967 263.385 111 258.386 111 254L114 254L114 265L115 265L117 235L111 232z"/>
<path style="fill:#f3e7b6; stroke:none;" d="M115 232L115 234L117 234L117 232L115 232z"/>
<path style="fill:#747a88; stroke:none;" d="M235 232L231 235L231 236L236 236L235 232z"/>
<path style="fill:#b49b90; stroke:none;" d="M269 232L269 233L273 233L269 232z"/>
<path style="fill:#747a88; stroke:none;" d="M276 232L277 240L277 245L283 241L279 238L279 232L276 232z"/>
<path style="fill:#cf7029; stroke:none;" d="M83 233L83 237L84 237L83 233z"/>
<path style="fill:#b49b90; stroke:none;" d="M98 233L98 235L100 235L100 233L98 233M230 236L233 234C230.604 233.425 230.513 233.525 230 236z"/>
<path style="fill:#3d3736; stroke:none;" d="M264 233L264 235L266 235L266 233L264 233z"/>
<path style="fill:#747a88; stroke:none;" d="M301 233L299 239L295 237C296.085 242.063 305.694 240 310 240L310 238L303 238L303 233L301 233M384 233L384 234L388 234L384 233M240 236L243 237C244.093 234.113 241.499 233.924 240 236M291 234L290 237L292 240L293 240L291 234M324 234L323 239C319.605 238.115 314.858 237.998 314 242L317 241L312 245L316 247C318.317 243.213 321.799 243.09 326 243L324 234z"/>
<path style="fill:#b49b90; stroke:none;" d="M125 235L125 257L126 257L129 245L125 235z"/>
<path style="fill:#77594b; stroke:none;" d="M127 235L129 261L130 261L131 235L127 235z"/>
<path style="fill:#b67749; stroke:none;" d="M215 235L216 241L217 241L215 235z"/>
<path style="fill:#b49b90; stroke:none;" d="M221 237L224 235L221 237z"/>
<path style="fill:#77594b; stroke:none;" d="M224 235L224 238L220 238L220 239L226 240L224 235z"/>
<path style="fill:#b49b90; stroke:none;" d="M225.333 235.667L225.667 236.333L225.333 235.667M241 235L241 237L243 237L243 235L241 235M280 235L282 240L283 240L283 235L280 235z"/>
<path style="fill:#b67749; stroke:none;" d="M172 236C173.277 239.844 175.723 239.844 177 236L172 236z"/>
<path style="fill:#77594b; stroke:none;" d="M187 237L187 238L193 240L194 240L194 236L187 237z"/>
<path style="fill:#b67749; stroke:none;" d="M200 236L207 241L206 236L200 236z"/>
<path style="fill:#747a88; stroke:none;" d="M271 236C270.254 238.946 269.803 240.311 273 241L273 236L271 236z"/>
<path style="fill:#b49b90; stroke:none;" d="M285 236L285 240L288 236L285 236z"/>
<path style="fill:#747a88; stroke:none;" d="M358 236L358 238L360 238L360 236L358 236z"/>
<path style="fill:#77594b; stroke:none;" d="M373 238L373 239L409 242L401 238C399.906 236.092 397.982 235.347 398 238L373 238z"/>
<path style="fill:#b67749; stroke:none;" d="M166 238L166 240C169.137 240.494 170 240.036 171 237L166 238z"/>
<path style="fill:#747a88; stroke:none;" d="M242 238L249 240L253 243L261 238L242 238z"/>
<path style="fill:#b49b90; stroke:none;" d="M289 237L289 239L292 239L292 237L289 237z"/>
<path style="fill:#cf7029; stroke:none;" d="M114 238L114 241L116 241L116 238L114 238z"/>
<path style="fill:#b67749; stroke:none;" d="M187 238L187 240L193 240L193 238L187 238M218 238C218.796 241.716 221.637 241 225 241L218 238z"/>
<path style="fill:#747a88; stroke:none;" d="M356 238L351 240L351 241L352 247C371.187 236.288 388.532 241.112 409 245C399.874 229.977 369.234 244.614 356 238M261 239L261 240L265 241L265 245L269 239L261 239z"/>
<path style="fill:#77594b; stroke:none;" d="M269 239L268 244L269 239z"/>
<path style="fill:#747a88; stroke:none;" d="M333 239L332 244L337 244L336 239L333 239z"/>
<path style="fill:#b49b90; stroke:none;" d="M131 240L131 258L132 258L131 240M243 242C246.037 243.969 247.849 243.443 249 240L243 242z"/>
<path style="fill:#77594b; stroke:none;" d="M252 241L252 242L260 243L252 241z"/>
<path style="fill:#b49b90; stroke:none;" d="M295 240L295 242L311 241L295 240z"/>
<path style="fill:#77594b; stroke:none;" d="M357 242L357 243L403 243C390.105 236.803 370.604 240.272 357 242z"/>
<path style="fill:#3d3736; stroke:none;" d="M262 244L248 243L248 244L265 245L265 241L262 244z"/>
<path style="fill:#b49b90; stroke:none;" d="M274 241L273 242L273 243L273 244L276 241L274 241z"/>
<path style="fill:#3d3736; stroke:none;" d="M315 241L315 243L317 243L317 241L315 241M319 241L319 242L322 242L319 241z"/>
<path style="fill:#b49b90; stroke:none;" d="M346 245L353 241L346 245z"/>
<path style="fill:#77594b; stroke:none;" d="M225 242L224 245L224 246L226 251L228 242L227 242L225 242z"/>
<path style="fill:#f1ae48; stroke:none;" d="M226.333 242.667L226.667 243.333L226.333 242.667z"/>
<path style="fill:#3d3736; stroke:none;" d="M295 242L295 243L300 244L300 245L281 243L280 245L280 246C287.918 247.001 298.712 248.791 306 245L311 249L314 243L295 242z"/>
<path style="fill:#747a88; stroke:none;" d="M198 243L197 247L201 247L198 243z"/>
<path style="fill:#cf7029; stroke:none;" d="M231 243L233 255C240.56 254.411 238.249 248.795 238 243L231 243z"/>
<path style="fill:#f1ae48; stroke:none;" d="M242 243L243 252L273 263L270 278L270 279L272 281L236.996 283.81L215 283L215 284L217 285L215 287L218 286L213 289L213 290L221 298L215 304L218 303L218 307C223.875 314.42 223.627 316.689 234 318L234 319L229 319C233.399 325.785 251.589 323.064 259 324L259 325L255 325L255 326L260 326L260 327L243 326L243 327L247 327L247 328L235 328L235 329C251.122 331.993 267.873 331.48 284 333.603C295.559 335.126 312.749 338.324 324 335L321 332L331 332L331 331L314 329L314 328L321 328L320 325L335 324L335 323L309 324.591L291 318L291 317L334 313L334 312L329 312L329 311L332 309C327.836 309.252 324.531 308.675 324 304L319 305L334 302C332.283 298.725 330.541 298.151 327 299L333 297L333 296L324 293L330 292L330 291L309 289L310 292L295 292L297 295L291 295L293 294L293 293L288 289L300 289L299 287L322 287L322 285L296 284L296 283L299 283L299 282L290 282L285 284L287 282L287 281L281 281L278 277L295 272L313 272.99L348 278L353 263C341.177 262.756 329.726 259.321 318 259.015C311.193 258.837 299.389 259.349 294 255L323 256L323 255C314.732 255 307.241 253.348 299 253.94C295.936 254.16 291.526 253.48 291 257L284 257L284 256L288 255L282 251L282 250L294 250L278 246.83L242 243z"/>
<path style="fill:#77594b; stroke:none;" d="M316 244C315.209 246.628 314.113 248.756 312 246L311 246L311 249L306 245L294 246L295 249L304 251L303 248L309 253L321 252L311 252L311 251L317 251L317 248L326 248C325.021 242.361 320.705 243.14 316 244M242 244L242 248L243 248L242 244z"/>
<path style="fill:#b67749; stroke:none;" d="M248 244L248 245L258 245L248 244z"/>
<path style="fill:#747a88; stroke:none;" d="M202 249L209 249L209 245L202 249M214 245L215 249L216 249L214 245z"/>
<path style="fill:#b49b90; stroke:none;" d="M220 245L220 249L227 249C225.961 245.449 223.47 245.248 220 245z"/>
<path style="fill:#747a88; stroke:none;" d="M221 246L221 248L224 248L224 246L221 246z"/>
<path style="fill:#b49b90; stroke:none;" d="M312 246L312 249L316 248L312 246z"/>
<path style="fill:#b67749; stroke:none;" d="M332 248L333 252L338 246L332 248z"/>
<path style="fill:#77594b; stroke:none;" d="M415 250L418 248L418 253L413 251L416 262L416 263L413 265L420 264L420 271L421 271L421 246C417.59 246.263 416.099 246.679 415 250z"/>
<path style="fill:#747a88; stroke:none;" d="M128 247C124.047 252.643 124.123 264.53 126 271L118 274L120 277L117 278L120 279L120 280L116 280L116 281L124 280L123 283L139 280L140 274L131 275L127 272L127 271L132 271L132 258L131 258L130 261L127 261L127 257L128 257L128 259L129 259L128 247M137 247L136 256L139 247L137 247z"/>
<path style="fill:#b67749; stroke:none;" d="M287 247L287 248L294 249L294 250L282 250L282 251L288 255L284 256L284 257L291 257L310 251L303 248L304 251L301 248L287 247z"/>
<path style="fill:#747a88; stroke:none;" d="M411.333 247.667L411.667 248.333L411.333 247.667z"/>
<path style="fill:#77594b; stroke:none;" d="M172 248L172 253L176 252L176 249L172 248M157 249L159 255L160 255L157 249z"/>
<path style="fill:#b67749; stroke:none;" d="M222 256L222 257L229 258L229 251L222 256z"/>
<path style="fill:#b49b90; stroke:none;" d="M311 251L311 252L321 252L309 253L309 254L323 255L323 256L294 255L309 258.573L336.996 262.312L353 261C350.581 253.689 328.965 254.005 322 254L323 251L311 251z"/>
<path style="fill:#77594b; stroke:none;" d="M365 251L365 255L357 255L357 256L370 256C369.423 252.526 368.474 251.577 365 251M191 253L193 257L194 257L195 253L191 253z"/>
<path style="fill:#f1ae48; stroke:none;" d="M227 252L226 257L227 252z"/>
<path style="fill:#747a88; stroke:none;" d="M244 252L244 254L250 253L244 252z"/>
<path style="fill:#77594b; stroke:none;" d="M377 255L385 256C382.617 252.348 380.132 251.897 377 255z"/>
<path style="fill:#747a88; stroke:none;" d="M111 254L111 266L114 266L114 254L111 254z"/>
<path style="fill:#77594b; stroke:none;" d="M203 254L203 258L207 257L213 259L203 254z"/>
<path style="fill:#747a88; stroke:none;" d="M252 255L251 259L254 255L252 255M211 257L211 258L213 258L213 259C206.52 259.197 205.07 261.779 205 268L219 266L219 265L216 265L216 264L229 264L229 262L217 260L217 259L221 259L221 258L218 256L217 256L215 258L211 257z"/>
<path style="fill:#b49b90; stroke:none;" d="M234 256L234 257L237 257L234 256z"/>
<path style="fill:#747a88; stroke:none;" d="M245 260L250 256L245 260z"/>
<path style="fill:#b49b90; stroke:none;" d="M255 258L261 257L255 258z"/>
<path style="fill:#b67749; stroke:none;" d="M357 256L357 261L358 261L370 258L370 256L357 256z"/>
<path style="fill:#77594b; stroke:none;" d="M373 256L382 258L373 256z"/>
<path style="fill:#b67749; stroke:none;" d="M415 256L415 257L420 258L415 256z"/>
<path style="fill:#f3e7b6; stroke:none;" d="M127 257L127 261L128 261L127 257z"/>
<path style="fill:#b49b90; stroke:none;" d="M222.667 257.333L223.333 257.667L222.667 257.333M367 260L367 261L384 259L367 260z"/>
<path style="fill:#77594b; stroke:none;" d="M374 260L374 261L392 261C386.569 257.231 380.099 259.225 374 260z"/>
<path style="fill:#b49b90; stroke:none;" d="M217 259L217 260L238 264L217 259z"/>
<path style="fill:#747a88; stroke:none;" d="M246 267C251.368 266.517 259.104 264.538 261 259L246 267z"/>
<path style="fill:#b49b90; stroke:none;" d="M261 259C262.414 263.281 265.845 264.777 270 266L270 265L261 259z"/>
<path style="fill:#747a88; stroke:none;" d="M262 259L262 261L264 261L262 259z"/>
<path style="fill:#77594b; stroke:none;" d="M367 259L367 260L373 260L367 259M449 261L449 262L461 262L461 260L449 261M231 261L231 262L234 262L231 261z"/>
<path style="fill:#747a88; stroke:none;" d="M267.667 263.333L268.333 263.667L267.667 263.333z"/>
<path style="fill:#cf7029; stroke:none;" d="M272.333 263.667L272.667 264.333L272.333 263.667z"/>
<path style="fill:#b67749; stroke:none;" d="M285 264L288 265L288 266L282 266L283 271L293 270L293 269L288 267L296 268L296 267L294 267L294 266L299 266L299 264L285 264z"/>
<path style="fill:#3d3736; stroke:none;" d="M132 264L131 269L132 264z"/>
<path style="fill:#b67749; stroke:none;" d="M269 264L271 267L269 264M414 264L418 283L420 264L414 264z"/>
<path style="fill:#f1ae48; stroke:none;" d="M214 266L214 267L229 266L214 266z"/>
<path style="fill:#b49b90; stroke:none;" d="M205 270L219 268C214.548 265.878 208.048 265.668 205 270z"/>
<path style="fill:#3d3736; stroke:none;" d="M288 267C291.931 271.828 298.508 270.045 304 270L304 269L288 267z"/>
<path style="fill:#b67749; stroke:none;" d="M299 267L299 268L304 269L304 270L296 270L296 271C309.591 271 326.135 273.595 339 269L339 268L335 267C327.131 273.398 308.583 267 299 267z"/>
<path style="fill:#b49b90; stroke:none;" d="M202 268L201 271L202 268z"/>
<path style="fill:#77594b; stroke:none;" d="M235 268L238 276L237 272L239 268L235 268z"/>
<path style="fill:#b67749; stroke:none;" d="M349 268L348 278L341 281L345 281L345 282L344 284C327.755 281.947 305.037 277.525 289 281L299 282L299 283L296 283L296 284L322 285L322 287L299 287L300 289L288 289L293 293L293 294L291 295L297 295L295 292L310 292L309 289L330 291L330 292L324 293L333 296L333 297L327 299L334 302L319 305L324 304C324.135 309.162 327.485 309.72 332 309L329 311L329 312L334 312L334 313L331 313L337 317L337 318L327 317L327 319L335 320L335 321L306 322L306 323L335 323L335 324C330.668 324.545 320.904 322.552 321 328L314 328L314 329L337 333L337 334L325 334L325 333L328 333L328 332L321 332L324 335L306 337L306 336L311 336L311 335L260 331L240 335L240 333L253 332L253 331L246 330C242 333.03 232.916 333.919 228 333L238 330L238 329L235 329L235 328L247 328L247 327L243 327L243 326L260 327L260 326L255 326L255 325L259 325L259 324C250.357 322.395 235.512 325.65 229 319L234 319L234 318C223.741 316.094 224.865 312.74 218 307L218 303L216 304L215 304L221 298L218 297C217.776 292.948 217.235 290.735 213 290L213 289L218 286L215 287L217 284C208.3 281.93 198.419 284.693 198 295L195 296L195 297L201 298C197.018 302.128 193.339 301.107 188 301L189 304L184 304L182 308L189 306L189 307L187 310C177.718 308.827 171.318 309.35 163 314L163 315L172 313L185 318L180 318L180 319L189 321L189 323L171 325L174 322L174 321C168.459 320.885 161.519 317.486 158 323L162 323L162 324L153 325L153 326L173 326L173 327C167.726 327.666 158.044 326.305 155 331L162 332L162 333L153 334L156 335L156 338L139 340L139 342L160.025 343.715L170 340L170 341L166 342L166 343L182 344L182 345L175 345L175 346L257 344L257 343L223 340L223 339L265 336.544L313 338L313 339L310 340L313 341L313 342L295 342L295 346L379 346L379 345C371.241 344.995 360.703 344.913 355 339L345.907 337.137L324 337L324 336C338.826 333.248 356.092 334.377 371 336.184C379.201 337.179 389.972 341.006 398 339L398 338L392 338C395.267 334.922 398.498 333.414 403 334L403 335L398 335L398 336L412 334L412 331L389.025 333.802L374 330L375 328L368 328L368 327L371 327L371 326L363 326L363 325L378 323L378 322L348 322C346.901 318.679 345.41 318.263 342 318L340 311L344 311L342 307L342 306C344.565 303.753 343.518 301.812 341 300C342.663 297.613 343.321 296.029 341 294L352 270L351 268L349 268z"/>
<path style="fill:#747a88; stroke:none;" d="M409 268C404.638 273.237 398.286 272 392 272C380.57 272 364.105 268.983 353.228 272.318C347.598 274.044 351.116 282.887 344 285L342 292L388 290L389 276L405 276L405 287L391 287L391 288C399.617 291.078 414.956 294.315 419 284L414 285L414 290L408 289L411 268L409 268M200 269L188 274L202 272L200 269z"/>
<path style="fill:#f3e7b6; stroke:none;" d="M378.333 269.667L378.667 270.333L378.333 269.667z"/>
<path style="fill:#747a88; stroke:none;" d="M412 269L409 275L414 269L412 269z"/>
<path style="fill:#77594b; stroke:none;" d="M352 271L352 272L366 272L352 271M392 271L392 272L403 272L392 271M295 272L288 278L288 279L316 282L316 276L328 278L342 278L342 277C330.418 272.113 310.97 272.429 299 276L295 272z"/>
<path style="fill:#b67749; stroke:none;" d="M299 276L320 274C316.042 271.72 300.199 270.405 299 276z"/>
<path style="fill:#77594b; stroke:none;" d="M239 273L241 276L239 273z"/>
<path style="fill:#cf7029; stroke:none;" d="M270 273L270 277C261.679 276.994 247.959 270.728 241 276L238 274L227 279L230 280L230 281L228 282C240.576 286.02 259.246 284.142 272 281L270 279L270 278L272 273L270 273M278 277L281 281L287 281L287 282L285 284L290 284L291 279L289 277L286 273L278 277z"/>
<path style="fill:#b67749; stroke:none;" d="M286 273L291 278L291 273L286 273z"/>
<path style="fill:#3d3736; stroke:none;" d="M370 287L374 289L375 289L387 287L387 275C375.153 275 370 273.748 370 287z"/>
<path style="fill:#747a88; stroke:none;" d="M133 285L133 286L183 277C170.466 271.741 145.165 280.566 133 285z"/>
<path style="fill:#77594b; stroke:none;" d="M223 277L223 281L230 281L230 280L227 279L230 276L223 277z"/>
<path style="fill:#b67749; stroke:none;" d="M230 276L230 277L238 277L230 276z"/>
<path style="fill:#3d3736; stroke:none;" d="M316 276L316 282L344 284L345 282L345 281L341 281L343 278L328 278L316 276M353 276L352 287L366 287L366 276L353 276M389 276L388 289L393 289L393 288L391 288L391 287L405 287L405 276L389 276z"/>
<path style="fill:#77594b; stroke:none;" d="M236 283C240.605 282.747 243.216 281.806 244 277C239.511 277.347 237.839 278.954 236 283z"/>
<path style="fill:#3d3736; stroke:none;" d="M349 278L345 284L345 285C348.564 283.875 350.276 281.714 349 278z"/>
<path style="fill:#747a88; stroke:none;" d="M96 289L96 290L113 287L96 289z"/>
<path style="fill:#77594b; stroke:none;" d="M417 287C412.756 292.091 399.247 291.975 394 288L353 290L353 291C369.714 291 386.351 291.577 403 291.985C408.765 292.127 416.846 293.72 420 288L417 287M189 290L189 293L181 293L182 296L159.015 299.862L147 304L147 305L149 306C146.281 306.697 133.797 313.416 141 315L140 318L151 322L151 323L142 323L142 324L144 324L144 325L137 326L137 327L140 327L138 332L143 330L142 333L148 334L148 335L133 336L133 337L138 337L138 339L117 339L120 343C115.125 340.579 111.756 337.427 109 344L182 345L182 344L166 343L166 342L170 341L170 340L160.025 343.427L151.961 341.233L139 342L139 340L156 338L156 335L153 334L162 333L162 332L155 331L156 328L143 327L143 326L173 327L173 326L153 326L153 325L162 324L162 323L158 323C162.497 318.561 168.223 320.952 174 321L174 322L171 325L189 323L189 321L180 319L180 318L185 318L172 313L163 315L163 314C172.002 310.455 177.34 309.238 187 310L189 307L189 306L182 308L184 304L189 304L188 301C193.213 301.223 197.758 302.984 201 298L195 297L195 296L198 295L199 290L189 290M28 310L28 311C61.4718 311 95.2817 297.749 128 291C119.057 287.247 107.95 291.86 99 293.54C75.2487 298 51.2644 303.46 28 310z"/>
<path style="fill:#b67749; stroke:none;" d="M419 296L418 301L420 301L419 296M153 314L158 313L158 314C155.471 314.506 155.471 314.494 158 315L158 316L149 316L149 317C153.497 317 159.032 317.899 162 314L159 315L162 310C157.949 310.098 155.135 310.345 153 314z"/>
<path style="fill:#77594b; stroke:none;" d="M340 311L342 318L398 322L398 323L363 325L363 326L371 326L371 327L368 327L368 328L375 328L374 330L389.025 333.924L412 331L412 334L398 336L398 335L403 335L403 334C398.588 332.934 394.654 334.222 392 338L398 338L398 339C389.706 340.251 380.271 337.187 372 336.184C357.274 334.399 338.524 332.542 324 336L324 337L344.96 337.173L355 339C358.884 345.083 369.535 344.523 376 345.169C397.096 347.278 418.788 346 440 346L440 344C432.322 344 423.452 344.642 417 340L421 340L420 338C427.152 337.941 445.868 339.398 450 333C442.404 334.808 436.03 334.064 429 331L430 334L420 332C420.453 329.207 421.001 328.364 418 328L418 327L422 327L422 323L419 314C393.248 317.255 365.31 316.948 340 311z"/>
<path style="fill:#b49b90; stroke:none;" d="M291 317L291 318L313 325L313 324L306 323L306 322L335 321L335 320L327 319L327 317L337 318C325.379 309.607 305.042 317 291 317z"/>
<path style="fill:#b67749; stroke:none;" d="M135 316L135 318L138 318L138 316L135 316z"/>
<path style="fill:#77594b; stroke:none;" d="M426 316C426.054 320.539 426.298 323.572 431 325L431 326L425 326L425 327L427 330L451 330L451 329L431 328L433 326L434 316L426 316z"/>
<path style="fill:#3d3736; stroke:none;" d="M348 321L348 322L387 322C376.636 316.49 359.437 321 348 321z"/>
<path style="fill:#b67749; stroke:none;" d="M137 323L137 324L142 323L137 323M382 322L382 323L398 323L382 322M295 324L295 325L303 323L295 324z"/>
<path style="fill:#f1ae48; stroke:none;" d="M143 326L143 327L151 327L143 326z"/>
<path style="fill:#b67749; stroke:none;" d="M136 327L136 328L140 328L136 327z"/>
<path style="fill:#3d3736; stroke:none;" d="M148 327L148 328L157 328L148 327z"/>
<path style="fill:#77594b; stroke:none;" d="M228 333L246 332L246 330C240.232 330 232.349 328.773 228 333M240 333L240 335L261 333C255.552 328.878 246.465 332.946 240 333M290 332L290 333L300 333L300 331L290 332M325 333L325 334L337 334L325 333z"/>
<path style="fill:#747a88; stroke:none;" d="M127 335L127 336L132 335L127 335z"/>
<path style="fill:#b67749; stroke:none;" d="M148 337L152 335L148 337z"/>
<path style="fill:#77594b; stroke:none;" d="M185 336L185 337L209 336C202.948 331.416 192.023 335.558 185 336M306 336L306 337L313 336L306 336M158 337L158 338L169 337L158 337z"/>
<path style="fill:#f1ae48; stroke:none;" d="M223 339L223 340L257 343L257 344L235 345L235 346L293 346L293 345L260 343L260 342L276 341L287 338L272 336.91L223 339z"/>
<path style="fill:#b49b90; stroke:none;" d="M276 341L260 342L260 343L295 346L296 345L295 342L303 340L313 339C307.489 335.825 290.55 337.328 284 338.222C280.438 338.709 276.929 336.663 276 341z"/>
<path style="fill:#747a88; stroke:none;" d="M446 337L444 342L446 337z"/>
<path style="fill:#77594b; stroke:none;" d="M452 339L449 346L454 346L455 339L452 339z"/>
<path style="fill:#b67749; stroke:none;" d="M72 341L72 342L76 341L72 341z"/>
<path style="fill:#77594b; stroke:none;" d="M78 340L81 342L78 340M303 340L313 342L313 341L303 340M93 344L93 345L99 345L93 344z"/>
<path style="fill:#b67749; stroke:none;" d="M87 345L87 346L118 346C108.611 341.008 96.9675 345 87 345z"/>
</svg>
