<?xml version="1.0" standalone="yes"?>
<svg width="520" height="346" xmlns="http://www.w3.org/2000/svg">
<path style="fill:#f6f1ed; stroke:none;" d="M0 0L0 3L9 3L9 6L0 6L0 15L10 16L10 17L0 17L0 26L10 27L10 28L0 28L0 37L11 37L11 40C3.83446 40.0008 0.09559 39.9347 0 48L12 48L12 51C3.14793 50.9277 0.00769554 50.0464 0 60L13 60L13 62L0 62L0 71L14 71L14 74L0 74L0 82L14 82L14 85L0 85L0 137L4 137L4 155L0 155L0 166L6 166L7 190L27 187L14 0L0 0z"/>
<path style="fill:#956a63; stroke:none;" d="M14 0L27 187L0 191L0 193L29 189C29 150.391 23.7258 111.497 21.0895 73C19.5245 50.1464 22.4797 21.9217 16 0L14 0z"/>
<path style="fill:#22140f; stroke:none;" d="M16 0L21.0895 74L29 189L0 193L0 206L40 199C33.268 173.046 34.7303 145.575 32.9105 119C30.2094 79.5561 25.0262 39.5487 25 0L16 0z"/>
<path style="fill:#956a63; stroke:none;" d="M25 0L30 67L34 148L37 188L38 201L42 201L36.0895 151L31.9105 55L30 0L25 0z"/>
<path style="fill:#69544e; stroke:none;" d="M30 0L42 201L22 202L22 203L25 203L25 204L0 208L0 211L33 205.31L43.9722 202.4L44.1698 187L43.0895 150L34 0L30 0z"/>
<path style="fill:#22140f; stroke:none;" d="M34 0L45 202L55 201L44 0L34 0z"/>
<path style="fill:#69544e; stroke:none;" d="M44 0L49 104L50 104L49.0394 72L46 0L44 0z"/>
<path style="fill:#22140f; stroke:none;" d="M46 0L57 202L60 202L49 11L50 11L50 17L51 17L51 0L46 0z"/>
<path style="fill:#956a63; stroke:none;" d="M51 0L51 13L52 13L51 0z"/>
<path style="fill:#22140f; stroke:none;" d="M52 0L62 187L64 187L54 0L52 0z"/>
<path style="fill:#69544e; stroke:none;" d="M54 0L54 10L55 10L54 0z"/>
<path style="fill:#956a63; stroke:none;" d="M55 0L57 59L58 59L60 42C68.9921 43.4679 66 57.0821 66 64L67 64L66 0L55 0z"/>
<path style="fill:#22140f; stroke:none;" d="M66 0L75 180L77 180L68 0L66 0z"/>
<path style="fill:#69544e; stroke:none;" d="M68 0L68 8L69 8L68 0z"/>
<path style="fill:#956a63; stroke:none;" d="M69 0L70 41L71 41L71 34L72 34L77 122L76 122L76 112L75 112L77 175L80 169L81 169L81 180L82 180L76.0394 66L71.1844 21L69 0z"/>
<path style="fill:#69544e; stroke:none;" d="M70 0L77 82L78 82L75 0L70 0z"/>
<path style="fill:#22140f; stroke:none;" d="M75 0L84 206C75.8972 207.029 49.3926 216.771 45 209L54 209L54 208L45 207L46 203L0 211L0 213L44 206L41 218L32 216L32 217L36 219C33.682 220.22 31.448 222.36 31 219L30 219L24 219L25 223L21 223L21 224L23 225L19 224L18 224L18 228L10 228L11 225L5 226L6 229L0 227L0 288L1.02778 309.242L11 309.984L43 315L41 314L41 313L56 317L56 316L23 305L23 304L37 303L37 300L47 304L43 298L44 296L57 294L57 293L55 292L60 286L71 284L70 282L75 282L75 281L70 280L70 279L102 282L102 267L101 267L101 272L100 272L99 264L98 264L95 266L95 260L94 260L93 266L92 266L90 256L88 256L87 271L86 271L87 254L86 254L86 258L85 258L85 249L82 250L82 242L81 242L75 247L75 243L74 243L71 258L70 258L71 243L70 243L70 245L69 245L66 235L64 234L53 238L52 222L51 222L48 224L46 215C87.4458 216.807 108.541 265.025 149 271L147 275L157 272L152 275C149.184 279.663 147.33 285.538 143.505 289.497C132.927 300.442 111.761 306.634 98.0895 313.174C91.2433 316.449 81.5066 323.163 73.9105 323.691C66.0418 324.237 56.4753 318.382 48 318L48 319C52.9946 319.738 62.2589 320.637 65 325L69 325L69 326L62 325L63 329L35 323L35 322L52 323L52 322L33 317L33 318L40 320L40 321L22 319L22 320L52 331L52 332L0 315L0 329L7 332L7 333L0 333L0 346L151 346C151.154 341.275 152.077 338.785 157 338L157 346L200 346C200 340.878 199.122 335.797 203 332L203 346L269 346C274.84 346 287.784 348.677 290 342C315.767 349.42 345.053 346 372 346L520 346L520 304L500 308L500 307C506.299 306.869 516.476 305.78 520 300C512.356 303.164 502.054 307.53 494 304L505 300L505 298L499 295L496 296L492 294L494 302L490 291L516 300L518 290L519 292L520 292L520 273L519 273L505 291L504 291C509.804 277.551 520 270.464 520 255L519 255L515 261L511 269L508 263L506 272L506 268L502 267L506 267L504 265L507 262L501 265L509.019 250.992L519.682 243.867L520 220L520 168L520 0L448 0L445 105L444 105L444 85L443 85L439 195L444 195L444 196C403.736 195.889 361.991 188.513 322 183.715C307.189 181.937 291.893 178.123 277 178L277 177L296 178L296 0L278 0L278 172L277 172L277 0L275 0L275 117L274.852 174L269 188L268 188L267 0L265 0L265 185L260 186L260 130C260 122.832 262.084 109.242 251 115L251 64L224 64L224 63C229.334 63 237.789 53.7017 232 53L232 52L252 52L252 47L253 47L253 50L254 50L254 47L259 50L259 0L75 0z"/>
<path style="fill:#8d4d2b; stroke:none;" d="M259 0L259 50C256.533 48.4525 254.753 46.2148 254 50L253 50L253 47L252 47L252 52L232 52L232 53L235 53C231.547 57.9351 230.684 62.2529 224 63L224 64L251 64L251 115L260 114L260 35L259 0z"/>
<path style="fill:#956a63; stroke:none;" d="M260 0C260 54.9763 256.678 111.234 261 166L264 169L265 169L265 0L260 0z"/>
<path style="fill:#69544e; stroke:none;" d="M267 0L267 83L268 83L268 9L269 9L272.91 43L274 98L275 98L275 0L267 0M277 0L277 172L278 172L278 51C278 36.7 282.506 13.1208 277 0M296 0L296 108L297 108L297 33L296 0z"/>
<path style="fill:#8d4d2b; stroke:none;" d="M297 0L298 177L297 177L297 108L296 108L296 162C296 167.973 293.657 177.398 301 179L301 0L297 0z"/>
<path style="fill:#22140f; stroke:none;" d="M301 0L301 179L308 180L309 0L301 0z"/>
<path style="fill:#69544e; stroke:none;" d="M309 0L309 92L310 92L311 0L309 0z"/>
<path style="fill:#aea8a5; stroke:none;" d="M311 0L311 10L312 10L312 5L313 5L314 45L315 45L316 0L311 0z"/>
<path style="fill:#f6f1ed; stroke:none;" d="M316 0L315 88L314 88L314 57L311 57C311 87.6905 310 118.277 310 149C310 154.935 306.782 175.999 311.603 179.821C313.743 181.517 317.448 181 320 181.514C328.782 183.283 338.006 184.907 347 184.996C350.841 185.034 355.815 183.017 359 185L360 185L360 177L334 182L334 181C339.776 179.359 345.502 177.227 347 171L335 176C336.15 167.511 341.96 160.856 351 161C352.713 156.408 355.24 151.708 360 156L361 156L364 0L316 0z"/>
<path style="fill:#69544e; stroke:none;" d="M364 0L364 26L365 26L364 0z"/>
<path style="fill:#22140f; stroke:none;" d="M365 0L361 186L377 187L380 0L365 0z"/>
<path style="fill:#69544e; stroke:none;" d="M380 0L377.09 141L377 173L375 187L375 188C379.583 187.018 378 180.88 378 177C378 165.613 379 154.414 379 143C379 95.3064 382 47.7032 382 0L380 0z"/>
<path style="fill:#956a63; stroke:none;" d="M382 0L382 7L383 7L382 0z"/>
<path style="fill:#f6f1ed; stroke:none;" d="M383 0L380 151C391.853 150.491 399.236 153.027 409 159L409 154C419.473 154 431.174 154.587 440 159L441 119L440 119L440 131L439 131L440 99L441 99L441 112L442 112L441 84L442 84L442 87L443 87L446 0L383 0z"/>
<path style="fill:#69544e; stroke:none;" d="M446 0L444 105L445 105L448 0L446 0z"/>
<path style="fill:#aea8a5; stroke:none;" d="M0 3L0 6L9 6L9 3L0 3z"/>
<path style="fill:#aa8f7a; stroke:none;" d="M29 3L34.9105 105L40 184L41 184L33.0895 53L31.0895 18L29 3z"/>
<path style="fill:#aea8a5; stroke:none;" d="M445 3L445 19L446 19L445 3z"/>
<path style="fill:#e0b378; stroke:none;" d="M312 5L311 57L314 57L314 88L315 88L316 43L315 43L315 45L314 45C314 33.0884 316.65 16.0817 312 5z"/>
<path style="fill:#69544e; stroke:none;" d="M52 8L51 17L50 17L50 11L49 11L59 194L65 193L65 192L60 192L61 176L60 176L60 179L59 179L59 144L58 144L58 146L57 146L58 122L57 122L57 127L56 127L57 109L55 110L57 83L56 83L55 95L54 95L56 64L55 64L54 77L53 77L55 50L53 58L52 58L54 24L53 24L52 36L51 36L52 8z"/>
<path style="fill:#e0b378; stroke:none;" d="M14 9L14 15L15 15L14 9z"/>
<path style="fill:#8d4d2b; stroke:none;" d="M268 9L273 91L274 91C274 68.2958 274.951 45.182 269.843 23C268.785 18.4015 269.808 13.3094 268 9z"/>
<path style="fill:#aea8a5; stroke:none;" d="M0 15L0 17L10 17L0 15z"/>
<path style="fill:#956a63; stroke:none;" d="M52 16L52 30L53 30L52 16z"/>
<path style="fill:#69544e; stroke:none;" d="M55 19L55 32L56 32L55 19z"/>
<path style="fill:#aea8a5; stroke:none;" d="M15 20L15 24L16 24L15 20M444 22L444 41L445 41L444 22z"/>
<path style="fill:#69544e; stroke:none;" d="M26 23L26 31L27 31L26 23z"/>
<path style="fill:#22140f; stroke:none;" d="M51 25L51 36L52 36L51 25z"/>
<path style="fill:#aea8a5; stroke:none;" d="M0 26L0 28L10 28L0 26z"/>
<path style="fill:#956a63; stroke:none;" d="M310 26L310 60L311 60L310 26z"/>
<path style="fill:#69544e; stroke:none;" d="M67 31L67 45L68 45L67 31z"/>
<path style="fill:#8d4d2b; stroke:none;" d="M27 32L27 41L28 41L27 32z"/>
<path style="fill:#aa8f7a; stroke:none;" d="M381 32L381 51L382 51L381 32M71 34L74 115L75 115L75 112L76 112L76 122L77 122L73.1698 59L71 34z"/>
<path style="fill:#e0b378; stroke:none;" d="M16 36L16 44L17 44L16 36z"/>
<path style="fill:#aea8a5; stroke:none;" d="M0 37L0 41L11 40L11 37L0 37z"/>
<path style="fill:#956a63; stroke:none;" d="M53 37L53 50L54 50L53 37M268 38L268 126L269 174L270 174C277.189 164.702 275 153.388 275 142C275 118.393 273.342 95.4707 272.035 72C271.476 61.9445 273.462 46.692 268 38z"/>
<path style="fill:#69544e; stroke:none;" d="M56 39L56 49L57 49L56 39z"/>
<path style="fill:#aea8a5; stroke:none;" d="M363 39L363 63L364 63L363 39z"/>
<path style="fill:#69544e; stroke:none;" d="M70 41L70 54L71 54L70 41z"/>
<path style="fill:#aa8f7a; stroke:none;" d="M444 41L444 50L445 50L444 41z"/>
<path style="fill:#22140f; stroke:none;" d="M52 42L52 58L53 58L52 42z"/>
<path style="fill:#aa8f7a; stroke:none;" d="M60 42C57.1605 77.9805 61.5737 113.036 62.0039 149C62.1458 160.866 68.043 178.134 62 189C65.4283 190.426 73.945 193.823 75 189L65 189L65 188L66 186L71 176L72 176L76 182L72.9105 140L68 57L67 57L67 64C64.9594 57.0965 69.7097 42.7743 60 42z"/>
<path style="fill:#aea8a5; stroke:none;" d="M0 51L12 51L12 48C8.00513 48 1.01276 46.2738 0 51z"/>
<path style="fill:#956a63; stroke:none;" d="M297 48L297 177L298 177L298 87C298 75.8419 301.308 58.2657 297 48z"/>
<path style="fill:#aea8a5; stroke:none;" d="M17 51L17 56L18 56L17 51z"/>
<path style="fill:#69544e; stroke:none;" d="M68 51L68 62L69 62L68 51z"/>
<path style="fill:#aea8a5; stroke:none;" d="M381 51L381 69L382 69L381 51z"/>
<path style="fill:#956a63; stroke:none;" d="M54 53L54 69L55 69L54 53z"/>
<path style="fill:#69544e; stroke:none;" d="M57 59L57 74L58 74L57 59z"/>
<path style="fill:#aea8a5; stroke:none;" d="M0 60L0 62L13 62L13 60L0 60z"/>
<path style="fill:#aa8f7a; stroke:none;" d="M310 60L310 92L311 92L310 60z"/>
<path style="fill:#69544e; stroke:none;" d="M372 63L375 61L372 63M71 63L71 73L72 73L71 63z"/>
<path style="fill:#aa8f7a; stroke:none;" d="M363 63L363 76L364 76L363 63z"/>
<path style="fill:#69544e; stroke:none;" d="M29 64L29 76L30 76L29 64z"/>
<path style="fill:#22140f; stroke:none;" d="M53 64L53 77L54 77L53 64z"/>
<path style="fill:#aea8a5; stroke:none;" d="M443 64L443 72L444 72L443 64z"/>
<path style="fill:#8d4d2b; stroke:none;" d="M218 67C224.366 75.8411 222.777 91.2101 223 102L239 103L236 108C238.854 112.942 242.374 114.738 248 115L249 65L218 67z"/>
<path style="fill:#69544e; stroke:none;" d="M372 65C370.702 70.4537 369.575 77.0495 376 79L372 65z"/>
<path style="fill:#aea8a5; stroke:none;" d="M18 68L18 73L19 73L18 68z"/>
<path style="fill:#e0b378; stroke:none;" d="M335 69L335 70L350 82L354 81C351.807 71.7815 343.605 69.0722 335 69z"/>
<path style="fill:#aa8f7a; stroke:none;" d="M380 69L380 101L381 101L380 69z"/>
<path style="fill:#aea8a5; stroke:none;" d="M331 71C333.879 76.5375 343.807 82.5372 350 83C347.606 75.4827 338.745 69.2424 331 71z"/>
<path style="fill:#e0b378; stroke:none;" d="M0 71L0 74L14 74L14 71L0 71z"/>
<path style="fill:#aa8f7a; stroke:none;" d="M443 72L443 78L444 78L443 72z"/>
<path style="fill:#956a63; stroke:none;" d="M55 74L55 87L56 87L55 74z"/>
<path style="fill:#69544e; stroke:none;" d="M363 76L363 90L364 90L363 76z"/>
<path style="fill:#8d4d2b; stroke:none;" d="M92 80L93 89L107.999 95.5702L120 94L120 81L107.961 77.9483L92 80M207 78L200 80L197 90L210 100C219.474 101.36 220.999 99.5291 221 90L220 90L220 92L219 92L218 78L210 78L210 83L208 83L207 78z"/>
<path style="fill:#69544e; stroke:none;" d="M58 79L58 91L59 91L58 79z"/>
<path style="fill:#22140f; stroke:none;" d="M54 80L54 95L55 95L54 80z"/>
<path style="fill:#69544e; stroke:none;" d="M69 80L69 85L70 85L69 80z"/>
<path style="fill:#aea8a5; stroke:none;" d="M19 81L19 87L20 87L19 81z"/>
<path style="fill:#e0b378; stroke:none;" d="M0 82L4 86L4 85L2 83L14 83L0 82z"/>
<path style="fill:#aea8a5; stroke:none;" d="M2 83L2 85L14 85L14 83L2 83M441 84L442 98L443 98L441 84z"/>
<path style="fill:#956a63; stroke:none;" d="M56 91L56 106L57 106L56 91z"/>
<path style="fill:#e0b378; stroke:none;" d="M362 91L362 100L363 100L362 91z"/>
<path style="fill:#956a63; stroke:none;" d="M309 92L309 153L310 153L310 112L309 92z"/>
<path style="fill:#e0b378; stroke:none;" d="M382 92C383.101 105.812 406.633 92.2689 388.005 92.0039L382 92M409 94L409 95C415.85 95 427.4 92.7577 433 97L434 97L437 92L409 94z"/>
<path style="fill:#aea8a5; stroke:none;" d="M2 94L2 96L15 96L15 94L2 94M20 94L20 102L21 102L20 94z"/>
<path style="fill:#956a63; stroke:none;" d="M70 94L70 106L71 106L70 94z"/>
<path style="fill:#aea8a5; stroke:none;" d="M408 95L408 98L433 98L433 95L408 95z"/>
<path style="fill:#22140f; stroke:none;" d="M55 98L55 110L56 110L55 98z"/>
<path style="fill:#956a63; stroke:none;" d="M442 98L442 103L443 103L442 98z"/>
<path style="fill:#aea8a5; stroke:none;" d="M440 99L439 131L440 131C440 120.814 444.113 108.802 440 99z"/>
<path style="fill:#8d4d2b; stroke:none;" d="M57 100L57 111L58 111L57 100z"/>
<path style="fill:#69544e; stroke:none;" d="M362 100L362 130L363 130L362 100z"/>
<path style="fill:#8d4d2b; stroke:none;" d="M36 102L36 110L37 110L36 102M50 102L55 201L45 202L51 205L51 204L47 204L47 203C60.6036 202.99 56.6365 191.601 55.9105 181C54.5671 161.383 54.031 141.558 52.1698 122C51.5409 115.392 52.6897 108.235 50 102z"/>
<path style="fill:#69544e; stroke:none;" d="M59 102L59 108L60 108L59 102M73 105L73 115L74 115L73 105z"/>
<path style="fill:#aea8a5; stroke:none;" d="M391 105L391 107L396 108C395.346 104.946 393.993 105.064 391 105z"/>
<path style="fill:#956a63; stroke:none;" d="M443 107L443 127L444 127L443 107z"/>
<path style="fill:#69544e; stroke:none;" d="M79 109L79 126L80 126L79 109M71 110L71 122L72 122L71 110z"/>
<path style="fill:#956a63; stroke:none;" d="M57 111L57 122L58 122L57 111z"/>
<path style="fill:#22140f; stroke:none;" d="M56 114L56 127L57 127L56 114z"/>
<path style="fill:#8d4d2b; stroke:none;" d="M60 118L60 126L61 126L60 118z"/>
<path style="fill:#aa8f7a; stroke:none;" d="M441 118L441 126L442 126L441 118M379 119L379 142L380 142L379 119z"/>
<path style="fill:#aea8a5; stroke:none;" d="M22 121L22 127L23 127L22 121z"/>
<path style="fill:#8d4d2b; stroke:none;" d="M152 122L152 123L163 123L152 122z"/>
<path style="fill:#956a63; stroke:none;" d="M163 122L163 123L183 123L163 122z"/>
<path style="fill:#8d4d2b; stroke:none;" d="M183 122L183 123L191 123L183 122M144 123L144 124L150 124L144 123z"/>
<path style="fill:#e0b378; stroke:none;" d="M146 125L146 126L167 127L167 126L162 126L163 123L146 125z"/>
<path style="fill:#f6f1ed; stroke:none;" d="M162 126L167 126L167 127L164 127L164 128L180 127L180 126L176 126L176 123C171.133 123 165.117 121.678 162 126z"/>
<path style="fill:#e0b378; stroke:none;" d="M176 123L176 126L180 126L180 127L175 127L175 128L192 127L192 123L176 123z"/>
<path style="fill:#8d4d2b; stroke:none;" d="M192 123L192 124L197 124L192 123z"/>
<path style="fill:#956a63; stroke:none;" d="M139 124L142 126L142 167L143 167L143 126L147 125L139 124z"/>
<path style="fill:#aa8f7a; stroke:none;" d="M192 124L192 127L202 126L192 124z"/>
<path style="fill:#8d4d2b; stroke:none;" d="M200 124L200 125L203 126L200 124z"/>
<path style="fill:#69544e; stroke:none;" d="M308 125L308 180L309 180L309 143L308 125z"/>
<path style="fill:#956a63; stroke:none;" d="M58 126L61 189L64 188C54.3864 170.714 65.6351 144.195 58 126z"/>
<path style="fill:#8d4d2b; stroke:none;" d="M140 126L140 168L141 168L142 126L140 126z"/>
<path style="fill:#aa8f7a; stroke:none;" d="M143 126C143 137.776 146.789 157.592 141 168L144 169L144 127L153 127L143 126z"/>
<path style="fill:#8d4d2b; stroke:none;" d="M186 169L194 170L194 169C187.824 160.849 192 138.181 192 128L199 128L200 168L203 167C197.322 156.79 201 137.544 201 126L190.318 128.893L189 142L186 169z"/>
<path style="fill:#69544e; stroke:none;" d="M201 126L201 164L202 164C202 153.089 205.211 136.036 201 126z"/>
<path style="fill:#e0b378; stroke:none;" d="M144 127L144 169L153 170L152 128L144 127z"/>
<path style="fill:#8d4d2b; stroke:none;" d="M152 128C158.241 139.221 153.532 159.598 153 172L159 171L159 170L154 169L155 128L159 128L152 128z"/>
<path style="fill:#69544e; stroke:none;" d="M184 127L184 128L188 128L188 129L184 129L184 158L181.682 168.972L159 170L159 171L191 171L191 170L186 169L191 127L184 127M443 127L442 147L443 147L443 127z"/>
<path style="fill:#22140f; stroke:none;" d="M155 128L154 169C160.334 169.8 177.072 173.19 182.397 168.972C185.073 166.853 184 160.98 184 158L184 129L188 129L155 128z"/>
<path style="fill:#956a63; stroke:none;" d="M192 128L192 169L198 169L192 128z"/>
<path style="fill:#e0b378; stroke:none;" d="M193 128L197 168L199 168L199 128L193 128z"/>
<path style="fill:#aa8f7a; stroke:none;" d="M394 137L392 132L396 132C393.366 124.075 386.054 134.363 394 137z"/>
<path style="fill:#956a63; stroke:none;" d="M152 129L152 169L153 169L154 129L152 129z"/>
<path style="fill:#8d4d2b; stroke:none;" d="M33 131L33 137L34 137L33 131z"/>
<path style="fill:#956a63; stroke:none;" d="M199 131L199 168L200 168C200 157.351 203.111 140.798 199 131z"/>
<path style="fill:#aea8a5; stroke:none;" d="M361 131L361 148L362 148L361 131z"/>
<path style="fill:#22140f; stroke:none;" d="M57 132L57 146L58 146L57 132z"/>
<path style="fill:#aa8f7a; stroke:none;" d="M0 137L0 138L3 138L3 148L4 148L4 137L0 137z"/>
<path style="fill:#69544e; stroke:none;" d="M0 138L0 154L4 154L3 138L0 138z"/>
<path style="fill:#aea8a5; stroke:none;" d="M440 139L440 147L441 147L440 139z"/>
<path style="fill:#e0b378; stroke:none;" d="M379 142L378.83 174L379.028 187.258L395 190.285L444 196L444 195L438 192L414 191L415 182L428 178L431 181L433 171L429 166L436 166L436 160L437 160L438 171L439 171L438 156L409 154L409 159C400.617 151.415 391.157 150.119 380 151L379 142z"/>
<path style="fill:#69544e; stroke:none;" d="M75 144L75 155L76 155L75 144M440 147L440 152L441 152L440 147z"/>
<path style="fill:#aea8a5; stroke:none;" d="M24 148L24 154L25 154L24 148z"/>
<path style="fill:#69544e; stroke:none;" d="M361 148L361 162L362 162L361 148z"/>
<path style="fill:#22140f; stroke:none;" d="M58 149L58 162L59 162L58 149z"/>
<path style="fill:#69544e; stroke:none;" d="M73 153L73 161L74 161L73 153z"/>
<path style="fill:#aea8a5; stroke:none;" d="M309 153L309 180L303 180L303 181L321 182L321 181C302.889 180.948 313.768 164.363 309 153z"/>
<path style="fill:#e0b378; stroke:none;" d="M351 161C341.619 159.761 335.704 167.39 335 176L347 171C344.637 177.029 339.564 178.509 334 181L334 182L360 177L360 185L359 185C356.973 182.699 355.617 183.74 354 186L361 186C361 177.106 362.469 166.776 360.772 158.044C359.013 148.996 352.284 155.939 351 161z"/>
<path style="fill:#956a63; stroke:none;" d="M0 154L0 155L4 155L0 154z"/>
<path style="fill:#aea8a5; stroke:none;" d="M25 157L25 168L26 168L25 157z"/>
<path style="fill:#8d4d2b; stroke:none;" d="M35 160L35 169L36 169L35 160z"/>
<path style="fill:#69544e; stroke:none;" d="M76 160L76 171L77 171L76 160z"/>
<path style="fill:#aa8f7a; stroke:none;" d="M387 160L387 163L391 163L391 160L387 160M436 160L436 166L429 166L433 171L431 181L428 178L426 180L415 182L414 191L421 191L418 184L424 192L438 194L439 194C439 183.064 440.346 170.261 436 160z"/>
<path style="fill:#8d4d2b; stroke:none;" d="M260 161L260 186L265 185C265 179.665 267.335 167.853 261 166L260 161z"/>
<path style="fill:#aa8f7a; stroke:none;" d="M378 162L378 177L379 177L378 162M391 171L409 167L409 176L421 170L427 168L411 166L410 163C403.489 163.844 394.512 164.825 391 171z"/>
<path style="fill:#aea8a5; stroke:none;" d="M0 166L0 167L5 170L6 170L6 166L0 166z"/>
<path style="fill:#69544e; stroke:none;" d="M0 167L0 171L4 170L5 177L6 177L5 167L0 167M74 167L74 179L75 179L74 167M439 167L439 174L440 174L439 167z"/>
<path style="fill:#22140f; stroke:none;" d="M59 168L59 179L60 179L59 168z"/>
<path style="fill:#8d4d2b; stroke:none;" d="M63 168L63 176L64 176L63 168z"/>
<path style="fill:#69544e; stroke:none;" d="M435 168L435 170L437 168L435 168z"/>
<path style="fill:#8d4d2b; stroke:none;" d="M80 169L79 180L77 183L81 182L81 187L78 187L78 196L70 195L70 196L80 205L78 206L78 207L84 206L83 177L82 177L82 180L81 180L80 169z"/>
<path style="fill:#69544e; stroke:none;" d="M82 169L82 177L83 177L82 169z"/>
<path style="fill:#956a63; stroke:none;" d="M145.667 169.333L146.333 169.667L145.667 169.333z"/>
<path style="fill:#8d4d2b; stroke:none;" d="M273 169L270 174L269 174L269 171L268 171L268 188L269 188L275 169L273 169z"/>
<path style="fill:#e0b378; stroke:none;" d="M3 186L0 186L0 191L9 191L9 190C3.18837 186.435 4.0173 176.269 4 170C-3.57695 173.046 2.17825 180.481 3 186z"/>
<path style="fill:#956a63; stroke:none;" d="M149 193L164 187L164 177L157 177C156.236 187.027 149.223 180.944 149 174L156 171C144.606 173.494 148.999 183.932 149 193z"/>
<path style="fill:#e0b378; stroke:none;" d="M149 174L149 175C159.858 178.21 181.243 177.928 191 172C178.762 166.865 161.2 172.262 149 174z"/>
<path style="fill:#f6f1ed; stroke:none;" d="M171 175L176 175L176 172L171 175z"/>
<path style="fill:#e0b378; stroke:none;" d="M6 174L6 183L7 183L6 174z"/>
<path style="fill:#aa8f7a; stroke:none;" d="M4 175L5 183L6 183L4 175z"/>
<path style="fill:#8d4d2b; stroke:none;" d="M36 175L36 183L37 183L36 175z"/>
<path style="fill:#aa8f7a; stroke:none;" d="M149 175C149.248 182.639 156.674 186.917 157 177L165 177L165 176L149 175z"/>
<path style="fill:#8d4d2b; stroke:none;" d="M165 176L165 177L187 178L187 175L165 176z"/>
<path style="fill:#956a63; stroke:none;" d="M71 176L66 187L75 189L71 176z"/>
<path style="fill:#f6f1ed; stroke:none;" d="M390 181L394 180L394 176C390.51 176.581 389.453 177.44 390 181z"/>
<path style="fill:#956a63; stroke:none;" d="M435 176L438 180L435 176z"/>
<path style="fill:#8d4d2b; stroke:none;" d="M164 177L164 187L150 192L149 204L165 204L165 211L157 211L157 212L165 213L165 217L166 217C166 205.892 168.241 187.107 164 177z"/>
<path style="fill:#69544e; stroke:none;" d="M277 177L277 178L288 178L277 177z"/>
<path style="fill:#956a63; stroke:none;" d="M286 178L286 179L298 179L286 178z"/>
<path style="fill:#f6f1ed; stroke:none;" d="M77 179C76.1595 181.388 76.8371 185.851 79 182L77 183L77 182L79 179L77 179z"/>
<path style="fill:#aea8a5; stroke:none;" d="M295 179L295 180L301 180L295 179z"/>
<path style="fill:#956a63; stroke:none;" d="M298 180L298 181L305 180L298 180z"/>
<path style="fill:#aa8f7a; stroke:none;" d="M0 180L0 186L3 186L0 180z"/>
<path style="fill:#22140f; stroke:none;" d="M60 181L60 190L61 190L60 181M74 181L75 194L64 193L64 194L78 196C78 190.202 78.4641 185.255 74 181z"/>
<path style="fill:#69544e; stroke:none;" d="M305 181L305 182L312 182L305 181z"/>
<path style="fill:#22140f; stroke:none;" d="M79 182L79 187L81 187L81 182L79 182z"/>
<path style="fill:#8d4d2b; stroke:none;" d="M148 182L148 190L149 190L148 182z"/>
<path style="fill:#69544e; stroke:none;" d="M313 182L313 183L362 188C349.321 181.907 326.983 182 313 182z"/>
<path style="fill:#e0b378; stroke:none;" d="M430 182L434 190L435 185L438 185L430 182z"/>
<path style="fill:#956a63; stroke:none;" d="M5 183L5 189L7 189L7 183L5 183z"/>
<path style="fill:#aa8f7a; stroke:none;" d="M397 183L397 189L404 188L397 183M77 184L78 187L79 187L79 184L77 184z"/>
<path style="fill:#aea8a5; stroke:none;" d="M418 184L419 191L419 192L424 192C423.443 187.909 422.044 185.259 418 184z"/>
<path style="fill:#aa8f7a; stroke:none;" d="M349 185L349 186L354 186L349 185z"/>
<path style="fill:#f6f1ed; stroke:none;" d="M435 185C435.662 188.15 437.338 188.15 438 185L435 185z"/>
<path style="fill:#aa8f7a; stroke:none;" d="M357 186L357 187L380 189L357 186z"/>
<path style="fill:#aea8a5; stroke:none;" d="M17 188L17 189L22 189L17 188z"/>
<path style="fill:#e0b378; stroke:none;" d="M65 188L65 189L74 190L65 188z"/>
<path style="fill:#69544e; stroke:none;" d="M365 188L365 189L371 189L365 188z"/>
<path style="fill:#aea8a5; stroke:none;" d="M435 188L435 192L436 192L438 188L435 188z"/>
<path style="fill:#e0b378; stroke:none;" d="M60 192L75 194C72.3344 190.223 62.8911 187.811 60 192M315 192L315 193L330 195L330 190L315 192z"/>
<path style="fill:#69544e; stroke:none;" d="M375 189L375 190L412 193L375 189z"/>
<path style="fill:#aa8f7a; stroke:none;" d="M383 189L383 190L388 190L383 189z"/>
<path style="fill:#69544e; stroke:none;" d="M292 195L292 196L323 191C315.139 187.932 300.119 193.144 292 195z"/>
<path style="fill:#956a63; stroke:none;" d="M389 190L389 191L397 191L389 190z"/>
<path style="fill:#aa8f7a; stroke:none;" d="M401 191L401 192L408 192L401 191z"/>
<path style="fill:#aea8a5; stroke:none;" d="M289 199L317 194C311.661 190.678 292.471 193.625 289 199z"/>
<path style="fill:#956a63; stroke:none;" d="M60 193L60 202L56 201L47 203L47 204L51 204L50 206L58 208L58 206L60 206L60 210L80 206C73.1481 199.305 70.2104 194.32 60 193z"/>
<path style="fill:#aa8f7a; stroke:none;" d="M70 193L70 194L74 194L70 193z"/>
<path style="fill:#956a63; stroke:none;" d="M311 194L311 195L312 197L318 195C320.779 196.742 324.019 199.556 325 195L322 196L324 193L311 194z"/>
<path style="fill:#aa8f7a; stroke:none;" d="M417 193L417 194L423 194L417 193z"/>
<path style="fill:#69544e; stroke:none;" d="M322 195L322 196L325 195C322.89 197.818 320.898 196.227 318 195L312 197L313 195L312 195L303 201C310.62 200.561 330.113 205.124 331 194L322 195M209 199L215 196C211.945 194.938 210.43 196.268 209 199M195 196L195 197L203 198L203 197L195 196z"/>
<path style="fill:#e0b378; stroke:none;" d="M295 197L297 200L286 198C287.79 204.327 296.449 202.886 302 203L307 198L295 197z"/>
<path style="fill:#69544e; stroke:none;" d="M288 197C289.519 201.308 293.025 200.904 297 200L288 197M360 197L360 198L364 198L360 197z"/>
<path style="fill:#aa8f7a; stroke:none;" d="M364 197L364 198L367 198L367 199L335 203L335 204L337 204L337 205L330 205L332 207L332 208L313 213C310.427 205.682 288.345 206.517 285 213L286 222L292 222L286 230L291 230L287 234L287 235L292 236L287 241L298 236C296.851 241.684 295.701 245.853 289 246C291.433 249.753 295.02 248.945 299 248L300 253C295.702 254.026 290.658 253.285 289 258L299 257C295.686 260.384 292.421 260.049 288 259L285 281C294.938 281 308.233 280.911 317 276L317 275L304 277L304 276L319 271L316 270L319 265L316 261L294 265L294 264L311 259L305 256C305.132 251.671 306.883 250.092 311 249L306 246L307.664 235.001L313 227L309 227L309 226L325 219L325 218L322 217L338 212L336 208L368 205L368 198L364 197z"/>
<path style="fill:#69544e; stroke:none;" d="M274 198L274 199L279 199L274 198z"/>
<path style="fill:#aa8f7a; stroke:none;" d="M277 199L278 203L286 198L277 199z"/>
<path style="fill:#aea8a5; stroke:none;" d="M346 198L346 199L350 199L346 198z"/>
<path style="fill:#69544e; stroke:none;" d="M350.667 198.333L351.333 198.667L350.667 198.333z"/>
<path style="fill:#f6f1ed; stroke:none;" d="M285 207C293.22 206.477 306.336 200.195 313 207L324 206L324 202C337.241 202 354.672 204.224 367 199C360.129 196.123 350.188 198.855 343 199.715C330.051 201.263 316.98 200.93 304 202.17C298.565 202.689 288.216 202.175 285 207z"/>
<path style="fill:#aa8f7a; stroke:none;" d="M356 198L356 199L359 199L356 198z"/>
<path style="fill:#956a63; stroke:none;" d="M246 204L245 212L252 212L254 207L261 210L261 211L253 213L253 214L262 213L265 209L265 208L256 206C259.726 206.786 261.515 206.685 263 203L268 205L274 200C264.584 196.049 255.224 203.578 246 204z"/>
<path style="fill:#e0b378; stroke:none;" d="M267 203L267 204L285 208L283 206L284 203L278 203L279 200L267 203z"/>
<path style="fill:#aa8f7a; stroke:none;" d="M329.667 199.333L330.333 199.667L329.667 199.333z"/>
<path style="fill:#69544e; stroke:none;" d="M332.667 199.333L333.333 199.667L332.667 199.333z"/>
<path style="fill:#aea8a5; stroke:none;" d="M334 199L334 200L345 200L334 199z"/>
<path style="fill:#69544e; stroke:none;" d="M284 200L281 201L281 202L284 200z"/>
<path style="fill:#aea8a5; stroke:none;" d="M285 200L281 202L281 203L288 202L288 201L285 200z"/>
<path style="fill:#aa8f7a; stroke:none;" d="M301 201L301 202L313 202L301 201z"/>
<path style="fill:#22140f; stroke:none;" d="M307 200L307 201L310 201L307 200z"/>
<path style="fill:#69544e; stroke:none;" d="M247 201L247 202L256 202L247 201z"/>
<path style="fill:#aea8a5; stroke:none;" d="M316 201L316 202L323 202L316 201z"/>
<path style="fill:#e0b378; stroke:none;" d="M247 205L253 203L247 205z"/>
<path style="fill:#69544e; stroke:none;" d="M272 202L272 204L276 204L276 202L272 202M283 206L291 204C287.499 202.061 285.486 203.087 283 206z"/>
<path style="fill:#aa8f7a; stroke:none;" d="M291 204L296 203L291 204z"/>
<path style="fill:#aea8a5; stroke:none;" d="M324 202C324 207.151 317.996 211.017 319 207L311 209L313 213C318.026 212.958 333.139 212.866 330 205L337 205L337 204L335 204L335 203L347 204L347 202L324 202z"/>
<path style="fill:#956a63; stroke:none;" d="M0 206L0 208L25 204L0 206M150 218L166 218L165 213L157 212L157 211L165 211L165 204C150.258 202.837 149.96 203.675 150 218z"/>
<path style="fill:#69544e; stroke:none;" d="M263 203C261.052 206.103 259.594 206.409 256 206C258.376 209.107 261.384 208.594 265 208L265 209L262 213L253 215L253 216C264.186 221.803 268.872 232.938 266 245L268 245L256 261L267 253L269 244L270 244L270 247L279 246L278 249L281 250L283 242C280.252 242.579 278.426 244.303 278 241L277 241L277 245L276 245L274 238L276 240L277 235L279 233L283 234L284 234L282 221L278 222L275 215L282 219C281.031 206.739 273.487 206.359 263 203z"/>
<path style="fill:#e0b378; stroke:none;" d="M291 205L291 206C294.903 206 306.341 203.502 307 208L319 207C318.979 210.219 321.979 208.141 324 207L324 206L313 207C309.193 201.128 297.139 204.996 291 205z"/>
<path style="fill:#956a63; stroke:none;" d="M336 208L338 212L322 217L325 218L325 219L309 226L309 227L313 227L306 246L311 249C306.534 249.699 304.855 251.44 305 256L311 259L294 264L294 265L314 261C314 257.56 319.014 257.236 322 257L322 256L313 256L313 251L317 250L317 249L318 247L318 246L315 246L319 239L316 238L325 229L326 229L328 231L330 228L329 232L334 231L333 227L337 223L341 224L341 225L339 225L339 226L344 226L343 223L347 223L347 222L341 222L341 220L345 220L344 215L339 214C348.156 209.594 358.675 206.383 368 210L369 204L336 208z"/>
<path style="fill:#69544e; stroke:none;" d="M45 205L48 207L48 206L45 205z"/>
<path style="fill:#aa8f7a; stroke:none;" d="M46 205L46 206L55 207L46 205z"/>
<path style="fill:#aea8a5; stroke:none;" d="M280 208C283.772 223.31 284.447 239.491 287.773 254.981C289 260.696 295.877 261.818 299 257L289 258L300 253L299 248C294.816 248.762 292.108 249.162 289 246C295.961 247.042 297.622 241.876 298 236L287 241L292 236L287 235L287 234L291 230L286 230L292 222L286 222C287.421 218.47 288.296 215.523 285 213C290.344 205.877 302.044 209 310 209L310 208L307 208C306.239 201.947 285.006 207.664 280 208z"/>
<path style="fill:#69544e; stroke:none;" d="M41 206L41 207L44 208L41 206z"/>
<path style="fill:#8d4d2b; stroke:none;" d="M58 206L58 208L53 207C53 210.359 47.7966 209 45 209C47.1064 215.326 55.8379 211.408 61 211L60 206L58 206z"/>
<path style="fill:#aa8f7a; stroke:none;" d="M117 206L116 209L117 206z"/>
<path style="fill:#69544e; stroke:none;" d="M118 206L115 208L115 215L116 215L117 212L118 218L119 218L118 206z"/>
<path style="fill:#e0b378; stroke:none;" d="M356 206L356 207L360 207L356 206z"/>
<path style="fill:#69544e; stroke:none;" d="M34 207L34 208L39 208L34 207z"/>
<path style="fill:#e0b378; stroke:none;" d="M0 219L14 217C21.615 210.087 36.5071 216.518 43 207C34.9308 207.726 27.0719 211.366 19 212.675C12.865 213.671 4.14944 213.542 0 219z"/>
<path style="fill:#69544e; stroke:none;" d="M253 207L252 212L246 212L246 219L247 219L247 213L261 211L261 210L253 207z"/>
<path style="fill:#f6f1ed; stroke:none;" d="M354 210L368 215C365.599 209.988 358.34 203.307 354 210z"/>
<path style="fill:#aea8a5; stroke:none;" d="M432 207C428.654 214.309 420.357 219.314 412 219L413 224L431.001 216.184L448.892 219.419L459.005 226.493L471 218L471 216L432 207z"/>
<path style="fill:#69544e; stroke:none;" d="M435 207L435 208L438 208L435 207M8 212L8 213L34 210C27.6599 205.271 15.4357 211.68 8 212z"/>
<path style="fill:#956a63; stroke:none;" d="M33 208L35 210L35 208L33 208z"/>
<path style="fill:#8d4d2b; stroke:none;" d="M42 208L29 213L29 215C24.3155 213.728 17.0327 215.827 16 221L12 219L13 223L8 223L8 224L17 225L22 221L22 220L20 220L20 219C23.2005 218.503 28.5093 218.507 29 215L41 218L42 208z"/>
<path style="fill:#e0b378; stroke:none;" d="M363 208C365.954 212.948 369.822 212.39 375 212L374 214L382 217L384 213L363 208z"/>
<path style="fill:#69544e; stroke:none;" d="M368 209L368 210L381 212L368 209z"/>
<path style="fill:#aa8f7a; stroke:none;" d="M439.667 208.333L440.333 208.667L439.667 208.333z"/>
<path style="fill:#69544e; stroke:none;" d="M441 208L441 209L444 209L441 208M120 209C120.406 214.336 122.628 216.4 128 216L128 215L120 209M149 209L149 217L137 217L137 218L150 218L149 209z"/>
<path style="fill:#aa8f7a; stroke:none;" d="M265 212L268 212L267 210L265 212z"/>
<path style="fill:#69544e; stroke:none;" d="M352 210L339 214L344 215L345 220L341 220L341 222L347 222L347 223L343 223L344 226L339 226L339 225L341 225L341 224L337 223L333 227L334 231L317 251C318.584 254.94 321.014 254.952 325 255C323.776 258.581 319.191 264.755 325 266L325 267L322 268L323 271L304 276L304 277C311.947 276.814 331.933 270.301 329 284L344 281L345 281C347.881 282.989 349.424 282.204 352 280L355 283L353 277L356 278L353 274L356 275L355.326 250L361 233L364 233L364 229L359 232L361 227L353 226C351.868 232.634 350.529 235.677 354 242L348 245L347 261L343 261L343 264L333 266L333 270L332 270L334 255L339 256L349 234L348 234L348 236L347 236C347.853 229.402 350.001 216.123 357 214L357 213L353 213L354 210L352 210z"/>
<path style="fill:#aa8f7a; stroke:none;" d="M353 213L357 213L357 214L354 214L354 215L361 214L358 213L358 212L363 212C359.546 209.383 355.614 209.376 353 213M27 212L28 215L33 213L27 212z"/>
<path style="fill:#e0b378; stroke:none;" d="M358 212L358 213L361 214L353 214L351 223L367 215L358 212z"/>
<path style="fill:#aea8a5; stroke:none;" d="M366 216L368 216L366 219L381 219L381 214L374 214L375 212L366 216z"/>
<path style="fill:#aa8f7a; stroke:none;" d="M379 212L379 213L383 213L379 212z"/>
<path style="fill:#69544e; stroke:none;" d="M457 212L457 213L460 213L457 212M0 213L0 214L6 214L0 213z"/>
<path style="fill:#aa8f7a; stroke:none;" d="M2 217L9 213L2 217z"/>
<path style="fill:#69544e; stroke:none;" d="M200 214L200 215L207 214L200 214z"/>
<path style="fill:#aa8f7a; stroke:none;" d="M247 216L256 215C253.041 212.805 247.959 211.524 247 216M382 217L388 216C379.372 223.99 365.179 231.434 359.996 242.001C357.313 247.471 357.641 254.056 357 260L356 260L356 250L355 250L355 263L356 263L357 260L358 260L362 273L364 271L373 280L369 272L384 276L384 277C380.59 277.263 379.099 277.679 378 281L391 275L361 268L361 266L366 266L366 257L362 259L365 252L360 253C360.608 239.716 369.896 232.24 382 229L382 228L377 228L377 227L381 227C380.878 223.572 384.773 220.908 388 221L383 227L392 228L384 231L384 232L391 233L393 229C410.297 235.488 394.001 258.874 394 272L393 272L393 267L392 267L393 276L400 269L398 270L398 269C405.762 258.003 407.032 245.106 402 233L406 236L396 228L396 227L403 225L403 224L397 224L397 221L400 219C394.874 216.939 385.197 211.855 382 217z"/>
<path style="fill:#aea8a5; stroke:none;" d="M0 214L0 215L5 215L0 214z"/>
<path style="fill:#aa8f7a; stroke:none;" d="M14 217L0 219L0 223L2 221L3 221L4 221L13 223L12 219L16 221L23 216C19.657 214.011 16.3851 213.638 14 217z"/>
<path style="fill:#956a63; stroke:none;" d="M126 214L126 215L128 215L128 216L125 217C129.063 218.585 131.133 218.357 134 215L126 214z"/>
<path style="fill:#69544e; stroke:none;" d="M388 214L388 215L398 218C395.713 214.37 392.08 214.178 388 214M0 215L0 217L2 217L2 215L0 215M29 215L20 219L20 220L22 220L22 221L17 225C11.3973 223.651 7.18897 223.253 2 226L6 229L5 226L11 225L10 228L18 228L18 224L19 224C20.1647 226.859 23.7322 225.188 21 224L21 223L25 223L24 219L30 219L31 219L32 222L36 219L29 215z"/>
<path style="fill:#aea8a5; stroke:none;" d="M46 215L46 216L48 218L53 216L46 215z"/>
<path style="fill:#956a63; stroke:none;" d="M197 215L194 219L197 215z"/>
<path style="fill:#e0b378; stroke:none;" d="M250 239L251 239C251.015 233.551 250.894 227.975 255 224L256 228C261.687 222.92 253.908 212.849 248.607 216.272C245.326 218.392 249.92 235.138 250 239z"/>
<path style="fill:#aa8f7a; stroke:none;" d="M275 215L278 222L282 221L282 219L275 215z"/>
<path style="fill:#aea8a5; stroke:none;" d="M389 215L394 218L389 215z"/>
<path style="fill:#69544e; stroke:none;" d="M422 215L422 216L425 216L422 215M47 216L48 224L51 222L52 222L53 238L64 234L66 235L69 245L70 245L70 243L71 243L70 258L71 258L74 243L75 243L75 247L80 246L76 237L73 244L72 244L78 226L70 225L68 220L67 220L67 228L66 228L64 223L58 221L60 218L60 217L57 219L56 219L47 216z"/>
<path style="fill:#aa8f7a; stroke:none;" d="M133 216L133 217L138 217L133 216z"/>
<path style="fill:#aea8a5; stroke:none;" d="M253 216C257.37 223.252 258.932 226.03 259 235L264 235C263.841 226.113 262.349 219.178 253 216z"/>
<path style="fill:#956a63; stroke:none;" d="M258 216L264 222L258 216M347 236L348 236L348 234L349 234L348 241L349 238L350 238L348 245L354 242L353 226L361 227L359 232L364 229L364 233L361 233L356 260L357 260L359.532 244L369 230C373.857 230.28 378.179 226.656 373 223C373.141 226.947 369.296 228.786 366 230L366 226L371 227L370 223L366 223L370 220L370 219L366 219L368 217C356.014 212.019 347.78 226.205 347 236M381 217L373 218C376.264 226.532 384.085 221.044 388 216L381 217z"/>
<path style="fill:#69544e; stroke:none;" d="M408 219L414 216L408 219z"/>
<path style="fill:#956a63; stroke:none;" d="M419.667 216.333L420.333 216.667L419.667 216.333z"/>
<path style="fill:#aa8f7a; stroke:none;" d="M418 225L419 225C424.782 217.375 431.787 219.206 440 218C432.805 214.542 419.55 215.489 418 225z"/>
<path style="fill:#956a63; stroke:none;" d="M453 225L451.264 261.946L455 270L458 269L457 266C461.466 263.703 462.674 260.718 461 256L468 253L465 244L470 241L486 222L478 226L484 218C480.128 217.201 475.268 215.124 471.424 216.862C463.831 220.296 462.414 227.873 453 225z"/>
<path style="fill:#69544e; stroke:none;" d="M478 226L486 222L470 241L465 244L468 253L461 256C462.26 260.824 460.91 263.033 457 266L455 270L456 267C446.003 260.714 453 232.596 453 222L452 222C446.674 236.782 443.428 252.558 440.54 268C439.284 274.718 437.685 282.467 441.453 288.811C444.691 294.264 460.042 302.119 466.015 305.243C471.821 308.28 478.398 311.644 485 312C484.115 300.4 469.379 305.692 463 299C466.076 299.243 470.669 300.841 473.562 299.393C476.717 297.814 476.326 285.826 474 284L474 283C477.305 280.726 477.373 277.813 477 274L482 274L480 271L480 265L486 257L486 256L484 247L491 234L509 224L503 221L505 217C497.068 217.081 480.797 217.301 478 226z"/>
<path style="fill:#aea8a5; stroke:none;" d="M56.3333 217.667L56.6667 218.333L56.3333 217.667z"/>
<path style="fill:#69544e; stroke:none;" d="M152 218L152 219L183 218L152 218z"/>
<path style="fill:#e0b378; stroke:none;" d="M189 217L189 219L191 217L189 217z"/>
<path style="fill:#956a63; stroke:none;" d="M407 217L403 218L403 219L407 217M414 217L414 218L418 218L414 217z"/>
<path style="fill:#aea8a5; stroke:none;" d="M421 221L421 223L435 224L435 223L428 223L428 220L435 218L421 221z"/>
<path style="fill:#f6f1ed; stroke:none;" d="M58 218L58 221L59 221L60 218L58 218z"/>
<path style="fill:#aa8f7a; stroke:none;" d="M59 219L64 223L65 226C68.7645 220.983 64.0333 218.028 59 219M131 218L131 219L141 220L131 218z"/>
<path style="fill:#f6f1ed; stroke:none;" d="M401 220L401 221L411 222L412 219L418 219L401 220z"/>
<path style="fill:#956a63; stroke:none;" d="M428 220L428 221L435 224L427 225L427 226L433 228L438 224L436 222L436 221L438 219L428 220z"/>
<path style="fill:#69544e; stroke:none;" d="M138 220L138 221L144 221L138 220M366 223L370 223L371 227L366 226L366 230C369.824 228.833 372.738 227.236 373 223L376 227L380 223C374.491 221.885 370.177 216.867 366 223M195.667 220.333L196.333 220.667L195.667 220.333M247 220L249 224L249 220L247 220M385 220L380 225L380 226L388 221L385 220z"/>
<path style="fill:#22140f; stroke:none;" d="M397 222L400 220L397 222z"/>
<path style="fill:#aea8a5; stroke:none;" d="M397 224L412 224C408.835 217.962 400.87 219.476 397 224z"/>
<path style="fill:#aa8f7a; stroke:none;" d="M411 220L412 224L409 223L409 224L417 223L413 224L413 220L411 220z"/>
<path style="fill:#956a63; stroke:none;" d="M2 221L0 227L6 224L4 221L2 221z"/>
<path style="fill:#aea8a5; stroke:none;" d="M69 221L70 225L73 223L69 221z"/>
<path style="fill:#22140f; stroke:none;" d="M428 221L428 222L433 222L428 221z"/>
<path style="fill:#aa8f7a; stroke:none;" d="M490 227L495 221L490 227z"/>
<path style="fill:#22140f; stroke:none;" d="M67 222L67 225L68 225L67 222z"/>
<path style="fill:#69544e; stroke:none;" d="M428 222L428 223L433 223L428 222M438 222L438 223L440 224L438 225L438 226L445 225L438 222M445 222L445 224L447 224L447 222L445 222M181 240L181 241C185.57 241 191.261 242.224 194 238C203.944 239.296 234.413 232.652 239 223C220.059 225.308 198.721 232.986 181 240z"/>
<path style="fill:#aa8f7a; stroke:none;" d="M265 223L268 233L269 233L265 223z"/>
<path style="fill:#69544e; stroke:none;" d="M392 223L393 228L394 228L396 223L392 223z"/>
<path style="fill:#956a63; stroke:none;" d="M396 227L396 228L413 232L413 231L405 229L405 228L410 227L409 224L396 227z"/>
<path style="fill:#69544e; stroke:none;" d="M417 223L408 225L410 227L405 228L405 229L420 232L420 231L418 229L422 228L421 226L425 225L425 224L418 225L417 223z"/>
<path style="fill:#8d4d2b; stroke:none;" d="M432 226L432 229L439 233L436 226L440 223L432 226z"/>
<path style="fill:#956a63; stroke:none;" d="M253 224L251 239L252 239L252 232L257 236L259 230L255 229L255 224L253 224z"/>
<path style="fill:#22140f; stroke:none;" d="M66 225L66 228L67 228L66 225z"/>
<path style="fill:#aea8a5; stroke:none;" d="M75 226L75 229L76 229L75 226M78 226L75 235L76 235L78 226z"/>
<path style="fill:#956a63; stroke:none;" d="M257 226L259 229L257 226z"/>
<path style="fill:#aa8f7a; stroke:none;" d="M263 226L264 235L259 235L261 245L264 244L261 240L261 239L265 239C266.068 234.142 267.814 229.359 263 226z"/>
<path style="fill:#956a63; stroke:none;" d="M377 227L377 228L384 228L377 227z"/>
<path style="fill:#aa8f7a; stroke:none;" d="M79 227L79 241L86 231L79 227z"/>
<path style="fill:#69544e; stroke:none;" d="M248 227L248 230L249 230L248 227z"/>
<path style="fill:#e0b378; stroke:none;" d="M360 251C364.536 249.534 366.395 247.931 366 243L371 241L372 241L376 242L378 247L379 247L383.552 232.742L392 228C377.047 226.754 361.415 234.892 360 251z"/>
<path style="fill:#69544e; stroke:none;" d="M437 227L443 239L437 227z"/>
<path style="fill:#22140f; stroke:none;" d="M65 228L65 231L66 231L65 228z"/>
<path style="fill:#69544e; stroke:none;" d="M255 228L255 229L259 230L259 229L255 228z"/>
<path style="fill:#8d4d2b; stroke:none;" d="M328 231L326 229L325 229L316 238L319 239C317.549 241.684 313.375 245.439 318 246L318 247L315 247L317 249L317 250L313 251L313 256L322 256L322 257L313 260L319 265L316 270L323 271L322 268L325 267L325 266L322 266L325 255C321.098 254.873 319.085 254.401 317 251C322.356 248.905 331.358 237.845 332 232L330 228L328 231z"/>
<path style="fill:#aea8a5; stroke:none;" d="M393 229L392 236C383.02 239.29 381.089 256.566 380 265L381 265C384.059 255.96 388.617 247.237 396 241L397 242L398 247L400 240L401 240L400 245C405.363 238.582 399.145 231.6 393 229z"/>
<path style="fill:#956a63; stroke:none;" d="M78 230L72 244L73 244L76 237L78 244L80 244L82 240L79 241C80.4508 236.779 80.9311 233.599 78 230z"/>
<path style="fill:#69544e; stroke:none;" d="M369.667 230.333L370.333 230.667L369.667 230.333M396 230L396 231L400 232L400 231L396 230M442 230L442 234L445 230L442 230M404 231L406 236L402 233L409 250L408 250L407 243L406 243L398 270C403.974 267.303 407.366 257.246 407 251C411.006 256.784 404.081 266.186 402 272C411.919 265.765 411.841 248.448 408.167 239C406.931 235.822 409.985 233.483 406 233L406 232L409 232L404 231M86 232C82.438 238.105 80.7827 242.948 82 250L85 249L85 258L86 258L86 254L87 254L86 271L87 271L88 256L90 256L92 266L93 266L94 260L95 260L95 266L98 264L99 264L100 272L101 272L101 267L102 267C102 271.913 103.564 279.041 99 282L99 283L103 283L104 270L105 270L105 277L108 277L109 273L110 273L110 281L113 281L113 277L114 277C114.807 280.549 115.223 282.904 112 285L112 286L134 287L135 279L134 279L134 281L133 281L134 276L136 278L135 271L129 275L130 270L129 270L126 277L122 277L122 273L120 273L119 281L118 281L120 262L116 264L118 258L109 264L108 264L108 266L107 266L111 256L106 259C107.564 254.777 107.261 251.213 102 252L103 247L93 258L96 244C91.658 246.51 89.8674 250.138 89 255L88 255L93 237L88 241L87 241L86 232z"/>
<path style="fill:#aa8f7a; stroke:none;" d="M249 232L249 236L250 236L249 232z"/>
<path style="fill:#69544e; stroke:none;" d="M258 232C255.208 238.576 256.355 241.801 259 248L260 248L262 245L258 232M382 232C381.453 236.168 381.742 238.651 386 240L386 241L380 240L375 263L374 261L373 261L381 268C380.291 259.494 382.659 250.828 385.969 243.004C386.881 240.849 391.201 235.87 389.825 233.564C388.506 231.355 384.125 232.008 382 232z"/>
<path style="fill:#956a63; stroke:none;" d="M87 233L87 241L88 241L91 237L91 236L87 233z"/>
<path style="fill:#22140f; stroke:none;" d="M359.333 233.667L359.667 234.333L359.333 233.667z"/>
<path style="fill:#aea8a5; stroke:none;" d="M386.667 234.333L387.333 234.667L386.667 234.333z"/>
<path style="fill:#956a63; stroke:none;" d="M391.333 234.667L391.667 235.333L391.333 234.667M265 235L265 239L261 239L261 240L262 251L252 253L255 254L252 258C263.869 257.345 266.993 244.92 267 235L265 235z"/>
<path style="fill:#69544e; stroke:none;" d="M249 236L249 239L250 239L249 236z"/>
<path style="fill:#aa8f7a; stroke:none;" d="M254 236L255 241L256 241L256 236L254 236M346 237L338 258L340 264L343 261L347 261C347.202 252.344 350.811 245.465 346 237z"/>
<path style="fill:#956a63; stroke:none;" d="M93 238L92 241L95 241L93 245L96 244L93 258C101.473 250.72 102.374 244.206 93 238z"/>
<path style="fill:#69544e; stroke:none;" d="M349 238L347 243L349 238M371 238C372.78 240.374 374.22 240.374 376 238L371 238z"/>
<path style="fill:#956a63; stroke:none;" d="M381 239L381 240L386 241L386 240L381 239z"/>
<path style="fill:#69544e; stroke:none;" d="M427 239L426 248C429.642 247.617 435.436 247.629 436 252L437 252L427 239M400 240L398 247L395 246L397 242L396 241L389 247L391 259L390 259L390 257L389 257L391 260L391 261L388 269L391 268L389 273L392 267L393 267L393 272L394 272L400 240z"/>
<path style="fill:#aea8a5; stroke:none;" d="M94 241L93 244L94 241z"/>
<path style="fill:#956a63; stroke:none;" d="M371 241L371 245L376 243L376 242L371 241z"/>
<path style="fill:#22140f; stroke:none;" d="M406 241L408 250L409 250L406 241z"/>
<path style="fill:#69544e; stroke:none;" d="M369 242L368 243L368 245L372 246L371 242L369 242z"/>
<path style="fill:#956a63; stroke:none;" d="M366 243L369 246L366 243z"/>
<path style="fill:#22140f; stroke:none;" d="M375 243L375 251L372 250L366 246L364 250L362 259L366 254L367 254C367 259.092 367.982 264.253 363 267L363 268L394 275L389 273L391 268L388 269L391 248L389 248L381 268C377.846 266.005 373.542 264.203 373.242 259.981C372.757 253.153 381.247 249.141 375 243z"/>
<path style="fill:#aea8a5; stroke:none;" d="M92 244L88 255L89 255L92 244z"/>
<path style="fill:#aa8f7a; stroke:none;" d="M369 245L374 246L374 251L375 251L375 244L369 245z"/>
<path style="fill:#22140f; stroke:none;" d="M266 245L265 249L266 249L268 245L266 245z"/>
<path style="fill:#956a63; stroke:none;" d="M373 246L370 247L370 248L373 250L373 246M519 246C512.668 248.835 509.36 251.223 507 258L511 258L511 269L515 261C520.316 259.497 521.139 250.43 519 246M103 247L102 252C106.088 252.185 106.937 254.073 107 258L111 256L107 266L108 266L108 264L109 264L110 267L118 258L118 256L103 247M253 247L253 251L254 251L253 247M165 250L165 251L173 249L165 250z"/>
<path style="fill:#69544e; stroke:none;" d="M510 249C504.745 253.731 502.443 258.098 501 265L507 262L506 267L502 267L508 270L509 270L507 259L511 259L511 258L507 258L510 249z"/>
<path style="fill:#956a63; stroke:none;" d="M361 250L361 251L366 253L361 250z"/>
<path style="fill:#69544e; stroke:none;" d="M387 250L384 257C386.802 255.233 388.061 253.253 387 250M157 251L161 256L159 259L176 260L176 259L169 256L170 254L157 251M360 253L363 251L360 253z"/>
<path style="fill:#aa8f7a; stroke:none;" d="M377 251C373.328 254.671 372.856 258.021 374 263L375 263L377 251z"/>
<path style="fill:#956a63; stroke:none;" d="M392 252L392 255L394 255L394 252L392 252M152 253L157 259L158 259L159 259L161 256L152 253z"/>
<path style="fill:#69544e; stroke:none;" d="M287 253L287 261L288 261L287 253z"/>
<path style="fill:#956a63; stroke:none;" d="M370 253L371 263L372 263L372 253L370 253z"/>
<path style="fill:#69544e; stroke:none;" d="M149 254L155 259L149 254z"/>
<path style="fill:#956a63; stroke:none;" d="M366 254L365 257L366 254z"/>
<path style="fill:#22140f; stroke:none;" d="M334 255L332 270L333 270L333 266C340.88 265.119 340.735 261.124 338 255L334 255z"/>
<path style="fill:#aa8f7a; stroke:none;" d="M390 256L390 259L391 259L390 256z"/>
<path style="fill:#aea8a5; stroke:none;" d="M106.333 257.667L106.667 258.333L106.333 257.667z"/>
<path style="fill:#69544e; stroke:none;" d="M366 257L366 266L367 266L366 257z"/>
<path style="fill:#956a63; stroke:none;" d="M117 259L116 264L120 262L118 281L119 281L120 273L122 273L122 277L126 277L128 273L128 272C125.445 269.238 125.251 267.33 127 264L126 261L117 259z"/>
<path style="fill:#aa8f7a; stroke:none;" d="M105 259L103 267L104 267L105 259z"/>
<path style="fill:#69544e; stroke:none;" d="M140 259L140 260L154 263L154 262L140 259z"/>
<path style="fill:#aea8a5; stroke:none;" d="M152 259L153 262L165 261L152 259z"/>
<path style="fill:#22140f; stroke:none;" d="M507 259L508 262L511 259L507 259z"/>
<path style="fill:#956a63; stroke:none;" d="M357 260C354.416 268.996 360.871 279.199 369 283L357 260z"/>
<path style="fill:#69544e; stroke:none;" d="M368 260L369 268L370 268L371 263L368 260z"/>
<path style="fill:#956a63; stroke:none;" d="M389 260L389 263L390 263L391 260L389 260z"/>
<path style="fill:#69544e; stroke:none;" d="M139 261L139 262L147 265L139 261M155 261L155 262L160 262L155 261z"/>
<path style="fill:#956a63; stroke:none;" d="M336 261L336 264L338 264L338 261L336 261z"/>
<path style="fill:#aa8f7a; stroke:none;" d="M127 264L126 272L130 270L129 275L137 267L127 264z"/>
<path style="fill:#956a63; stroke:none;" d="M147 264L147 265L151 265L147 264z"/>
<path style="fill:#aea8a5; stroke:none;" d="M122 266L120 272L121 272L122 266z"/>
<path style="fill:#69544e; stroke:none;" d="M287 266L287 270L288 270L287 266M361 268L366 267L361 268M131 267L131 269L133 267L131 267z"/>
<path style="fill:#956a63; stroke:none;" d="M137 267L136 274L138 273L139 273L139 287L141 287L144 278L145 278L145 286L152 275L157 272L147 275L149 271L137 267z"/>
<path style="fill:#69544e; stroke:none;" d="M383 267L384 270L385 270L385 267L383 267z"/>
<path style="fill:#956a63; stroke:none;" d="M507 267L506 272L507 272L507 267z"/>
<path style="fill:#69544e; stroke:none;" d="M519 267L504 291L505 291C509.039 284.432 522.28 275.062 519 267z"/>
<path style="fill:#aa8f7a; stroke:none;" d="M383 268L382 271L383 268z"/>
<path style="fill:#22140f; stroke:none;" d="M104 270C102.062 280.442 103.76 284.906 115 285L114 277L113 277L113 281L110 281L110 273L109 273L108 277L105 277L104 270z"/>
<path style="fill:#956a63; stroke:none;" d="M363 271C365.62 289.052 383.323 282.372 394 278L393 275C388.834 276.666 381.584 282.488 378 278L377 278L377 281L363 271z"/>
<path style="fill:#22140f; stroke:none;" d="M369 272L377 281L384 277L384 276L375 278L369 272z"/>
<path style="fill:#69544e; stroke:none;" d="M378.667 272.333L379.333 272.667L378.667 272.333z"/>
<path style="fill:#aa8f7a; stroke:none;" d="M138 273L136 278L134 276L133 281L134 281L134 279L135 279L134 287L95 282L95 283L97 283L97 284L93 284L93 285C108.924 288.651 129.795 298.296 145 290L145 289L135 288L138 273z"/>
<path style="fill:#956a63; stroke:none;" d="M373 273L375 278L379 276L373 273M400 273C392.757 280.089 385.351 284.913 375 285L375 287C382.318 286.685 400.201 282.487 400 273M500 286L501 286L508 274C502.512 275.967 500.374 280.369 500 286z"/>
<path style="fill:#69544e; stroke:none;" d="M379 275L379 276L383 276L379 275M500 275L498 283L499 283L502 275L500 275z"/>
<path style="fill:#22140f; stroke:none;" d="M145.333 276.667L145.667 277.333L145.333 276.667z"/>
<path style="fill:#69544e; stroke:none;" d="M144 278L141 287L139 287L138 279L137 279L135 288C143.29 288.355 147.276 287.618 144 278M356 278L360 282L356 278M70 279L70 280L75 281L75 282L70 282L71 284L60 286L55 292L57 293L57 294L44 296L43 298L47 304L37 300L37 303L23 304L23 305L44 310L44 309L36 306L36 305L56 312L53 313L53 314L59 316L59 317L41 313L41 314L43 315L0 310C1.07005 324.42 25.6391 323.629 36 326.387C41.4754 327.845 46.5399 330.507 52 332L52 331L15 319L15 318L40 321L40 320L33 318L33 317L52 322L52 323L35 322L35 323L63 329L62 325L69 326L69 325L65 325C63.567 320.105 52.7178 319.333 48 319L48 318L73.9105 324.183L95 316L90 312L90 311L100 313L89 307L84 309L85 304L74 303L74 302L83 302L79 299L80 296L71 294L71 293L72 291L78 292L78 291L72 289L72 288L82 288L82 287L78 285L107 291L107 290L88 285L89 283L84 282L84 281L90 281L70 279z"/>
<path style="fill:#956a63; stroke:none;" d="M293 281L293 282L308 280L293 281z"/>
<path style="fill:#aa8f7a; stroke:none;" d="M328 280L327 281L327 282L327 283L330 280L328 280z"/>
<path style="fill:#956a63; stroke:none;" d="M84 281L84 282L89 283L88 285L107 290L106 292L127 299L128 299L137 295L137 294L129 292L130 294L129 294L93 285L93 284L97 284C93.4537 280.272 88.8212 281 84 281z"/>
<path style="fill:#69544e; stroke:none;" d="M285 281L285 282L293 282L285 281M518 283L516 287L518 283z"/>
<path style="fill:#aa8f7a; stroke:none;" d="M78 285L82 287L82 288L72 288L72 289L78 291L78 292L72 291L72 292L84 294L84 293L81 292L81 289L127 300C124.645 295.927 120.381 295.042 116 293.884C105.345 291.069 88.743 283.405 78 285z"/>
<path style="fill:#69544e; stroke:none;" d="M83 288L83 289C94.2979 293.351 113.349 293.358 122 302L123 302L125 301L125 300L83 288z"/>
<path style="fill:#aea8a5; stroke:none;" d="M81 289L81 292L84 293L84 294L77 293L77 294L87 296L87 295L85 295L85 294L91 293L97 294L81 289z"/>
<path style="fill:#69544e; stroke:none;" d="M380 289L384 291L384 290L380 289M137.667 290.333L138.333 290.667L137.667 290.333M508 290L506 294L508 290M518 290L516 300L490 291C490.017 295.75 490.208 298.842 494 302L492 294L496 296L499 295C499.729 298.403 501.806 297.987 505 298L505 300L494 304C501.794 309.233 526.799 302.88 518 290z"/>
<path style="fill:#956a63; stroke:none;" d="M71 293L71 294L86 298L90 303L90 304L87 304L99 312L104 311L104 310L90 305L90 304L94 305L96 299L71 293z"/>
<path style="fill:#aa8f7a; stroke:none;" d="M91 293C91 296.257 87.5654 294.203 85 294L85 295L102 300L102 299L91 297L91 296L107 299L107 300L103 300L103 301L116 305L116 304L108 301L108 300L122 302L122 300L91 293z"/>
<path style="fill:#aea8a5; stroke:none;" d="M128.667 293.333L129.333 293.667L128.667 293.333M130.667 294.333L131.333 294.667L130.667 294.333z"/>
<path style="fill:#956a63; stroke:none;" d="M69 296C70.2587 300.307 74.9436 300.714 79 301L69 296z"/>
<path style="fill:#69544e; stroke:none;" d="M91 296L91 297L102 299L102 300C97.6902 300.105 94.8086 300.343 94 305L90 304L90 305C101.026 310.788 104.977 307.989 116 306L116 305L103 301L103 300L107 300L91 296z"/>
<path style="fill:#22140f; stroke:none;" d="M79 297C80.4165 299.867 82.9492 300.465 80 303L85 304L84 309L88 309L90 304L90 303L86 298L79 297z"/>
<path style="fill:#956a63; stroke:none;" d="M48 298L48 299L52 300L52 299L48 298z"/>
<path style="fill:#69544e; stroke:none;" d="M108 300L108 301L119 304L108 300z"/>
<path style="fill:#aea8a5; stroke:none;" d="M59 302L59 303L69 306L69 305L59 302z"/>
<path style="fill:#956a63; stroke:none;" d="M74 302L74 303L83 305L74 302z"/>
<path style="fill:#69544e; stroke:none;" d="M519 302L500 307L500 308C503.311 308 520.694 306.255 519 302z"/>
<path style="fill:#956a63; stroke:none;" d="M36 305L36 306L44 309L44 310L34 308L34 309L59 317L59 316L53 314L53 313L56 312L36 305z"/>
<path style="fill:#aa8f7a; stroke:none;" d="M69 306L69 307L73 307L69 306M73 307L73 308L84 310L73 307z"/>
<path style="fill:#8d4d2b; stroke:none;" d="M161 307L162 328L172 326L171 323L166 323L181 326L182 310L161 307z"/>
<path style="fill:#aa8f7a; stroke:none;" d="M90 311L90 312L97 314L97 313L90 311z"/>
<path style="fill:#69544e; stroke:none;" d="M508 315L514 314C511.381 312.384 509.834 312.477 508 315M98 315L101 319L98 315z"/>
<path style="fill:#956a63; stroke:none;" d="M10 316L10 317L15 318L15 317L10 316M15 318L15 319L25 322L25 321L15 318z"/>
<path style="fill:#69544e; stroke:none;" d="M166 323L171 323L172 326L162 326L161 326L162 332L163 332C166.432 326.38 172.678 328.911 178 330L178 331L173 332L173 333L182 331L181 326L166 323M0 329L0 333L7 333L0 329z"/>
<path style="fill:#aa8f7a; stroke:none;" d="M182 330L182 331L184 337C188.397 336.658 189.859 335.228 191 331L182 330z"/>
<path style="fill:#8d4d2b; stroke:none;" d="M190 330L190 336L197 334L196 330L190 330z"/>
<path style="fill:#e0b378; stroke:none;" d="M172 332L174 334L171 339L184 338L184 331L172 332z"/>
<path style="fill:#69544e; stroke:none;" d="M19 332L19 333L31 336C28.0963 331.733 23.7973 332.013 19 332M201 332L200 346L203 346L203 332L201 332z"/>
<path style="fill:#aa8f7a; stroke:none;" d="M170 333L169 339L174 334L172 333L170 333z"/>
<path style="fill:#8d4d2b; stroke:none;" d="M165 335C167.011 341.623 174.276 340 180 340L180 339L169 339L169 334L165 335z"/>
<path style="fill:#69544e; stroke:none;" d="M271 334L271 335L276 336L271 334M14 337L14 339L26 342L14 337z"/>
<path style="fill:#956a63; stroke:none;" d="M151 346L157 346L157 338C151.589 338.422 151.059 340.983 151 346z"/>
<path style="fill:#69544e; stroke:none;" d="M290 342L289 346L299 346L290 342z"/>
</svg>
