<?xml version="1.0" standalone="yes"?>
<svg width="520" height="346" xmlns="http://www.w3.org/2000/svg">
<path style="fill:#3a6891; stroke:none;" d="M0 0L0 114L0 142L1.6034 151.968L11.9853 151.782L22.7948 156.627L43.0394 149.272L64 158L60.956 148.903L69.0394 149.339L91.8256 151.854L98.314 163.248L105.259 159.174L116 158C114.945 149.414 111.918 151.606 105.06 150.148C102.359 149.574 100.883 147.427 99 150C97.3492 148.912 84.4803 140.591 90.3619 138.34C93.7216 137.055 100.545 142.632 104 143.505C109.143 144.804 116.988 142.485 122 141C117.423 128.402 89.2162 131.991 79 134L65.8997 121.518L57 105L63 101L67 102L58 94L80.1343 67.3001L92 53C113.616 52.9237 108.708 31.142 114.953 18.3048C116.512 15.0998 120.33 14.0035 123 12C126.725 18.8539 143.099 12.7196 137.278 4.47223C131.433 -3.80746 110.708 0 102 0L0 0z"/>
<path style="fill:#6689a5; stroke:none;" d="M131 0L131 1C133.223 2.33289 136.371 3.6124 137.377 6.20911C140.47 14.1884 127.295 16.0081 123 12C120.278 13.5728 116.538 14.5556 114.939 17.483C113.381 20.337 114.428 23.9145 113.856 27C111.739 38.4244 105.234 52.8437 92 53L79.3758 67.3001L58 94L67 102L63 101L57 105L65.1597 121.518L79 134C90.599 132.494 115.058 128.48 122 141C117.27 142.127 109.717 144.537 105 143.487C100.487 142.482 95.6642 137.534 91.1489 137.631C82.3929 137.819 96.927 149.077 99 150C105.188 146.955 114.579 151.512 116 158L105 158L105 159L121 164C125.744 171.65 133.93 172 142 172L142 177L163 167.774L184 162.648L210 150L210 149C207.533 147.021 204.817 142.611 201.791 141.733C198.468 140.769 195.389 143.914 192.019 143.494C183.042 142.374 191.06 135.382 195 134C194.349 129.269 193.175 124.69 189 122C186.762 110.233 171.175 117.892 164 117.892C158.987 117.892 154.156 116.004 149 116L150 112L146 112L151 108L151 105L141 105C135.794 114.491 126.125 109.725 118 113L118 110L111 112L106 106L106 105L112 102L113 102C122.698 109.346 122.384 96.7645 126.056 92.0131C129.68 87.322 133.412 85.3221 135 79L139 79L137 70L144 70L147 74C145.767 68.8385 141.792 62.9173 145 58L145 57L140 45C153.018 45.7151 166.29 67.8793 174.213 76.9854C177.796 81.1032 182.114 83.3079 183 89L191 97L204 92L206 80C213.145 79.6052 214.201 76.2198 212 70L215 67C207.699 67.2373 210.028 61.4614 216 61C216.489 65.2487 217.703 66.6573 222 67L221 72L226 71L226 73L223 74C227.581 78.5518 229 81.9171 236 82L237 74L237 73L233 73L238 65C234.381 65.0606 232.983 64.5918 232 61L228 61L226 56L221 57C220.557 51.72 223.7 49.4872 228 47L227 50C231.193 50.1166 233.139 51.22 235 55L238 52L236 52L241 39L234 34L223 35L223 34L237 26L236 15L233 12L244 11L247 1L254 1C244.211 -3.10773 227.634 0 217 0L131 0z"/>
<path style="fill:#91a4b3; stroke:none;" d="M247 1L244 11L233 12L236 15L237 26L223 34L223 35L234 34L241 39C234.762 42.3581 238.076 46.2358 236 52L238 52L235 55C233.707 50.5541 231.509 49.5011 227 50L228 47C223.125 48.9197 219.78 51.4657 221 57L226 56L228 61L232 61C232.675 64.8539 234.248 65.2889 238 65L233 73L237 73L237 74L236 82L223 74L226 73L226 71L225 70L221 72L222 67C218.059 66.3577 216.807 64.8733 216 61C209.106 61.2292 207.321 68.2913 215 67L212 70C213.34 75.9638 212.902 79.2243 206 80L204 92L191 97L183 89C182.525 82.7505 178.048 80.4597 174.213 75.9962C166.247 66.725 153.254 45.3215 140 45L145 57L145 58C140.556 61.9763 145.427 69.4498 147 74L144 70L137 70L139 79L135 79C132.708 84.7308 128.277 87.4378 125.447 92.2986C121.936 98.3273 122.745 107.167 113 102L112 102L106 105L106 106L111 112L118 110L118 113C125.537 110.972 137.87 114.479 141 105L151 105L151 108L146 112L150 112L149 116C154.168 116.018 158.922 117.963 164 117.963C171.611 117.963 185.412 110.84 189 122L195 126C195.429 112.854 204.396 116.836 213 118L213 114L209 113L209 111L221 111C225.471 104.105 238.769 112.481 245 113.961C247.982 114.669 252.161 114.574 254.547 116.742C262.552 124.015 245.603 122.383 243 122L246 131C253.781 130.058 267.716 139.038 269 147L261 145C264.491 157.035 282.802 147.797 287 160L279 166L267.683 156.608L258 157.258L249 153.883L242.174 155.098L224 144L230 140L230 139C224.867 139.106 220.118 140.101 215 139.061C208.318 137.703 195.085 130.23 188.608 136.742C185.676 139.691 188.56 143.503 192.019 143.758C195.087 143.984 197.918 141.648 200.896 142.073C204.683 142.614 206.353 147.758 210.015 149.102C214.604 150.786 223.802 148.957 229 149L229 154C235.819 154.024 238.857 157.524 245.001 159.485C264.189 165.61 281.004 176.997 300 183.042C305.875 184.911 323.817 185.087 325 178L336 181L338 174L329 173L329 171C334.29 169.455 340.987 168.093 342 162C358.288 165.096 373.11 180.169 390 173C391.215 165.554 397.885 168.564 402.485 164.427C406.398 160.908 406.6 154.754 410.383 151.603C417.83 145.401 437.07 149.926 446 150C450.152 139.319 458.007 143.284 467 144C468.825 149.632 475.813 151.362 481 153L482 146L492.286 154.976L505 161C500.388 163.443 497.741 168.409 492.996 170.485C487.583 172.854 479.279 169.11 477 176C483.179 178.683 498.184 188.609 502 177L520 178L520 129L513 129C510.706 132.773 506.011 133.661 503.518 137.442C501.401 140.654 506.625 154.313 496.041 152.374C491.333 151.512 488.69 144.478 483.925 142.962C481.013 142.036 478.766 144.593 475.965 143.985C472.695 143.274 468.351 138.354 466 136L464 136C456.446 143.042 444.113 132.127 436.741 129.689C432.81 128.389 427.106 131.109 423 131.316C417.229 131.608 410.39 129.981 405 128L406 126C395.893 121.84 398.018 132.47 390.857 135.498C384.501 138.185 380.31 129.182 374.055 131.863C371.038 133.155 367.733 139.529 372.228 141.269C374.447 142.127 376.551 140.253 378.776 141.732C383.124 144.623 383.138 149.076 389 150C385.57 152.941 383.084 151.92 379 151C380.478 166.29 360.827 159.881 351.13 156.599C345.978 154.854 334.226 150.804 330.563 147.397C325.198 142.405 323.765 125.651 325 119C320.666 118.292 318.517 119.942 317 124C307.993 122.303 302.054 117.176 293 120L298 124L298 126L288 126L288 129L279 129L280 135C270.45 132.17 264.162 122.576 260 114L286 120L295 97L291 98C290.901 89.6453 287.343 89.7058 280 90L279 85C272.761 86.8773 261.262 85.4236 262 77C266.505 77.6884 266.868 75.0153 267 71C276.051 72.1377 284.95 67.6853 293.985 68.8318C298.002 69.3416 300.129 76.2942 303.972 75.2485C307.642 74.2499 310.625 67.5656 314.039 65.2894C322.827 59.4311 334.574 53.8856 345 52C346.687 43.7302 359.076 35.5598 367 33.6134C370.159 32.8374 378.918 31.6529 381.871 32.6119C383.903 33.2716 385.49 36.5255 387.816 36.0833C390.081 35.6526 390.071 32.3229 392.299 31.6875C394.707 31.0006 396.71 33.487 399.13 33.2099C404.031 32.6488 409.254 27.5968 414.17 26.2284C416.376 25.6144 418.521 26.8429 420.715 26.3086C425.526 25.137 428.832 19.8616 433.285 17.8534C441.656 14.0785 447.828 16.8355 456 18L459 36L475 35.3133L489.039 41.392L507 34.3187L520 41C520 29.5416 513.2 23.2959 501 23C496.052 32.2223 472.971 33.0797 464 31L466 26L471 27L476 25C475.112 20.857 465.11 20.9844 461 20L469 16C468.459 11.8873 468.997 9.896 472 7L472 5C455.551 0.150543 441.366 16.5903 425.845 13.9421C422.938 13.4462 421.279 10.5464 418.83 9.17438C415.26 7.17441 412.237 7.82947 410 4L400.95 4.71759L390.996 0.0192871L306 0L263 0L247 1z"/>
<path style="fill:#6689a5; stroke:none;" d="M396 0C399.797 7.0834 403.414 4.42758 410 4C411.541 8.3826 415.346 7.40845 418.83 9.73688C435.229 20.6972 453.302 0.612244 472 5L472 7C468.323 9.39151 468.11 11.8524 469 16L461 20L476 25C473.101 23.9797 471.692 23.7724 471 27L466 26L464 31C471.693 33.7418 498.068 32.0772 501 23L520 29L520 0L396 0z"/>
<path style="fill:#d1d1d4; stroke:none;" d="M345 52C334.446 53.0899 321.807 59.2893 313.093 65.2894C309.917 67.4761 307.424 73.5684 303.972 74.6551C300.595 75.7185 297.885 68.846 293.985 68.473C284.984 67.6123 276.03 71.6822 267 71C266.707 74.8423 266.064 76.8137 262 77C260.038 85.5191 273.119 87.66 279 85L280 90C286.798 89.9212 290.749 90.2877 291 98L295 97L286 120L260 114C262.599 122.708 270.729 133.322 280 135L279 129L288 129L288 126L298 126L298 124L293 120L317 124C319.017 120.474 320.891 118.998 325 119C323.394 125.745 324.947 141.972 329.934 147.397C332.059 149.707 336.174 149.016 338.871 150.441C348.681 155.625 354.797 158.626 365.996 159.098C369.139 159.23 372.078 162.556 374.995 162.083C380.15 161.248 379.636 154.646 379 151C382.841 152.36 386.201 153.678 389 150C383.888 148.534 383.323 144.668 379.545 141.622C377.068 139.625 374.665 141.935 372.229 140.713C367.851 138.517 371.974 132.956 375.005 131.917C380.528 130.022 384.69 138.165 390.857 136.013C398.27 133.426 395.872 123.108 406 126L405 128C415.562 133.163 424.318 128.997 434.946 129.781C439.379 130.108 444.16 134.945 449.09 135.926C454.257 136.955 460.203 141.26 464 136L466 136L476.87 144.644L483.944 143.37L496.056 153.306L500.394 150.449L505.306 146.843L503.44 138.259L513 129L520 129L520 41L508 34.152L489.039 41.0316L476 35.3133L459 36L456 18C434.589 12.6851 419.708 26.249 400 32.4236C397.338 33.2577 395.638 30.9482 393.108 30.9421C390.018 30.9348 390.017 35.7724 387.112 35.4097C385.054 35.1529 383.878 32.5967 381.871 32C378.628 31.0356 369.45 32.7267 366 33.6096C358.052 35.6434 345.97 43.3834 345 52z"/>
<path style="fill:#6689a5; stroke:none;" d="M261 64L275 67.2454L288 62.9514L303 68C302.243 64.5185 303.021 61.4538 302.687 58C300.609 36.502 285.44 55.8582 277 58.9722C270.229 61.4705 265.24 55.3705 261 64M221 111L209 111L209 113L213 114L213 118L199 115L199 116L202 116C202.215 120.859 207.782 131.319 212 134L211 139L244 144.715L269 147C268.338 138.594 253.989 129.3 246 131L243 122C245.038 122.42 246.973 123.136 249 123.583C253.173 124.505 260.353 121.371 255.5 116.5C253.564 114.557 249.538 114.717 247 114.194C241.898 113.143 222.687 103.128 221 111z"/>
<path style="fill:#d1d1d4; stroke:none;" d="M195 126L192 124L193 134L193 135L211 138L212 134L202 116C196.375 117.48 195.066 120.461 195 126z"/>
<path style="fill:#3a6891; stroke:none;" d="M161 130L159 136C162.454 137.018 184.063 136.013 181.824 131.09C178.76 124.353 166.087 129.677 161 130z"/>
<path style="fill:#d1d1d4; stroke:none;" d="M192 137C192.747 141.465 194.836 141.646 199 141C197.757 137.462 195.569 137.197 192 137z"/>
<path style="fill:#6689a5; stroke:none;" d="M285 144C293.421 144.618 304.161 154.057 309 143C302.815 139.741 287.847 134.62 285 144z"/>
<path style="fill:#d1d1d4; stroke:none;" d="M224 144L241.304 155.339L266.852 156.657L279 166L287 160C284.478 147.648 266.334 156.066 261 145L229.044 140.358L224 144z"/>
<path style="fill:#6689a5; stroke:none;" d="M446 150C436.484 149.804 418.867 145.635 410.347 151.028C406.062 153.741 405.779 160.92 401.675 164.427C396.993 168.429 390.603 165.434 390 173C380.667 175.515 379.972 172.702 370.999 171.279C367.732 170.76 364.611 172.009 361.424 170.786C354.558 168.152 349.588 162.818 342 162C340.283 167.678 334.069 168.955 329 171L329 173L338 174L336 181L325 178C322.335 186.778 309.612 181.039 303 185C306.517 187.37 310.626 190.881 315 191.324C321.008 191.933 328.423 188.823 335 189.015C347.317 189.377 383.568 204.277 385 183L394 182L394 173C397.914 173 411.426 175.384 413.816 172.382C417.42 167.857 410.756 162.193 417.189 157.938C423.56 153.725 435.688 156 443 156L442 159L458 162L440 172C434.15 164.013 418.715 174.795 412.91 178.11C409.982 179.782 402.706 181.568 404.662 186.567C406.183 190.454 414.786 189 418 189C425.386 189 433.723 190.075 440.996 188.736C447.425 187.552 452.033 183.567 459 183.09C466.127 182.601 478.671 181.414 475 192L478 202L436 201L436 202L469.985 203.054L520 207L520 200C511.902 199.63 499.461 197.737 497 189L520 189L520 178L502 177C495.821 188.316 484.63 178.054 477 176C480.535 169.574 488.11 173.117 493.985 170.486C498.297 168.556 501.285 163.89 505 161L493.17 154.976L482 146L481 153L467 144C458.536 142.907 448.67 138.809 446 150z"/>
<path style="fill:#3a6891; stroke:none;" d="M123 151L129 156L146 148C142.602 143.288 123.814 146.139 123 151z"/>
<path style="fill:#6689a5; stroke:none;" d="M64 158L43.0394 149.112L19 157L19 158L31.9105 159.231L42.0008 154.478L72 159C71.0635 165.017 73.0757 168.435 79 170L77 163L83 163L82 153L94 153C87.7147 147.578 77.6777 151.088 70.0147 149.263C67.1589 148.583 63.2832 144.837 60.8364 148.322C58.6581 151.424 62.7398 155.268 64 158M214 151L229 154L229 149C223.993 148.897 217.463 146.452 214 151z"/>
<path style="fill:#0e2c16; stroke:none;" d="M203 152C206.964 159.561 217.15 152.642 221 161L226 161C226.79 166.124 230.001 170.394 235 172L233 166L237 168L236 163L232 164L236 159C230.382 150.578 211.907 148.985 203 152z"/>
<path style="fill:#91a4b3; stroke:none;" d="M5 158L19.3395 172.127L41 178L49 172C49.8646 177.583 56.1232 182.835 62.169 182.242C66.6196 181.804 68.9812 177.427 73.054 176.299C81.4782 173.965 92.4364 175.003 101 176.189C109.048 177.303 111.753 187.851 120.001 186.656C127.451 185.576 141.363 180.249 142 172L131 172L132 175L103 173C102.234 165.137 104.78 160.051 113 163L103 159C97.9472 168.909 97.8792 156.451 94.6813 154.332C91.5787 152.276 85.6226 153.126 82 153L83 163L77 163L79 170C73.5283 167.828 71.723 164.836 72 159C60.6495 160.434 53.0067 154.405 42.0008 154.265C35.4332 154.181 32.1647 159.843 25.0039 158.905C18.2175 158.016 8.50722 143.717 5 158z"/>
<path style="fill:#316e2c; stroke:none;" d="M95 191L116 201C102.708 198.908 88.3647 206.885 77 212L81 199L68.8711 192.433L52 193L52 196L11 200L11 201C13.6419 207.321 4.97424 209.024 3 214C-1.09325 214.514 0 219.527 0 223L0 252C8.83172 252.407 5.32457 266.653 17 267L24 262L24 252L24 251L27 244C38.4638 240.198 29.8998 230.746 28 224L41 226L42 222C52.7511 222.008 52.0785 225.521 52 235L48 234L47 241C42.5515 238.349 45.1786 235.202 46 231C38.0252 233.86 36.7303 245.77 47 245L37 261C44.8643 258.445 52.8986 255.142 61.8958 256.831C64.7928 257.375 66.0158 260.772 68.2091 262.4C71.3742 264.75 76.2127 264.837 80 265C78.0419 258.285 83.5321 257.441 89 258L95 254C99.5388 262.673 105.455 258.415 113 257.695C120.069 257.021 129.711 257.48 136 261L142 259L142 251C147.663 254.129 145.915 260.927 150.433 264.282C154.564 267.351 161.785 262.952 166 262L165 250L168 244L171 245C172.749 237.347 176.079 219.451 186 219C186.54 214.305 186.664 211.985 182 210L179 217L178 217C177.081 210.151 173.144 209.163 167 208L164 211C160.903 201.577 147.345 208.437 143 201L134 203C136.538 194.641 151.315 197.467 158 199L160 195L181 197L184 189C187.326 190.707 188.065 192.299 188 196L192 191L200 193L198 183L199 183L199 186L205 183L205 188C211.019 186.231 214.502 188.935 220 191L220 185L227 185L230 190L228 183L233 186L234 186L237 178L253 181L253 177L256 183L262 183C270.477 196.747 296.42 190.043 310 194L310 192L317 193L317 192C288.707 182.191 264.155 160.439 234 155L236 159L232 164L236 163L237 168L233 166L235 172L226 161L221 161C218.426 151.891 205.646 160.271 204 151L182 163.039L160 168.467L119 187.096L95 191z"/>
<path style="fill:#d1d1d4; stroke:none;" d="M313 151L315 161L311 160L310 161L322 173L326 169C330.278 168.674 332.667 167.57 332 163L327 164C326.175 159.037 317.444 153.285 313 151z"/>
<path style="fill:#6689a5; stroke:none;" d="M0 152L0 205L26 194.637L51 194L49 187L75.6782 186.972L82.0556 178.056L97 189.357L119 188L119 187C111.735 185.511 109.704 177.256 102 176.189C92.926 174.932 81.0452 173.706 72.1289 176.299C68.1559 177.454 65.8568 181.918 61.2855 181.755C55.5935 181.553 50.4623 177.191 49 172C44.6026 172.495 42.697 173.912 41 178L20.1883 172.052L5 158L7 153L0 152M231 154L231 155L238 156L231 154z"/>
<path style="fill:#3a6891; stroke:none;" d="M394 173L394 182L385 183C383.626 193.251 374.753 194.51 366 193.91C353.489 193.053 326.558 181.525 317 193C327.525 199.518 340.924 206.205 353 209C366.306 198.917 384.833 203.34 400 203.528C405.828 203.6 411.029 198.958 417 198.75C422.993 198.541 428.147 201.306 434.001 201.548C448.601 202.152 463.256 202 478 202C477.326 198.435 478.798 192.831 475 192C480.325 181.491 466.603 182.853 460 183.015C452.394 183.201 447.888 186.751 440.996 188.525C434.267 190.258 425.92 189 419 189C415.606 189 407.023 190.427 405.176 186.567C403.073 182.172 410.294 179.944 412.91 178.601C420.064 174.929 431.745 164.895 440 172L458 162L442 159L443 156C435.728 156 422.543 153.503 416.344 157.938C410.653 162.01 416.516 167.151 413.767 171.643C411.547 175.27 398 173 394 173z"/>
<path style="fill:#d1d1d4; stroke:none;" d="M103 173L132 175L121 164C111.662 164.579 100.095 156.362 103 173z"/>
<path style="fill:#3a6891; stroke:none;" d="M246 160L246 161L250 161L246 160z"/>
<path style="fill:#91a4b3; stroke:none;" d="M446 170C447.694 180.385 460.5 177.005 468 177L468 172L446 170z"/>
<path style="fill:#3a6891; stroke:none;" d="M49 187L51 194L21 196L21 197L52 196L52 193L68.8711 192.738L78.9113 199.282L96 191C94.1991 187.141 84.9191 174.718 79.5756 178.072C76.1231 180.239 79.0512 186.152 74.5131 186.991C66.1964 188.527 57.0586 184.784 49 187z"/>
<path style="fill:#0e2c16; stroke:none;" d="M253 177L253 181L237 178L234 186L233 186L228 183L230 190L227 185L220 185L220 191C214.918 188.227 210.667 185.427 205 188L205 183C202.111 183.33 199.497 186.851 199 183L198 183L200 193L192 191L188 196C188.291 192.138 187.824 190.218 184 189L181 197L160 195L158 199C152.098 196.399 135.383 194.714 134 203L143 201C145.722 208.742 159.538 202.83 164 211L167 208C172.841 209.46 176.489 210.666 178 217L179 217L182 210C185.919 212.498 186.21 214.504 186 219C176.238 217.527 171.945 237.77 171 245L168 244L165 250L166 262L150.433 263.427L142 251L142 259L136 261C123.637 252.206 103.932 265.432 95 254L89 258C83.5125 257.031 76.627 258.005 80 265L62.7909 256.302L55 257.861L44.1844 256.336L37 261L47 245C36.8768 245.166 39.2362 234.684 46 231C44.699 235.058 41.616 239.117 47 241L48 234L52 235C52.207 224.971 53.2899 222.001 42 222L41 226L28 224C29.234 231.828 37.544 238.312 27 244L24 251L24 252L24 262L17 267C11.2595 266.614 8.68479 264.362 6.73302 258.996C6.08605 257.217 5.0005 251.365 2.17052 251.921C-1.60836 252.664 0 264.231 0 267L0 317C13.2903 311.908 23.9398 315.867 37.0147 316.942C45.7461 317.66 54.3302 316.179 63 316L63 319L58 319C62.7577 325.739 72.3095 314.979 79 322C87.3769 320.94 97.9793 316.99 106 317.321C112.698 317.597 119.281 321.372 126 320.812C133.783 320.165 136.805 314.533 145 318L163 315L162 297L164 297C164.001 301.641 162.971 311.482 166.028 315.258C169.553 319.612 181.993 318 187 318L187 320L183 320L183 322L214 321L214 317C226.159 318.998 238.606 312.497 251 313.039C254.868 313.208 261.196 315.383 263.972 311.486C266.685 307.679 264.153 303.438 259.981 303.059C250.131 302.162 238.709 302.197 229 304C225.775 278.347 259.225 284.147 277 284L285 314L292 311C296.833 318.292 307.772 314.31 315 314L314 318L326 313L326 318L346 316C348.85 320.396 355.262 319.01 360 319C365.863 318.988 369.536 315.96 375 315.147C383.431 313.894 392.522 314.505 401 315C403.358 322.1 423.423 319 430 319L520 319L520 273L476 266C468.857 280.167 441.561 268.215 429 274L427 269L426 269L422 277C417.558 273.287 408.335 264.433 402.224 264.62C399.047 264.717 398.474 269.117 394.945 268.647C390.166 268.009 386.518 263.394 382 262L385 265L385 267L372.999 261.642L351 261L350 265L339 266.143L314 265C309.627 271.348 293.189 264.611 286.961 264.568C283.009 264.541 277.89 266.652 274.104 265.308C268.473 263.309 268.066 257.791 261 259L263 253L270 258L278 259L273 249L271 253L267 246L258 247L256 241C249.137 242.158 244.517 243.359 241 236L251 235L250 228L254 226L259 228L259 224L265 225C265.056 231.204 266.67 235.17 273 237L271 227L274 227L275 237L278 237L276 220L272 221L270 219C270.401 215.061 268.757 214.299 265 214L269 211C269.525 204.048 272.879 202.806 279 205L277 198C293.72 197.123 309.923 200.707 326 205L345 207C336.692 199.493 320.88 194.051 310 192L310 194C294.774 187.674 274.3 196.735 262 183L256 183C256.579 179.577 256.397 178.135 253 177z"/>
<path style="fill:#91a4b3; stroke:none;" d="M497 189C498.43 198.232 512.013 199.83 520 200L520 189L497 189z"/>
<path style="fill:#0e2c16; stroke:none;" d="M77 212C89.8586 208.428 101.618 200.095 116 201C113.278 196.036 108.085 195.786 102.996 194.731C91.2811 192.302 73.4736 195.902 77 212z"/>
<path style="fill:#316e2c; stroke:none;" d="M233 202C228.001 195.069 212.314 202.578 206 205L209 208L209 209L205 212L200 211L200 216L196 215C189.426 227.743 178.945 231.71 182 247L189 245C184.064 250.425 176.098 252.099 178 261L188 257L189 260L204.776 257.634L213 262L214 262L219 265C217.49 256.866 218.553 250.263 228 249C233.366 233.867 250.181 224.129 250 207L243 200L239 201L238 197L233 202M277 198L279 205C272.57 201.538 269.235 203.752 269 211L265 214C268.49 214.572 269.612 215.451 270 219L272 221L276 220L278 237L275 237L274 227L271 227L273 237C267.39 234.405 265.149 231.158 265 225L259 224L259 228L254 226L250 228L251 235L241 236C243.293 243.972 249.472 242.726 256 241L258 247L267 246L271 253L273 249L278 259L270 258L263 253L261 259C266.003 258.74 268.638 260.661 271 265C274.023 263.488 276.799 262.802 276 266L282 265L282 264L278 260C280.993 259.936 282.346 260.054 283 257L289 258L298 260C300.674 257.72 301.852 258.627 302 262L310 261L309 252L312 252L316 261L323 261L323 264L318 265L318 266L332 265L331 258L344 265L350 265L353 261L353 260L348 252L348 251L352 245C361.599 251.323 373.483 266.341 385 262C390.406 272.084 396.206 267.835 403 264L398 258L419 267L419 271L412 270L412 271L422 277L426 269L427 269L429 274C441.223 270.07 453.109 275.048 464.91 273.597C469.34 273.053 474.716 270.229 476 266L520 273L520 228C513.364 232.101 510.906 232.065 503 232L505 226C498.729 226.404 494.445 229.16 492 235C481.354 229.877 463.892 230.893 453 234L446 224L456 229L458 226L459 229L478 223C474.833 218.84 469.584 220.421 465 221L468 215C459.121 212.886 454.991 216.246 447 219C446.171 215.133 443.187 215.835 440 217C441.107 220.972 441.833 224.582 446 226L446 232L444 229C439.765 229.735 439.224 231.948 439 236L429 233L426 235L423 232L423 230L431 231C431.494 227.863 431.036 227 428 226C435.995 215.601 427.486 217.499 420 213L419 213C411.395 217.328 399.078 223.952 390 223.115C385.683 222.717 381.836 218.908 377.91 217.254C370.58 214.164 362.452 212.921 355 209.95C350.249 208.055 328.255 202.073 326 205C311.871 199.926 291.967 195.468 277 198z"/>
<path style="fill:#91a4b3; stroke:none;" d="M382 204C388.821 214.76 409.076 209.586 419 209.559C441.421 209.499 464.567 211.687 487 213.83C498.243 214.905 508.878 213.717 520 216L520 207L443 202.91L416 198.495L401 203.106L382 204z"/>
<path style="fill:#8f8851; stroke:none;" d="M280 209L300 213C295.146 204.524 281.427 192.778 280 209z"/>
<path style="fill:#3a6891; stroke:none;" d="M0 214L3 214L13 201C3.98563 201.922 0.00689735 205.079 0 214z"/>
<path style="fill:#6689a5; stroke:none;" d="M372 201L372 202L377 202L372 201z"/>
<path style="fill:#d1d1d4; stroke:none;" d="M358 208C360.238 214.739 368.2 213.831 373.83 215.495C379.183 217.077 383.442 221.912 389 222.758C400.249 224.468 413.08 216.125 423 212L423 210L406.015 211.838L386.09 207.393L375.039 202.148L358 208z"/>
<path style="fill:#91a4b3; stroke:none;" d="M353 207L358 211L371 204L353 207z"/>
<path style="fill:#8f8851; stroke:none;" d="M118 208L117 213L124 215L120 208L118 208z"/>
<path style="fill:#3a6891; stroke:none;" d="M428 210L428 214C442.786 211.255 456.621 215.214 471 216.556C482.501 217.63 494.346 215 506 215L489 213.91L451 211.91L428 210z"/>
<path style="fill:#0e2c16; stroke:none;" d="M420 215C430.151 214.349 432.217 217.839 428 226L431 231L423 230L423 232L426 235L429 233L439 236C439.357 229.472 441.263 229.688 446 232L446 226L440 217C443.304 216.31 445.088 216.079 447 219L455 214L428 214L429 211C424.838 210.198 422.118 211.282 420 215z"/>
<path style="fill:#6689a5; stroke:none;" d="M359.667 211.333L360.333 211.667L359.667 211.333M463 212L463 213L478 213L463 212z"/>
<path style="fill:#0e2c16; stroke:none;" d="M465 221C469.945 220.613 473.988 219.515 478 223L459 229L458 226L456 229C453.332 225.209 450.559 224.237 446 224L453 234C465.395 231.799 479.631 230.492 492 235C495.135 229.822 498.891 226.766 505 226L503 232C516.693 232.283 520 230.545 520 216C507.061 211.963 494.089 216.801 481 216.32C475.405 216.115 466.974 214.553 465 221z"/>
<path style="fill:#91a4b3; stroke:none;" d="M372 215L372 216L376 216L372 215z"/>
<path style="fill:#0e2c16; stroke:none;" d="M284 218L288 222L284 218z"/>
<path style="fill:#6689a5; stroke:none;" d="M381.667 219.333L382.333 219.667L381.667 219.333M405.667 219.333L406.333 219.667L405.667 219.333z"/>
<path style="fill:#0e2c16; stroke:none;" d="M393 225L393 227C403.158 230.948 412.175 229.885 422 224C411.984 220.609 402.912 222.408 393 225z"/>
<path style="fill:#6689a5; stroke:none;" d="M388 223L388 224L392 224L388 223z"/>
<path style="fill:#0e2c16; stroke:none;" d="M282 225L280 238L284 242L289 236L284 235C284.296 231.103 285.506 227.508 282 225M20 238L24 238L28 229C23.5369 230.373 21.6062 233.767 20 238M161 238C165.08 236.723 167.305 234.222 168 230C163.451 230.989 162.377 233.786 161 238M450 242L451 247L456 242L450 242z"/>
<path style="fill:#8f8851; stroke:none;" d="M352 245L348 251L348 252C352.854 263.543 360.955 264.733 373 261C369.413 254.44 358.755 248.006 352 245M300 246L304 255C305.024 250.711 303.354 248.638 300 246M308 246L308 250L312 249L312 247L308 246z"/>
<path style="fill:#0e2c16; stroke:none;" d="M496 249L500 264L516 263L518 257C506.571 259.499 506.702 249.347 496 249z"/>
<path style="fill:#316e2c; stroke:none;" d="M248 256L260 253C255.559 251.688 249.807 250.863 248 256z"/>
<path style="fill:#0e2c16; stroke:none;" d="M291 252L290 258L293 258L291 252z"/>
<path style="fill:#8f8851; stroke:none;" d="M309 252L310 261L289 258L283 257L278 260C279.779 268.851 295.604 264.859 300.917 265.944C304.621 266.701 312.749 270.838 314 265L323 264L323 261L316 261L312 252L309 252z"/>
<path style="fill:#0e2c16; stroke:none;" d="M299.603 258.157C297.87 259.314 299.664 262.001 301.397 260.843C303.13 259.686 301.336 256.999 299.603 258.157z"/>
<path style="fill:#8f8851; stroke:none;" d="M331 258L332 266L343 266L343 263L331 258M398 258C401.868 265.245 410.855 270.56 419 271L419 267L398 258M272 264L276 267L277 265L272 264M379 264L383 267L379 264z"/>
<path style="fill:#316e2c; stroke:none;" d="M383 264L380 267L380 268C382.891 267.523 384.747 266.891 383 264M360 277L365 277L374 270C366.177 268.064 362.395 267.854 360 277z"/>
<path style="fill:#6c3e39; stroke:none;" d="M269 284L269 285L275 285C268.363 292.521 252.235 288.636 243 289.039C238.479 289.237 235.138 290.286 231 288L229 304C241.534 302.416 264.987 297.172 265 314C268.099 313.963 270.338 313.27 273.285 312.545C276.124 311.846 279.919 313.866 282.397 311.968C288.69 307.145 276.64 290.49 277 284L269 284z"/>
<path style="fill:#8f8851; stroke:none;" d="M232 290C242.321 289.915 252.622 289.004 263 289C267.816 288.998 272.34 289.554 275 285L244 285C238.776 285 233.762 284.197 232 290z"/>
<path style="fill:#316e2c; stroke:none;" d="M162 297L163 315C158.61 315.221 145.836 314.098 145 318C136.763 313.604 132.961 320.488 125.015 320.603C118.277 320.699 111.691 316.618 105 316.831C97.1515 317.081 87.0245 320.505 79 322C73.5111 313.29 64.3228 324.732 58 319L63 319L63 316C48.1315 316.123 34.4831 316.564 20.0008 314.301C15.688 313.627 4.55912 312.991 1.3179 316.894C-3.09249 322.203 0 339.265 0 346L520 346L520 319L431 319C423.703 319 404.876 321.96 401 315C392.34 313.972 381.551 313.33 373 315.313C364.97 317.176 353.29 323.444 346 316L326 318L326 313L314 318L315 314C306.855 314.168 298.493 317.491 292 311L286 314L272 312C269.345 313.98 267.655 313.98 265 312L240.09 313.129L214 317L214 321L183 322L183 320L187 320L187 318C181.642 318 170.765 319.339 166.603 315.258C163.109 311.83 164.003 301.587 164 297L162 297z"/>
<path style="fill:#0e2c16; stroke:none;" d="M273 311L273 313L276 313L276 311L273 311z"/>
</svg>
