<?xml version="1.0" standalone="yes"?>
<svg width="360" height="540" xmlns="http://www.w3.org/2000/svg">
<path style="fill:#7f853d; stroke:none;" d="M0 0L1 18L2 18C7.77431 12.0418 11.8166 8.83588 12 0L0 0z"/>
<path style="fill:#233725; stroke:none;" d="M12 0C11.6101 8.92029 6.40404 11.2737 2 18L1 18L1 15L0 15L0 66C13.2236 65.5417 25.4899 70.0324 30.1466 84C31.9383 89.374 30.4687 94.7401 33 100L35 100L35 96L43 96L43 106L34.8711 110.829L23.9244 106.473L0 112L0 155C0 159.825 -1.6112 168.193 0.603395 172.566C4.82548 180.904 20.2726 176.087 22 189L26 189C24.9847 196.669 30.9383 196.491 35.6512 201.005C40.7758 205.912 44.5532 211.87 48 218L50 218L68 198L54 202L54 201L61 197C59.1224 191.752 64.904 189.717 69 188L72 176L86 172L86 170L82 170L82 164L89 160L109 155C100.684 144.467 88.0208 138.143 94.3279 122.004C97.6013 113.628 119.735 97.2995 124 112C128.191 112.856 138.281 121.774 141.397 114.837C146.235 104.066 128.589 102.522 123.015 96.9846C104.286 78.3796 108.774 45.4968 138.999 46.0046C146.186 46.1254 152.882 50.5309 160 52C167.086 42.8993 180.08 46.0112 189.91 43.1374C193.87 41.9798 196.233 38.389 200.001 36.858C204.046 35.2144 210.172 36.7862 212.972 32.581C215.329 29.0415 215.321 18.3834 215.646 14C215.995 9.28979 213.392 4.41211 212 0L95 0L86 23L90 23C91.6772 28.1165 96.3612 31.2975 97.5255 37C99.2688 45.5386 91.3754 63.262 85.571 69.5316C81.2225 74.2288 73.5368 73.8167 70 79L93 87L91 96L91 97C96.583 108.046 89.1723 120.797 77 123L71 105C59.8678 104.908 50.7382 100.395 48 89C55.2332 88.7682 63.2568 84.3062 65 77C44.7086 70.269 46.9225 51.0164 54 36L33 34C33 39.0763 15.6958 30.8894 13 37L12 37C12.0031 8.53436 54.7259 2.14429 59 32L75 29C74.7696 25.9755 75.6907 19.1151 73.9329 16.7423C71.8084 13.8746 66.0554 15.2915 63 14.348C56.2642 12.2681 51.5905 6.23969 49 0L12 0z"/>
<path style="fill:#beb1aa; stroke:none;" d="M49 0C53.3324 16.6144 88.4222 16.7662 93 0L49 0z"/>
<path style="fill:#bf9a3e; stroke:none;" d="M93 0C86.6018 14.3805 70.3436 11.8148 58 10L58 11C69.6266 16.0229 90.8269 14.7704 95 0L93 0z"/>
<path style="fill:#beb1aa; stroke:none;" d="M212 0C213.914 6.85431 220.138 16.6412 227 19L218 0L212 0z"/>
<path style="fill:#efebe7; stroke:none;" d="M218 0C218.41 13.8642 230.285 20.735 238.092 29.8387C240.828 33.0296 237.931 37.1872 240.032 40.544C242.419 44.3577 247.548 44.5442 250.397 47.5841C254.02 51.4509 253.673 60.6668 256.549 65.6211C258.69 69.3084 262.653 69.5209 264 74C270.182 74.0041 290.548 71.7841 294.397 76.3179C298.76 81.4557 298.86 91.8015 302.973 98C306.258 102.951 316.111 111.791 315.745 117.996C315.428 123.353 307.611 127.53 306 133C293.616 133 278.372 131.933 267.515 138.754C261.186 142.73 257.212 150.44 251 155L251 161L232 139L235 155C241.839 155.521 243.058 160.608 246 166L243 165L242 168L247 170L248 166L250 168L253 166L261 182L260 178C267.489 182.292 279.767 181.956 283.084 191.997C284.789 197.158 279.187 200.477 277.174 204.455C275.838 207.096 277.026 210.115 276.086 212.871C274.365 217.91 271.17 220.161 271 226C262.302 223.253 265.038 207.265 257 202C264.794 220.744 264.571 234.098 263 254L295 249C297.604 236.54 315.313 233.333 322.697 244.468C324.988 247.923 324.231 252.022 325.309 255.791C326.542 260.102 331.572 262.314 332.302 267.015C334.489 281.083 317.745 288.79 313.329 299.285C310.52 305.964 314.066 316.872 307 321L303 341C297.995 340.768 294.197 339.785 292 335L271 332.09L234 337L234 338C239.925 339.585 239.53 343.089 243.029 347.254C249.794 355.309 258.533 360.554 260 372L255 372L273 396L288.09 403.825L302 411L360 418L360 120C360 97.597 362.766 73.2021 359.867 51.0038C359.026 44.5682 342.692 33.1399 353 30C354.149 33.9986 356.096 35.6577 360 37L360 0C351.832 2.62079 354.686 14.2524 345 15C342.764 -0.268372 325.626 0 314 0L218 0z"/>
<path style="fill:#beb1aa; stroke:none;" d="M333 0L345 15C353.092 14.7311 354.58 6.67084 357 0L353 0L351 11L333 0z"/>
<path style="fill:#bf9a3e; stroke:none;" d="M336 0L346 7C343.888 2.90216 340.562 0.648376 336 0z"/>
<path style="fill:#7f853d; stroke:none;" d="M340 0C344.619 7.32111 352.714 11.8271 353 0L340 0M214 4L215 8L216 8L214 4z"/>
<path style="fill:#8d7229; stroke:none;" d="M214 7C215.681 12.5341 216.431 29.1029 211.682 33.2971C207.825 36.7032 202.311 35.085 198.015 37.3171C193.531 39.6464 191.307 42.9209 185.999 43.7137C178.013 44.9067 164.341 43.6812 160 52L152 50C161.059 65.6699 165.224 52.0467 178 50.2099C184.745 49.24 190.112 54.2873 195.924 53.5926C200.919 52.9956 214.998 39.7668 216.191 34.8712C216.809 32.3346 215.268 29.5513 215.144 27C214.837 20.7064 220.109 11.4056 214 7z"/>
<path style="fill:#bf9a3e; stroke:none;" d="M347 7L351 11L347 7z"/>
<path style="fill:#7f853d; stroke:none;" d="M53 8L56 10L53 8z"/>
<path style="fill:#8d7229; stroke:none;" d="M56 10C61.1032 15.9324 67.2637 12.3672 72.6427 16.179C75.9979 18.5566 74.8984 27.0017 72 29L72 30C83.9796 30.033 91.6104 36.2607 95 48L96 48C99.6549 36.4704 95.0818 32.4879 90 23L86 23L90 8C75.9856 12.4348 70.5136 14.4646 56 10z"/>
<path style="fill:#7f853d; stroke:none;" d="M217 10C216.33 25.6013 215.375 47.0726 196.83 52.993C192.169 54.4813 183.866 49.5494 178 50.1042C169.574 50.9012 166.436 56.1697 160 60C163.322 78.6373 169.313 104.412 141 105C145.185 122.588 132.689 112.99 124 112C122.345 101.621 107.869 107.435 102.09 111.384C86.3564 122.137 93.6145 149.539 111 154L111 148L123 146L124 140L130 142L142 136L140 132L152 135C153.178 131.118 155.048 130.301 159 130L159 126C163.254 126.639 166.74 127.056 170 124L164 120C177.874 115.426 172.449 105.658 173.148 95C173.611 87.9463 179.885 77.3246 186 74L186 73C177.388 74.7533 170.98 95.9316 167.117 79.0247L166 74L171 73C171.115 62.6392 177.164 52.433 188.91 54.314C193.244 55.008 196.364 57.7588 201 58L201 61L212 60L219 37L229 34C229 22.5853 225.574 17.5928 217 10z"/>
<path style="fill:#8d7229; stroke:none;" d="M27 12L27 13L35 14L34 16L37 17L35 22L16 33C20.5993 36.0073 29.2792 34.4564 34 32L33 30L45 27L45 26L41 26L43 24C42.1479 11.4406 39.2737 12 27 12z"/>
<path style="fill:#7f853d; stroke:none;" d="M12 37L13 37C17.6636 31.7224 28.1683 23.0848 35 22L37 17L34 16L35 14C19.7742 10.4189 12 23.9711 12 37z"/>
<path style="fill:#1c5d89; stroke:none;" d="M43 13L41 26L45 26L45 27L33 30L34 32L21 34L21 35C24.1336 35.0978 32.3733 37.7602 33 34C47.6945 36.7377 56.8443 33.9468 71 31L71 30L59 32C58.3526 23.0038 51.8429 14.9199 43 13z"/>
<path style="fill:#beb1aa; stroke:none;" d="M229 22C229.294 27.7235 232.986 31.6331 233.762 37.0146C234.516 42.2513 232.625 47.6325 233.286 53C234.916 66.2249 245.938 74.7289 259 75C259.002 89.1659 263.705 102.148 279.17 105.701C290.73 108.357 298.651 99.7374 306.509 109.576C307.893 111.308 310.271 113.361 309.964 115.841C309.493 119.647 304.015 117.393 302.008 119.617C300.775 120.985 300.82 123.106 299.401 124.378C294.796 128.507 291.602 120.441 287.78 119.902C284.717 119.47 282.318 122.978 279 122.798C268.483 122.225 257.55 114.396 247.569 123.585C238.581 131.859 238.564 156.396 251 161L251 155C258.315 151.334 261.151 143.821 267.515 139.275C277.89 131.864 293.834 133 306 133L316.288 117.996L297.81 87L293.682 75.0278L264 74L256.549 64.8256L251.397 48.3133L240.618 40.544L239.127 30.554L229 22M266 23L265 31L275 29C273.608 24.6627 270.314 23.5414 266 23z"/>
<path style="fill:#bf9a3e; stroke:none;" d="M229 27L229 34L219 37L212 60L201 61L201 58C196.578 57.5443 193.181 54.6116 188.91 54.1474C176.54 52.8026 171.039 61.753 171 73L166 74C166.4 76.9738 166.822 86.0594 170.299 87.0293C175.454 88.4675 178.303 77.0797 182.065 74.8711C189.897 70.2733 208.01 75.4956 214.711 80.7021C225.21 88.8605 219.006 100.362 219.26 111C219.384 116.194 221.849 120.808 222 126C233.174 118.377 224.514 102.981 223.181 93C222.412 87.2444 219.479 80.2029 227 79L225 76L225 75L227 70L243 70L243 69C227.625 56.7513 239.692 40.3518 229 27z"/>
<path style="fill:#7f853d; stroke:none;" d="M54 35C51.528 40.5305 48.1117 44.6492 48.0046 51.0038C47.9309 55.3781 47.6265 60.0493 49.8187 63.9992C52.8691 69.4956 57.8134 72.4066 64 72.9066C74.661 73.7684 86.0185 70.8151 91.5748 60.6752C98.2375 48.5163 92.2286 30.5594 77 30.0432C68.8441 29.7668 62.0225 34.5891 54 35z"/>
<path style="fill:#beb1aa; stroke:none;" d="M359 48L360 48C360 38.9108 356.592 37.5354 353 30C342.109 31.8178 355.886 43.7716 359 48M297 41L298.513 51.0394L295 66L299 66C300.329 57.6306 306.609 53.9156 314 51C311.571 43.0124 304.498 41.0207 297 41z"/>
<path style="fill:#7f853d; stroke:none;" d="M112 81L114 81C113.467 74.2504 112.038 67.4784 115.075 61.0154C122.288 45.6632 141.802 48.5414 154 54C146.459 39.2812 123.799 45.719 115.825 56.2863C110.08 63.9001 111.306 72.2027 112 81z"/>
<path style="fill:#bf9a3e; stroke:none;" d="M114 66L115 66C120.531 54.4138 132.289 51 144 51L144 49C132.061 49 114.823 50.7866 114 66z"/>
<path style="fill:#8d7229; stroke:none;" d="M114 58L115 58L120 51L114 58z"/>
<path style="fill:#beb1aa; stroke:none;" d="M131 51.6134C100.562 59.837 113.292 104.516 143.83 94.787C174.629 84.9753 162.695 43.0502 131 51.6134z"/>
<path style="fill:#efebe7; stroke:none;" d="M135 60L129 90L135 90C135.753 80.0242 142.292 80.4942 150 81L150 76L156 77L153 76L151 61L135 60z"/>
<path style="fill:#1c5d89; stroke:none;" d="M87 64C80.6889 76.177 65.7442 72.5797 55 71L55 72L65 77C62.4157 83.647 55.101 88.4808 48 89L49 95L50 95C55.326 83.4359 64.8997 96.3857 71 100C74.7884 92.691 79.5463 87.2288 88 86C89.9378 89.0775 92.8763 91.388 89 94L90 100C83.3334 101.739 81.8069 105.925 80 112L85 116L90 116C93.4642 109.65 95.8139 103.408 91 97L91 96L93 87L70 79C74.6177 74.5198 90.1161 73.007 87 64z"/>
<path style="fill:#7f853d; stroke:none;" d="M0 66L0 112L14 112C17.1953 105.433 24.5053 104.139 27.1157 96.9992C34.4187 77.0243 18.0299 64.6269 0 66z"/>
<path style="fill:#bf9a3e; stroke:none;" d="M162 67C162 89.7177 141.583 101.149 121 92C123.008 105.011 141.625 107.235 151.961 103.521C163.972 99.2051 168.921 77.1311 162 67z"/>
<path style="fill:#7f853d; stroke:none;" d="M227 70L225 75L225 76L227 79C218.572 79.6567 222.37 87.933 223.181 94C225.278 109.703 230.528 117.853 218 131L218 132L226 140L230 125C233.816 127.054 234.619 129.801 235 134C239.982 136.747 239 141.908 239 147L240 147C240 128.693 248.883 118.809 266.985 116.892C269.539 116.621 272.415 114.568 274.96 115.167C278.25 115.942 279.642 119.887 283 121L283 115C289.16 116.265 295.073 115.232 301 116.313C303.395 116.75 306.187 119.039 308.678 118.253C314.273 116.489 304.379 104.361 301.741 103.161C298.603 101.735 287.633 106.174 283.004 105.981C266.291 105.284 259.01 89.459 259 75L227 70z"/>
<path style="fill:#beb1aa; stroke:none;" d="M180 118L173 118L170 129L159 126L159 130C154.824 130.137 152.728 130.638 152 135L140 132L142 136L134 139L134 140C137.097 140.462 142.409 143.198 143 139L149 140L149 139L144 136L161 141L156 137L156 136L164 137C166.495 132.921 170.545 133.037 175 133L175 129L201 142L200 133L206 136L202 131C206.927 125.258 211.502 126.195 216 132C225.973 127.193 219.601 119.116 219.46 111C219.289 101.179 224.895 89.5124 216.37 81.419C201.752 67.5421 172.165 72.5497 173.069 96C173.363 103.62 178.424 110.644 180 118z"/>
<path style="fill:#8d7229; stroke:none;" d="M244 96C238.737 97.7462 240.5 101.8 242 106L261 108L260 103L264 104C262.954 96.275 259.012 84.7982 253.47 79.2508C251.377 77.1559 245.899 72.9332 243.219 76.6072C240.646 80.136 243.963 91.5214 244 96z"/>
<path style="fill:#1c5d89; stroke:none;" d="M27 78C28.0114 86.0027 29.5797 94.8406 24.1157 101.722C21.0682 105.561 16.4595 106.334 14 111L24.8302 106.818L34.8711 111.339L43 106L43 96L35 96L36 99L35 100L33 100L27 78z"/>
<path style="fill:#7f853d; stroke:none;" d="M114 82C114.5 87.523 116.709 91.4958 121 95L114 82z"/>
<path style="fill:#8d7229; stroke:none;" d="M71 100C67.7323 97.374 64.0485 92.7342 60.446 90.8542C55.2683 88.1521 47.5155 91.9491 51.6088 98.0972C55.6165 104.117 64.5032 104.982 71 105L77 123C82.574 122.424 85.8754 120.213 88 115L85 116L80 112L82 110C82.0881 104.576 85.2054 102.036 90 100L89 94C94.7653 92.7646 90.1785 88.5068 88 86C79.3119 86.6265 74.0416 91.9888 71 100z"/>
<path style="fill:#bf9a3e; stroke:none;" d="M174 101C174.735 110.33 172.643 115.386 164 120L170 124L162 127L162 128L170 129L173 118L180 118L174 101z"/>
<path style="fill:#efebe7; stroke:none;" d="M195 101C196.591 106.2 193.254 108.592 191 113L203 108L201 105L210 106L209 115C224.463 108.724 201.764 101 195 101z"/>
<path style="fill:#bf9a3e; stroke:none;" d="M250 121L250 122L262 119.105L279 122.923L287.78 120.573L298.683 125.377L305 117L283 115L283 121C280.232 119.483 278.647 116.077 275.776 114.948C270.296 112.794 255.023 118.259 250 121z"/>
<path style="fill:#8d7229; stroke:none;" d="M93 123L95 142L96 142L93 123M230 125C227.576 131.841 225.055 138.273 229 145L230 145L232 139L234 139L239 147C239 142.155 240.465 135.814 235 134C234.8 129.705 234.4 126.426 230 125z"/>
<path style="fill:#efebe7; stroke:none;" d="M202 131L206 136L200 133C200.57 142.065 206.613 143.487 209 134L213 135L216 144L217 144L219 135C220.628 139.916 225.385 144.662 230 147C226.889 138.912 209.735 117.751 202 131z"/>
<path style="fill:#bf9a3e; stroke:none;" d="M244 128C238.794 134.522 240 142.058 240 150L242 150L244 128z"/>
<path style="fill:#4795c8; stroke:none;" d="M175 129L175 133C170.745 133.003 165.407 132.19 164 137L156 136L156 137L161 141L144 136L149 139L149 140L143 139C143 144.88 132.157 135.334 130 142L125 141L116 148L127 149L127 150L112 150L112 149L114 149L114 148L106 155L106 156L108 159L84 163L84 164L86 165L83 164L82 164L82 170L86 170L86 172L82 172L82 173C84.8075 178.22 76.6774 177.104 74 176L73 180L73 181L84 179L84 181C79.8946 181 70.9539 185.184 72 181C67.9923 183.258 68.4587 186.209 73 187L73 188C70.3933 189.236 55.8794 193.686 62 195L54 201L54 202L68 197L67 194L81 188L81 190L77 190L70 196L71 199L66 201L63 207L67 206L65 209C65.6102 209 68.6104 209.39 69 209C71.0435 206.957 88.2026 191.19 86 200C90.0632 200.543 108.56 207.441 96 197C101.918 195.709 107.883 197.622 109 190L95 194L97 191L95 188L103 188L103 187L88 186L90 177L97 171L99 164C104.658 164.633 113.606 166.374 117 161L126 162C128.381 168.771 150.178 166.901 157 168C153.477 162.263 146.88 160.56 141 158L145 153L162 157L162 158L159 158L159 159L171 160L169 156L175 156L176 153L173 152L173 151C180.962 150.983 185.142 151.788 192 156C188.753 149.342 180.741 145.453 174 143L176 141L173 140L173 138L187 142L187 143L184 143C189.194 148.885 194.922 146.845 199 141L175 129z"/>
<path style="fill:#efebe7; stroke:none;" d="M157 132L157 133L162 134L157 132z"/>
<path style="fill:#7f853d; stroke:none;" d="M209 134C206.739 139.673 202.996 141.824 197 142L204.039 150.251L206 160L208 160L217 147L219 151L222 150L226 164L225 161L227 160C230.915 161.04 233.029 161.913 234 166L243 167L243 165L246 166C243.085 160.479 241.833 155.224 235 155L233 149L232 149L231 159L230 159L223 141L221 141L223 149C216.681 146.174 214.354 141.57 213 135L209 134z"/>
<path style="fill:#beb1aa; stroke:none;" d="M218 135L217 144L215 143L223 149L222 141L222 140L218 135z"/>
<path style="fill:#1c5d89; stroke:none;" d="M173 138L173 140L174 143L188 147L192 156C185.521 150.532 181.017 150.935 173 151L173 152L176 153L174 158L182 160L182 157L192 161C195.139 154.951 199.049 159.716 204 161L195 150L195 149L197 145C194.38 145.69 191.831 147.61 189 146.667C186.826 145.942 183.118 143.518 187 143C183.061 139.312 178.411 136.681 173 138z"/>
<path style="fill:#beb1aa; stroke:none;" d="M124 140L123 146L124 146L127 141L124 140z"/>
<path style="fill:#bf9a3e; stroke:none;" d="M231 140L230 145L231 140z"/>
<path style="fill:#beb1aa; stroke:none;" d="M223 141L228 147L223 141M232 144L230 159L231 159L232 144z"/>
<path style="fill:#233725; stroke:none;" d="M197 146L195 149L195 150L204 161C199.516 159.12 194.166 154.228 192 161L182 157L182 160L169 156L168 161L172 162L172 163C167.027 163.017 162.541 165.05 159 161L163 161L163 159L159 159L159 158L162 158L162 157L148 155L148 156L157 168L153 168L153 169L161 172L141 167L143 171L139 171L139 172L149 179L127.129 178.13L103 172L104 176L108 177L106 180L113 181L113 184L107 189L107 190C109.453 190 124.896 173.415 123 181L127 181L127 182L124 182L150 191C150.983 196.001 158.544 198.218 163 200L162 203L174 206C169.255 198.903 159.87 194.684 152 192L152 191L163 193L163 192L153 189L153 188L168 193L160 187L160 186L189 205L189 204C182.981 200.499 172.914 192.975 169.122 187.255C165.227 181.38 175.89 180.459 179 181C172.395 200.55 190.461 195.447 201 200L201 190L202 190L204 195L205 195L203 188L204 188L210 199L206 186L211 186L214 192L212 181L216 189L219 184L223 188L224 185L225 185L226 188L222 190L217 198L222 203L229 189L243 187.649L259 194C261.169 182.394 250.499 178.51 249 169L234 166C234.072 161.359 231.212 160.47 227 160L227 162L225 161L226 164L224 159L218 154L210 154L208 160L206 160C203.974 152.724 205.892 148.255 197 146z"/>
<path style="fill:#bf9a3e; stroke:none;" d="M226 146C226.125 149.878 226.502 152.072 230 154C230.652 150.016 229.401 148.098 226 146z"/>
<path style="fill:#beb1aa; stroke:none;" d="M112 149L112 150L127 150C121.88 147.218 117.446 147.289 112 149z"/>
<path style="fill:#233725; stroke:none;" d="M184 147L192 154L188 147L184 147z"/>
<path style="fill:#8d7229; stroke:none;" d="M216 147L212 156L218 154L222 159L223 159L222 150L219 151L216 147z"/>
<path style="fill:#1c5d89; stroke:none;" d="M145 153L141 158L155 165L156 164L148 156L148 155L158 155L145 153z"/>
<path style="fill:#7f853d; stroke:none;" d="M98 155L98 156L106 156L98 155z"/>
<path style="fill:#4795c8; stroke:none;" d="M97 159L101 156L97 159z"/>
<path style="fill:#beb1aa; stroke:none;" d="M95 159L95 161L108 159L108 156L95 159M236 157L240 164L241 164L240 157L236 157M242 159L244 162L242 159z"/>
<path style="fill:#7f853d; stroke:none;" d="M89 160L86 162L86 163L92 162L89 160z"/>
<path style="fill:#1c5d89; stroke:none;" d="M159 161C161.833 166.163 166.972 163.056 172 163L159 161M117 161C112.506 165.662 105.1 164.444 99 164L97 171L90 177L88 186L103 187L103 188L95 188L97 191L95 194L109 189L108 187L113 184L113 181L106 180L108 177L104 176L103 172C110.808 172 123.297 171.454 128 179L149 179C147.538 174.917 143.05 173.003 139 172L139 171L143 171L141 167L161 172L153 169C152.035 162.058 130.003 169.909 126 162L117 161z"/>
<path style="fill:#beb1aa; stroke:none;" d="M83 166L86 165L83 166M83 168L83 169L96 166L83 168z"/>
<path style="fill:#7f853d; stroke:none;" d="M248 166C248.364 169.464 248.24 173.194 252 174L252 170L248 166z"/>
<path style="fill:#beb1aa; stroke:none;" d="M251 166L250 170L252 170L252 174L253 166L251 166z"/>
<path style="fill:#1c5d89; stroke:none;" d="M87 168L87 169L91 169L87 168z"/>
<path style="fill:#7f853d; stroke:none;" d="M79.6667 173.333L80.3333 173.667L79.6667 173.333z"/>
<path style="fill:#beb1aa; stroke:none;" d="M75 175C78.0659 179.725 82.1451 177.371 84 173L75 175z"/>
<path style="fill:#8d7229; stroke:none;" d="M250 174L250 175L255 177L254 173L250 174z"/>
<path style="fill:#bf9a3e; stroke:none;" d="M254 173L255 178L256 178L254 173z"/>
<path style="fill:#1c5d89; stroke:none;" d="M0 174L0.469907 210.715L7.59799 225L12 239L11 220L11 217L11 216C14.3794 213 8.87427 206.856 8 203L4 203L5 197C-4.05902 184.561 9.64243 181 19 181L0 174z"/>
<path style="fill:#4795c8; stroke:none;" d="M77.6667 174.333L78.3333 174.667L77.6667 174.333z"/>
<path style="fill:#beb1aa; stroke:none;" d="M256 175C256.288 184.07 264.638 191.55 252 195L253 192L247 191L246 199L236 201L241 189C234.628 189.507 234.158 195.084 230 199L232 192C221.163 191.653 225.036 200.931 232 204L231 201L234 205C225.33 206.176 211.723 210.725 211 221L225 211.058L259 202C260.714 207.95 264.781 224.92 271 226C272.003 210.414 295.034 191.491 272.576 181.839C268.62 180.138 264.093 179.672 260 178L261 182L258 175L256 175z"/>
<path style="fill:#1c5d89; stroke:none;" d="M72 176L72 181L75 180L74 176L72 176z"/>
<path style="fill:#4795c8; stroke:none;" d="M124 176L128 179L124 176z"/>
<path style="fill:#1c5d89; stroke:none;" d="M115 184L127 182L127 181L123 181C122.187 175.227 116.321 181.376 115 184z"/>
<path style="fill:#beb1aa; stroke:none;" d="M71 182L71 183L84 181L84 179L71 182z"/>
<path style="fill:#7f853d; stroke:none;" d="M170 181L177 183L177 187L178 187L179 181L170 181z"/>
<path style="fill:#8d7229; stroke:none;" d="M5 197L4 203L8 203L11 216L11 217L11 220C14.3515 226.461 7.79497 236.822 16 242C11.5097 253.99 18.1843 259.084 22.8511 269.174C24.9117 273.629 24.6388 278.405 26 283L27 283C33.7028 273.811 35.0908 263.969 35 253L30 254L36.973 240.896L38 229L45 229L45 234L53 228L53 227L52 221L42.831 208.59L27.5224 195.159L26 189L22 189C20.7479 170.409 -7.98458 185.595 5 197z"/>
<path style="fill:#beb1aa; stroke:none;" d="M212 181L214 192L209 186L207 190C208.241 194.163 209.729 196.736 214 198C215.887 191.367 218.111 186.074 212 181z"/>
<path style="fill:#1c5d89; stroke:none;" d="M225 181L227 186L228 186L228 181L225 181z"/>
<path style="fill:#233725; stroke:none;" d="M97 182L97 183L103 183L97 182z"/>
<path style="fill:#beb1aa; stroke:none;" d="M167 187L178 194L177 183C172.15 183.095 168.998 181.582 167 187z"/>
<path style="fill:#8d7229; stroke:none;" d="M115 184L115 185L127 187C124.216 182.252 119.818 183.796 115 184M258 183L259 189L260 189L258 183z"/>
<path style="fill:#1c5d89; stroke:none;" d="M181 184L181 185L193 191C190.545 186.074 186.344 184.344 181 184z"/>
<path style="fill:#8d7229; stroke:none;" d="M219 184L221 189L217 189L215 195L214 195L210 197L206 200L207 204L199 198L198 198L194 200L196 203L201 201L203 206L198 207L198 210L198 211L216 207L216 208L211 209L211 210L215 210L214 214L221 208L217 208C218.925 204.564 220.287 200.942 217 198L222 190L226 188L225 185L224 185L223 188L221 184L219 184z"/>
<path style="fill:#bf9a3e; stroke:none;" d="M102 201L97 217L92 216C89.4691 226.625 84.0139 242.368 70 237L67 243L72 243C67.6336 247.759 64.8826 256.338 58 257C60.0142 261.444 62.6627 261.892 67 260L67 262L73 266C66.0078 269.035 59.0546 272.287 55 279L58 279L58 280L56 285L53 283L40 301L45 305L31.3472 313.599L24 323C28.2986 335.442 23.6006 342.544 21.7994 354.035C21.2284 357.678 24.1575 360.613 23 364L23 365L26 366L23 374L21 372L18 388L18.1667 399L20 413L17 436L20 434C22.8939 445.869 17.4779 459.984 16.1289 472C15.0755 481.382 17.9687 489.86 18 499L19 499L19 493L20 493C20.6923 498.6 17.922 507.557 24 510L32 469C37.5052 472.216 35.6773 479.444 37 485L36 485L34 481L33 481L33 490L38 512L46 507L49 521L50 521C49.3486 511.181 49.295 495.847 40 490L41 486L42 486L42 489L43 489L49 488L49 485L50 485L51 488L52 488L52 483L53 483L56 487L56 482L57 482L54.0779 499.971L58 510L60 510L59 499L61 499C61.4353 504.773 64.6976 507.484 69 511L76 509C76.0008 516.241 76.1371 522.961 82 528L80 522L84 528L87 527L88 539L91 538L105 540C103.416 532.585 101.999 529.367 105 522L108 524L108 512L119 528L120 528L121.692 514.167L116 504L118 505L118 504L116 499L117 499L120 505L121 505L122 500L121 497L130 491L126.174 436L126 414L124 417L123 417L124 399L123 399L117 405C113.652 399.136 109.679 399.379 104 402L104 392L107 394L111 392L109 387L112 388L114 386C109.477 373.142 94.8393 376.545 85 382C86.1508 376.173 88.1786 371.659 93 368L94 371L95 371L96 367L98 369L99 369L100 352C91.9473 349.008 99.9946 345.293 104 343L104 342L94 343L88 338L102 324L99 328C101.662 327.856 102.636 327.181 103 330L104 330C108.067 327.242 110.661 332.453 111 336L115 334L116 334L120 334L125 338L125 331L126 331L127 338L128 338L128 333L129 333L130 338L131 338L131 335L138 343L139 343L141 327L145 328L143 333L146 333L150 331L148 316L147 316L148 322C140.426 314.425 138.914 311.39 139 301C132.802 298.575 123.687 293.075 123 286L124 286L128 291L129 287L130 287L130 291L131 291L130 266C125.714 264.727 124.485 262.335 124 258C119.988 255.656 119.196 251.722 122 248L117 234L126 233L127 237L121 238L121 239L124 239C124.949 246.407 133.141 250.378 140 251C137.939 244.121 133.624 237.152 127 234L126 230L135 217C140.905 220.087 148.948 212.623 155 211L152 205L147 205C155.457 186.636 134.624 187.281 124 186.571C120.483 186.336 116.862 184.044 113.329 185.604C107.523 188.169 107.735 197.573 102 201z"/>
<path style="fill:#7f853d; stroke:none;" d="M193 191C187.739 192.033 182.561 193.025 185 186C170.805 183.613 190.235 207.939 193 191M160 186L160 187L168 193L159 189L159 190L163 192L163 193L152 191L152 192C159.957 195.787 171.778 200.032 175 209L179 209L175 204L196 206C192.238 203.576 188.111 205.132 184.439 203.008C175.96 198.103 170.479 186.79 160 186M194 186L196 195L197 195C197.373 191.187 197.305 188.274 194 186z"/>
<path style="fill:#8d7229; stroke:none;" d="M206 186L206 190L209 190L209 186L206 186z"/>
<path style="fill:#efebe7; stroke:none;" d="M61 193L73 188C68.6229 186.486 63.437 189.28 61 193z"/>
<path style="fill:#8d7229; stroke:none;" d="M153 188L153 189L160 191L159 187L153 188M169.333 187.667L169.667 188.333L169.333 187.667z"/>
<path style="fill:#233725; stroke:none;" d="M185.303 187.847C181.777 189.164 184.656 193.369 187.697 192.292C191.22 191.043 188.447 186.674 185.303 187.847z"/>
<path style="fill:#beb1aa; stroke:none;" d="M218 190L221 187L218 190z"/>
<path style="fill:#1c5d89; stroke:none;" d="M240 187L240 188L243 188L242 191L249 190L240 187M67 194L66 197L66 198C70.6871 197.272 75.5353 194.657 77 190L81 190L81 188L67 194z"/>
<path style="fill:#7f853d; stroke:none;" d="M203 188L205 195L204 195L202 190L201 190L201 200L202 200L203 196L209 200L203 188M236 188L236 189L242 191L243 188L236 188M229 189L232 192L230 199L236 190L229 189z"/>
<path style="fill:#8d7229; stroke:none;" d="M146 190L147 205L155 204L151 199L150 191L146 190z"/>
<path style="fill:#7f853d; stroke:none;" d="M177 190L181 198L177 190z"/>
<path style="fill:#8d7229; stroke:none;" d="M245 190L243 199L250 191L245 190z"/>
<path style="fill:#233725; stroke:none;" d="M236 201C242.299 200.298 244.699 196.959 246 191C239.625 191.211 236.474 194.655 236 201M216 192L215 197L216 197L216 192z"/>
<path style="fill:#bf9a3e; stroke:none;" d="M252 195L257 194L252 195z"/>
<path style="fill:#7f853d; stroke:none;" d="M223 193L221 197L223 193M59 195L59 196L62 197L59 195M151 195L151 199L159 207L165 204L165 203L162 203L163 200L151 195z"/>
<path style="fill:#efebe7; stroke:none;" d="M255 195L255 199L260 201C259.432 197.418 258.492 196.057 255 195z"/>
<path style="fill:#7f853d; stroke:none;" d="M96 197L102 207L103 207L102 200L107 196L96 197z"/>
<path style="fill:#1c5d89; stroke:none;" d="M181 196L183 201L190 200L190 199L181 196z"/>
<path style="fill:#233725; stroke:none;" d="M203 196L202 203L207 204L203 196z"/>
<path style="fill:#beb1aa; stroke:none;" d="M70 197L67 202L68 202L70 197z"/>
<path style="fill:#1c5d89; stroke:none;" d="M65 209L67 206L57 213L59 213L49 220L49 221L52 224L70 210L68 213L70 213C64.3336 219.881 56.8519 222.431 56 232L62.4475 223.259L75 213L83 202L84 202L85 208L76 211L76 212L81 212L77 217L88 212C86.9769 206.856 87.2957 204.522 90 200L86 200C84.7577 191.172 67.9052 208.273 65 209z"/>
<path style="fill:#beb1aa; stroke:none;" d="M184 200C186.932 204.651 191.214 202.693 196 203L194 200L198 198L184 200M202 197L204 201L202 197z"/>
<path style="fill:#8d7229; stroke:none;" d="M102 200L102 201L106 200L102 200z"/>
<path style="fill:#233725; stroke:none;" d="M212 199L212 202L213 202L212 199z"/>
<path style="fill:#bf9a3e; stroke:none;" d="M223 199L217 208L222 209L222 206L234 205L231 201L232 204L223 199z"/>
<path style="fill:#8d7229; stroke:none;" d="M90 200C86.7229 204.215 86.6255 206.946 88 212L86 212L90 225L91 225L92 216L97 217C99.6681 212.382 102.157 208.418 101 203C96.4151 205.384 93.9743 202.351 90 200z"/>
<path style="fill:#233725; stroke:none;" d="M215 200L218 205L215 200z"/>
<path style="fill:#beb1aa; stroke:none;" d="M197 201L201 204L197 201z"/>
<path style="fill:#233725; stroke:none;" d="M83 202L74 212L85 208L83 202M190 202L190 203C194.171 205.221 198.662 207.82 203 205L190 202M216 223L214 221L211 222L211 220L207 221L215 210L211 210L211 209L216 208L216 207L198.961 210.237L176 210L177 215L173 216L166 214L166 211C157.076 211 140.321 212.096 138 223L137 223L137 220L136 220L133 222L134 232L130 232L149 260L121 242L125 251C122.512 252.612 121.598 254.569 122.847 257.576C127.952 269.867 132.72 278.046 134 292L135 292L136 290L147 300L168 296L168 299L173 300L173 294L174 294L174 299L175 299L176 296L177 299L178 299L179 292L190 298L191 292L182 284L189 282L187 280L187 279L189 276C206.155 276 220.679 273.309 237 268L217 305C251.589 297.158 263.683 258.663 265 228C259.491 231.64 259.133 239.985 258 246L257 246L260.477 227.996L254 202C241.826 204.162 217.233 208.468 216 223M151 204L151 205L160 206L151 204z"/>
<path style="fill:#7f853d; stroke:none;" d="M253 203L253 204L264 222C263.427 214.99 261.285 203.659 253 203z"/>
<path style="fill:#beb1aa; stroke:none;" d="M162 204L162 207C158.431 207.197 156.243 207.462 155 211L175 212L173 210L173 209L175 206L162 204M175 204L190 212L200 210C196.469 204.851 181.388 204.406 175 204z"/>
<path style="fill:#8d7229; stroke:none;" d="M152 205L157 208L157 207L152 205z"/>
<path style="fill:#7f853d; stroke:none;" d="M239 205L239 206L243 206L239 205z"/>
<path style="fill:#1c5d89; stroke:none;" d="M254 205L261 229C266.41 223.847 259.774 208.327 254 205z"/>
<path style="fill:#beb1aa; stroke:none;" d="M57 211L63 206L57 211z"/>
<path style="fill:#233725; stroke:none;" d="M222.667 206.333L223.333 206.667L222.667 206.333z"/>
<path style="fill:#1c5d89; stroke:none;" d="M179 207L173 209L173 210L175 212L166 212L173 216L177 215L176 210L184 210L181 207L179 207z"/>
<path style="fill:#7f853d; stroke:none;" d="M228 209L228 210L231 210L228 209z"/>
<path style="fill:#4795c8; stroke:none;" d="M51 227C54.2238 231.748 45.4596 237.528 44 242L47 241L39 251L54 243C56.2428 249.062 52.5864 249.968 50 255L54 253L51 259L58 256L56 253L71 244L67 242L66 242L59 245C62.8048 241.745 68.3225 240.678 67 235C75.7689 235.298 76.349 231.982 83 228L83 227C71.395 227 66.3556 227.207 56 232L70 213L68 213L70 210C62.7997 213.554 54.4494 219.603 51 227z"/>
<path style="fill:#8d7229; stroke:none;" d="M184 210L184 211L190 211L184 210z"/>
<path style="fill:#1c5d89; stroke:none;" d="M233 213L236 210L233 213z"/>
<path style="fill:#4795c8; stroke:none;" d="M50 218L59 213L58 211L50 218z"/>
<path style="fill:#233725; stroke:none;" d="M0 212L0 339L12 335L12 334C5.1744 329.975 10.1761 321.147 17.0008 319.831C20.0119 319.251 23.3304 321.901 26 323L33 284L24 290L23 290C30.3976 270.943 10.8543 260.311 16 242C5.83651 234.418 10.4397 219.797 0 212z"/>
<path style="fill:#4795c8; stroke:none;" d="M64 223L71 221C74.0209 224.434 77.569 221.919 80 219L82 221L83 221L88 219C86.8316 212.016 81.7996 216.347 77 217L81 212C73.2846 212.229 68.3083 216.888 64 223z"/>
<path style="fill:#8d7229; stroke:none;" d="M144 215L144 216L149 213L144 215z"/>
<path style="fill:#beb1aa; stroke:none;" d="M198 217L203 214L198 217z"/>
<path style="fill:#7f853d; stroke:none;" d="M204 214L204 216L206 214L204 214z"/>
<path style="fill:#8d7229; stroke:none;" d="M176 218L176 219L189 221L189 220L187 217L190 216L176 218z"/>
<path style="fill:#beb1aa; stroke:none;" d="M49 220L55 216L49 220z"/>
<path style="fill:#8d7229; stroke:none;" d="M196 217L200 219L196 217M135 217L126 230L127 234L129 236L130 236L130 232L134 232L133 222L136 220L137 220L137 223L138 223L139 218L135 217M141 228L142 228C147.664 223.187 155.513 219.16 163 219C155.313 215.684 143.711 219.604 141 228z"/>
<path style="fill:#7f853d; stroke:none;" d="M207 221L211 217L207 221z"/>
<path style="fill:#1c5d89; stroke:none;" d="M80 219L76 225L65 225L65 226C72.6973 226.973 89.1795 230.035 89 218L80 219z"/>
<path style="fill:#7f853d; stroke:none;" d="M163 218L163 219L179 220L163 218z"/>
<path style="fill:#beb1aa; stroke:none;" d="M190 218L189 221L154 221L146 229L143 228L141 234L172 247L176 255L178 254L180 256L190.035 234.514L201 222L198 220L192 218L190 218z"/>
<path style="fill:#7f853d; stroke:none;" d="M194 219L194 220L198 220L206 224L206 223L205 219L199 221C198.583 218.181 196.574 218.496 194 219z"/>
<path style="fill:#bf9a3e; stroke:none;" d="M146 225L146 226L154 221L162 220C156.001 217.554 150.983 222.133 146 225z"/>
<path style="fill:#1c5d89; stroke:none;" d="M215 219L214 223L215 219z"/>
<path style="fill:#233725; stroke:none;" d="M60 229L76 225L76 224L69 224L64 223L65 221C61.4215 222.877 60.4426 225.032 60 229z"/>
<path style="fill:#beb1aa; stroke:none;" d="M70 221L69 224L70 221z"/>
<path style="fill:#7f853d; stroke:none;" d="M89 221L87 224C89.2508 223.527 90.1178 223.14 89 221z"/>
<path style="fill:#1c5d89; stroke:none;" d="M211.667 221.333L212.333 221.667L211.667 221.333z"/>
<path style="fill:#7f853d; stroke:none;" d="M264 223L259 236L260 236L264 223z"/>
<path style="fill:#beb1aa; stroke:none;" d="M72 239C80.3254 238.971 88.1161 233.009 91 225C83.7311 223.394 75.0938 233.018 72 239z"/>
<path style="fill:#bf9a3e; stroke:none;" d="M141 232L142 232L146 229C144.715 223.006 141.195 228.443 141 232z"/>
<path style="fill:#1c5d89; stroke:none;" d="M195 227L184 246L188 246L188 241C194.441 238.997 196.549 233.133 197 227L195 227z"/>
<path style="fill:#7f853d; stroke:none;" d="M38 229L30 254L35 253L36 263L37 263L41 251L47 235L47 234L45 229L38 229z"/>
<path style="fill:#beb1aa; stroke:none;" d="M52 229L45 239L52 229z"/>
<path style="fill:#8d7229; stroke:none;" d="M117 234L120 243L125 243L121 239L121 238L127 237L126 233L117 234z"/>
<path style="fill:#1c5d89; stroke:none;" d="M264 233L264 240L265 240L264 233z"/>
<path style="fill:#7f853d; stroke:none;" d="M189 234L187 239L189 234z"/>
<path style="fill:#1c5d89; stroke:none;" d="M258 234L257 246L258 246L258 234M67 235L68 240L69 240L73 235L67 235M213 235L217 253L220 254C219.782 259.575 224.302 259.794 229 260L229 259L228 256L213 235z"/>
<path style="fill:#beb1aa; stroke:none;" d="M295 249C284.431 249.313 273.09 260.26 263 252L262 252L251 280C256.899 276.755 278.954 273.161 284.397 278.603C287.455 281.661 285.425 287.726 286.729 291.572C288.649 297.233 293.814 301.245 295.428 307C297.238 313.453 293.993 319.574 295 326C272.985 321.459 253.235 325.131 231 325.446C224.648 325.536 218.659 322.018 212 322L212 323C220.438 325.033 227.52 326.577 233 334L226 336L228 339L226 343C237.695 351.988 239.236 363.103 246 375L247 375L246 370L250 376L249 379L250 379L254 375L250 369L260 372L260 367L259 367L259 371C247.159 369.271 240.279 354.824 236 345L244 348L244 347L234 338L234 337L271 332.171L292 335C293.518 340.387 297.952 340.892 303 341L307 321C314.104 318.502 310.903 306.09 313.329 300.17C317.717 289.465 335.983 280.493 332.451 266.039C331.479 262.064 327.79 260.027 325.974 256.624C323.315 251.643 325.781 245.55 320.656 241.563C311.378 234.347 296.527 236.557 295 249z"/>
<path style="fill:#7f853d; stroke:none;" d="M153 240L157 242L155 239L153 240z"/>
<path style="fill:#1c5d89; stroke:none;" d="M59 245L68 240L59 245z"/>
<path style="fill:#beb1aa; stroke:none;" d="M40 248L47 241L40 248z"/>
<path style="fill:#8d7229; stroke:none;" d="M136 242L140 247L136 242z"/>
<path style="fill:#1c5d89; stroke:none;" d="M37 261L38 261L54 243C46.4741 246.381 37.2602 252.241 37 261z"/>
<path style="fill:#beb1aa; stroke:none;" d="M67 243L67 244L72 244L67 243z"/>
<path style="fill:#8d7229; stroke:none;" d="M121 244L122 248C119.053 250.576 120.165 254.49 121 258L122 258L125 251L121 244z"/>
<path style="fill:#beb1aa; stroke:none;" d="M46 257C50.714 254.36 55.5526 250.63 56 245C50.135 246.646 46.4585 250.918 46 257z"/>
<path style="fill:#7f853d; stroke:none;" d="M139 247L140 251L136 251L136 252L149 260L139 247M169 247L172 251L172 247L169 247M263 247L263 250L264 250L263 247z"/>
<path style="fill:#beb1aa; stroke:none;" d="M56 255L68 248C62.5641 248.176 58.7495 250.219 56 255z"/>
<path style="fill:#8d7229; stroke:none;" d="M130 248L130 249L133 250L130 248M133 250L133 251L136 252L133 250M126 251L125 254L130 254L126 251z"/>
<path style="fill:#233725; stroke:none;" d="M51 259L52 256L42 264L46 264L34 278L40 274L42 276C44.7259 273.37 47.2549 269.981 51 272L70 265L67 260L66 260L46 270L65 252L51 259z"/>
<path style="fill:#4795c8; stroke:none;" d="M45 253C37.5213 257.722 32.0794 267.222 32 276L33 276C35.1136 271.888 37.1495 269.188 42 269L41 264L49 256L46 257L45 253z"/>
<path style="fill:#1c5d89; stroke:none;" d="M53 253L49 257L53 257L53 253M174 253L179 259L178 254L174 253z"/>
<path style="fill:#7f853d; stroke:none;" d="M59 257L65 254L59 257z"/>
<path style="fill:#1c5d89; stroke:none;" d="M44 256L41 262L44 256z"/>
<path style="fill:#7f853d; stroke:none;" d="M217 256L220 259L217 256z"/>
<path style="fill:#beb1aa; stroke:none;" d="M57 258L56 259L56 260L56 261L59 258L57 258z"/>
<path style="fill:#1c5d89; stroke:none;" d="M55 259L53 260L53 261L55 259z"/>
<path style="fill:#8d7229; stroke:none;" d="M124 260L129 266L129 265L124 260z"/>
<path style="fill:#233725; stroke:none;" d="M40 261L35 269C38.057 267.196 40.506 264.686 40 261z"/>
<path style="fill:#4795c8; stroke:none;" d="M47 268C52.1653 266.816 59.8578 266.346 62 261C55.4628 261.001 49.121 260.626 47 268z"/>
<path style="fill:#8d7229; stroke:none;" d="M68 261L70 265L46 285L44 291L44 292C49.1583 290.769 51.6605 288.088 53 283L56 285L58 279L55 279L55 278L73 266L68 261z"/>
<path style="fill:#7f853d; stroke:none;" d="M259.333 261.667L259.667 262.333L259.333 261.667z"/>
<path style="fill:#1c5d89; stroke:none;" d="M61 265L64 262L61 265M41 264L41 265L43 268L44 268L46 264L41 264z"/>
<path style="fill:#7f853d; stroke:none;" d="M138 265L139 271L140 271L138 265z"/>
<path style="fill:#beb1aa; stroke:none;" d="M39 268L26 285C30.2026 281.786 39.8005 273.667 39 268z"/>
<path style="fill:#1c5d89; stroke:none;" d="M46 268L46 270L48 268L46 268z"/>
<path style="fill:#bf9a3e; stroke:none;" d="M195 276L195 281L190 280L192 282L188 287L190 298L179 292L180 305L168 297L159 299L160 304L163 302L165 313L160 315L160 318L178 321L178 320L174 320L174 316L171 317L166 303L180 319L181 312L172 302L182 307L181 299C183.931 299.126 189.836 301.072 191.971 298.393C196.307 292.951 187.194 285.688 198 284C200.6 292.474 215.418 299.656 223 294L228.713 289L237 268L195 276z"/>
<path style="fill:#4795c8; stroke:none;" d="M53 272L60 269L53 272z"/>
<path style="fill:#8d7229; stroke:none;" d="M116 269L118 279L122 281C128.213 277.787 124.286 274.107 121 270L116 269z"/>
<path style="fill:#1c5d89; stroke:none;" d="M45 275L48 273C46.2633 276.721 40.7054 284.321 36 283C32.4979 285.949 32.5699 287.853 34 292L35 292L35 290L36 290L37 293L39 291L42 283L40 289C43.7364 287.471 51.2146 276.548 50.7438 272.323C50.2268 267.683 45.3817 272.927 45 275z"/>
<path style="fill:#7f853d; stroke:none;" d="M51 278L61 270L51 278z"/>
<path style="fill:#beb1aa; stroke:none;" d="M44 283L56 272C50.2037 272.913 46.375 277.877 44 283z"/>
<path style="fill:#1c5d89; stroke:none;" d="M145 272C146.485 276.578 151.595 278.68 156 280C154.41 275.296 149.753 272.72 145 272z"/>
<path style="fill:#4795c8; stroke:none;" d="M36 273L37 274L36 273M46 273L43 274L36 285C41.2216 281.958 46.2862 279.101 48 273L46 273z"/>
<path style="fill:#8d7229; stroke:none;" d="M218.667 273.333L219.333 273.667L218.667 273.333z"/>
<path style="fill:#1c5d89; stroke:none;" d="M40 274L38 280C40.3166 277.983 41.3738 276.872 40 274z"/>
<path style="fill:#8d7229; stroke:none;" d="M141 275C141.171 280.628 143.175 284.098 149 285L141 275z"/>
<path style="fill:#7f853d; stroke:none;" d="M208 275L208 276L214 276L208 275z"/>
<path style="fill:#8d7229; stroke:none;" d="M189 276C187.998 278.989 187.12 280.19 190 282L191 276L189 276z"/>
<path style="fill:#beb1aa; stroke:none;" d="M190 280L195 281L195 276L190 280z"/>
<path style="fill:#1c5d89; stroke:none;" d="M33 277L26 288L27 288L33 277z"/>
<path style="fill:#8d7229; stroke:none;" d="M30 283L30 284L35 285L38 277L30 283z"/>
<path style="fill:#1c5d89; stroke:none;" d="M157 280L158 280L159 278C159.759 281.778 159.962 285.819 164 287C164 282.84 158.965 270.83 157 280z"/>
<path style="fill:#bf9a3e; stroke:none;" d="M254 277L254 281C257.512 281 273.288 278.271 272 286C271.178 290.931 260.718 292.774 266 297L263 298L263 299L275 302L274 309L274 310C284.678 308.066 283.055 316.154 291 319L291 323L269 315L270 311L265 311L265 310L267 308L263 308C262.984 329.164 239.678 317.515 227 325L227 326L273 322.26L295 326C294.582 319.344 297.292 312.642 295.428 306C293.822 300.272 288.603 296.37 286.729 290.714C285.575 287.23 287.502 280.488 284.397 278.028C278.997 273.751 260.823 277 254 277z"/>
<path style="fill:#233725; stroke:none;" d="M50 278L45 285L53 278L50 278z"/>
<path style="fill:#7f853d; stroke:none;" d="M158 278L158 284L160 284L158 278M253 278C241.145 288.087 232.227 299.543 217 305L223 294C214.518 298.908 202.134 292.139 198 284C186.957 284.842 195.563 292.025 191.954 297.667C189.948 300.803 184.092 299.063 181 299C181.402 302.493 182.117 304.92 179 307C182.472 314.219 187.932 316.277 195 319L192 322L196 322C200.084 318.787 206.058 318.195 209 323C215.55 322.173 220.749 324.536 226.961 324.331C231.213 324.191 234.446 321.036 239 321.008C251.428 320.933 262.998 324.928 263 308L267 308L265 310L265 311L270 311L269 315C275.549 320.461 282.311 322.555 291 323L291 319C283.612 314.604 284.627 306.78 274 310L274 309C276.613 306.916 276.017 305.011 275 302L263 299L263 298L266 297L264 295C265.871 294.008 266.14 292.911 267.5 291.222C278.733 277.279 258.683 283.727 253 278z"/>
<path style="fill:#1c5d89; stroke:none;" d="M48 279L48 281L50 279L48 279z"/>
<path style="fill:#7f853d; stroke:none;" d="M182.667 279.333L183.333 279.667L182.667 279.333z"/>
<path style="fill:#8d7229; stroke:none;" d="M132 280L131 291L130 291L130 287L129 287L128 291L124 286L123 286C122.386 293.183 132.661 299.429 139 301C138.791 311.128 138.933 315.612 148 322L148 313C143.975 310.82 139.51 301.266 146 300C144.928 296.312 139.228 288.709 135 292L134 292L132 280z"/>
<path style="fill:#efebe7; stroke:none;" d="M187 285L192 282L187 285z"/>
<path style="fill:#233725; stroke:none;" d="M41 283L37 290C40.1614 289.326 41.9804 285.961 41 283z"/>
<path style="fill:#8d7229; stroke:none;" d="M184 283L182 284C183.4 287.965 184.789 290.092 189 291L184 283z"/>
<path style="fill:#beb1aa; stroke:none;" d="M185 283C186.328 286.302 187.566 286.803 191 286L191 285L188 283L185 283z"/>
<path style="fill:#4795c8; stroke:none;" d="M23 290L24 290L27 285L23 290z"/>
<path style="fill:#7f853d; stroke:none;" d="M45 286L45 288L47 288L47 286L45 286z"/>
<path style="fill:#4795c8; stroke:none;" d="M44 287C41.4197 288.358 36.5164 293.873 36 290L35 290L32 298C34.9338 296.928 45.2526 290.104 44 287z"/>
<path style="fill:#233725; stroke:none;" d="M47 287L33 300C37.8545 298.323 47.1288 292.674 47 287z"/>
<path style="fill:#bf9a3e; stroke:none;" d="M145 289L145 293L146 293L145 289z"/>
<path style="fill:#8d7229; stroke:none;" d="M146 290L145 294L146 290M173 294L173 300L169 299L169 300L175 302L176 296L175 299L174 299L173 294M162 297L162 298L168 297L162 297z"/>
<path style="fill:#efebe7; stroke:none;" d="M178 296L175 300L180 305L178 296z"/>
<path style="fill:#1c5d89; stroke:none;" d="M39 297L33 300C33.0255 296.273 29.9411 300.156 29.1944 302C27.4752 306.247 27.1414 312.316 26 317L41 311L39 297z"/>
<path style="fill:#8d7229; stroke:none;" d="M103 304L103 305L111 306C118.433 305.093 133.629 316.91 135 305L131 307L131 303L130 303L129 306L129 299L126 301L121 300L123 297L103 304M149 299L149 300L154 309L147 303L151 320L162 319L162 318L160 315L165 313L163 302L160 304L161 298L149 299z"/>
<path style="fill:#bf9a3e; stroke:none;" d="M146 298L143 299L145 312L147 303L154 309C153.187 301.887 151.181 301.886 146 298z"/>
<path style="fill:#8d7229; stroke:none;" d="M41 300L42 308L43 308L45 305L41 300z"/>
<path style="fill:#efebe7; stroke:none;" d="M172 302L181 312L179 316L180 316L184 315L172 302M166 303L171 317L174 316L174 320L178 320L168 303L166 303M146 304L145 312L148 313L150 318L146 304z"/>
<path style="fill:#8d7229; stroke:none;" d="M33 311L33 312L40 311L33 311z"/>
<path style="fill:#bf9a3e; stroke:none;" d="M149.333 311.667L149.667 312.333L149.333 311.667z"/>
<path style="fill:#beb1aa; stroke:none;" d="M180 314C180.932 318.35 187.167 317.953 191 319L191 320L178 319L182 325L184 323L186 325L189 323L193 330L195 329L206 349L203 336L202 336L201 338L194 323L195 319L180 314M150 315L150 326L151 326L150 315z"/>
<path style="fill:#bf9a3e; stroke:none;" d="M187.667 316.333L188.333 316.667L187.667 316.333z"/>
<path style="fill:#7f853d; stroke:none;" d="M26 317L25 322C27.636 320.487 28.654 319.06 26 317z"/>
<path style="fill:#1c5d89; stroke:none;" d="M180 320L191 320C188.338 317.321 181.07 315.006 180 320z"/>
<path style="fill:#233725; stroke:none;" d="M162 318L165 321L165 322L151 320C152.72 325.183 157.448 323.588 162 324.325C173.189 326.136 180.669 333.518 191 337L183 323L183 325L180 323L180 325L175 321L177 326L166 318L162 318z"/>
<path style="fill:#efebe7; stroke:none;" d="M27 339C26.6891 332.916 26.4804 319.607 17.9961 319.377C14.0145 319.269 5.87943 326.046 9.19753 330.411C10.8589 332.597 14.6424 331.908 16.9992 332.653C20.8423 333.867 23.5947 337.013 27 339z"/>
<path style="fill:#7f853d; stroke:none;" d="M156 319L156 320L160 320L156 319z"/>
<path style="fill:#1c5d89; stroke:none;" d="M156 320L156 321L165 322L156 320z"/>
<path style="fill:#beb1aa; stroke:none;" d="M165 319C167.881 322.348 170.592 323.849 175 323L165 319z"/>
<path style="fill:#efebe7; stroke:none;" d="M168 319L168 320L174 322L168 319z"/>
<path style="fill:#233725; stroke:none;" d="M185 319L185 320L188 320L185 319z"/>
<path style="fill:#bf9a3e; stroke:none;" d="M210 341C213.847 340.582 217.714 342.514 219 338L214 338L218 325L209 325L209 320C207.012 319.636 205.031 319.19 202.996 319.26C181.94 319.986 206.8 335.373 210 341z"/>
<path style="fill:#7f853d; stroke:none;" d="M177 321L180 325L181 321L177 321z"/>
<path style="fill:#233725; stroke:none;" d="M183 321L183 322L187 323L187 322L183 321z"/>
<path style="fill:#8d7229; stroke:none;" d="M192 323L195 321L192 323z"/>
<path style="fill:#4795c8; stroke:none;" d="M175 322L173 325L177 326L175 322z"/>
<path style="fill:#1c5d89; stroke:none;" d="M151 323L152 332C145.39 332.502 141.713 338.479 145.318 344.695C149.305 351.57 158.148 350.629 160 360L162 359L164 366L167 365L168 370L171 369L171 363L172 363C172.564 367.26 175.088 370.883 175.726 375.09C177.011 383.559 173.284 394.317 183 399L189 377C181.119 375.784 175.036 368.365 173 361C179.519 362.017 182.552 367.776 183 374C187.983 374.377 191.315 375.011 195 371C189.796 366.971 187.565 361.467 187 355L186 355C175.339 362.152 166.811 344.442 158 342L158 341C159.771 341.373 161.283 342.256 163 342.667C171.266 344.646 162.686 331.877 164 330C162.01 327.761 161.391 326.775 164 325L164 324L151 323z"/>
<path style="fill:#233725; stroke:none;" d="M187 323L190 326L187 323z"/>
<path style="fill:#8d7229; stroke:none;" d="M209 325L214 325C212.231 322.966 210.769 322.966 209 325M88 338L90 340L94 343L104 342L104 343C99.6574 344.786 90.66 349.961 100 352L99 369L98 369L96 367L95 371L94 371L93 368C87.5245 370.806 85.7515 376.219 85 382C95.8442 377.315 107.839 373.648 114 386L112 388L109 387L111 392L107 394L104 392L104 402C109.872 400.083 112.84 400.084 117 405L124 401L125 401L125 392L122 393L118.478 360L129 333L128 333L128 338L127 338L126 331L125 331L125 338L120 334L116 334L115 334L111 336C113.009 329.973 104.97 325.151 104 330L103 330L102 327L99 328L102 324C96.1979 326.706 90.7057 332.198 88 338z"/>
<path style="fill:#efebe7; stroke:none;" d="M186 324L186 326L188 326L188 324L186 324z"/>
<path style="fill:#233725; stroke:none;" d="M217 324L218 329L226 330L224 334L223 334C219.094 329.531 214.386 333.04 214 338L219 338L219 343L218 344L216 343L221 352L217 347L216 347C218.711 356.129 226.573 363.058 231.561 371C238.629 382.254 240.357 393.626 252 402L252 394L244 384L234 368L237 367C239.191 371.978 241.901 374.994 247 377L237 359L239 355L226 343L228 339L226 336L233 334C229.912 327.681 223.554 325.371 217 324z"/>
<path style="fill:#7f853d; stroke:none;" d="M219.667 324.333L220.333 324.667L219.667 324.333z"/>
<path style="fill:#4795c8; stroke:none;" d="M161 325C162.637 335.294 177.89 340.974 187 341C178.567 331.731 174.513 325.279 161 325M193 340L193 344L193 340L194 340L192 347L193 355L178 342C178.926 346.968 178.765 351.075 184 353L183 344L184 344C186.525 357.4 188.062 373.847 205 374L207 392L211 391L214 398L204 398C205.004 403.901 210.995 415.764 218.815 410.381C223.066 407.455 223.746 401.687 227 398C224.803 388.83 221.111 375.792 215.672 368.015C208.086 357.166 195.33 347.432 198 333L195 329L189 325C183.016 329.371 190.547 335.458 193 340z"/>
<path style="fill:#7f853d; stroke:none;" d="M150 326L150 331L145 335L146 335L151 332L150 326z"/>
<path style="fill:#1c5d89; stroke:none;" d="M190 326L192 329L190 326z"/>
<path style="fill:#233725; stroke:none;" d="M141 327L142 340L139 343L135 338C132.725 339.422 130.426 340.3 130 337L129 337L119 357C124.309 356.735 126.668 358.956 128 364L118 365L118 366L130 366L129 353L135 357L147 361L147 363C143.042 365.404 142.368 368.537 142 373L143 373L144 369L145 369C145.728 372.351 146.597 373.412 150 374C150.247 377.297 152.672 380.799 151.782 384.015C147.645 398.946 134.663 396.279 130 384L128 386L124 383L122 393L126 388L127 388C129.459 394.876 135.842 399.245 143 398L144 410L147 410C146.088 416.196 144.748 423.241 138 425L137 408L128 407C129.099 410.321 130.59 410.737 134 411L132 423L131 423L130 419L129 419L127 428L132 441L134 439L135 439L135 443L136 443L137 440L138 440L138 444L135 444L135 448L139 448L137 457L133 458L134 463L135 463L135 460L140 460L144 479L140 478L140 480C130.106 476.115 129.006 466.558 129 457L128 457L132 485L133 485L133 483L134 483L134 488L136 485L140 485L137 496L145.779 525.089L149.879 538.397L161 540L190 540L189 521L191 504L188 505L195 486C189.659 486 196.499 478.636 195.5 476C194.787 474.118 192.537 473.004 192.167 471C191.503 467.407 194.781 461.542 195.667 458C198.186 447.923 202 436.375 202 426L201 426L198 441L197 441L198 431L197 431C194.417 442.165 191.749 452.989 185.846 462.985C183.98 466.145 181.493 471.565 177.071 471.34C170.824 471.021 166.515 462.06 165.155 457C161.131 442.023 162.388 426.964 159.737 412C158.606 405.618 154.072 400.728 155 394L161 395L162 391C182.119 406.718 176 430.501 176 453L177 453L178.576 426L180.603 416.603L194 414L199 402L203 403L204 403L203 395C197.259 398.223 193.762 408.517 186.91 409.574C172.611 411.781 179.414 391.147 167 391C167.149 386.41 167.923 383.56 173 384L159.208 365L154.375 350.472L146.417 345.565L143 333L145 328L141 327z"/>
<path style="fill:#7f853d; stroke:none;" d="M217 327L216 332L221 332L221 331L219 331L219 330L222 330L222 329L217 327z"/>
<path style="fill:#beb1aa; stroke:none;" d="M7 328C9.33243 338.959 27.0572 334.647 21 349L15 348L15 349L19 349C19.2716 354.052 17.749 356.675 14 360L22 367L25 364C23.9192 360.764 21.5381 357.602 22.2824 354.035C23.4497 348.442 28.5018 343.654 24.6821 337.619C20.5391 331.073 12.1844 333.131 7 328z"/>
<path style="fill:#233725; stroke:none;" d="M151 329L151 332L152 332L151 329z"/>
<path style="fill:#beb1aa; stroke:none;" d="M219 330L219 331L223 334L224 334L226 330L219 330z"/>
<path style="fill:#233725; stroke:none;" d="M162 331C166.468 338.073 167.676 342.525 158 341L158 342L172.289 354.062L186 357L186 353C177.679 354.927 176.004 351.309 169 349L174 338L162 331z"/>
<path style="fill:#1c5d89; stroke:none;" d="M180 331C181.148 335.394 182.869 338.014 187 340L187 341C176.744 340.908 172.118 336.446 169 349C174.674 352.029 176.884 354.794 184 354L184 353C179.301 350.364 179.184 346.899 178 342L193 355L193 346L185 343L185 342L193 340L192 336L180 331z"/>
<path style="fill:#efebe7; stroke:none;" d="M199 331L201 338L202 338L199 331z"/>
<path style="fill:#8d7229; stroke:none;" d="M202 334L202 336L204 334L202 334z"/>
<path style="fill:#1c5d89; stroke:none;" d="M6 336L6 339C9.69255 339.214 11.7574 338.616 13 335L6 336z"/>
<path style="fill:#7f853d; stroke:none;" d="M13 338L19 338C16.8569 335.502 13.8853 333.89 13 338z"/>
<path style="fill:#8d7229; stroke:none;" d="M131 335L130 340L134 340L135 337L131 335z"/>
<path style="fill:#1c5d89; stroke:none;" d="M197 335L199 347L200 347L199 335L197 335M203 335L207 351L208 351L208 346L209 346L209 348L210 348L203 335z"/>
<path style="fill:#efebe7; stroke:none;" d="M204 335L209 345C211.518 340.211 208.488 336.834 204 335z"/>
<path style="fill:#7f853d; stroke:none;" d="M0 339L0 340L7 338L0 339z"/>
<path style="fill:#4795c8; stroke:none;" d="M11 338L11 339L21 339L11 338z"/>
<path style="fill:#8d7229; stroke:none;" d="M141 338L140 342L141 342L141 338z"/>
<path style="fill:#233725; stroke:none;" d="M0 340L0 344L8 339L0 340z"/>
<path style="fill:#beb1aa; stroke:none;" d="M0 346L13 339L0 346z"/>
<path style="fill:#1c5d89; stroke:none;" d="M23 342L23 339C19.2461 339.031 14.6236 338.937 11.4344 341.279C9.2837 342.858 8.5083 347.213 12.1481 347.404C16.0452 347.608 19.342 343.081 23 342z"/>
<path style="fill:#233725; stroke:none;" d="M198 339C199.242 347.407 203.935 355.603 213 357L198 339M185 342L185 343L194 347L194 340L193 340L193 344L191 340L185 342z"/>
<path style="fill:#7f853d; stroke:none;" d="M211 340L210 344L214 341L215 344L219 343L211 340z"/>
<path style="fill:#8d7229; stroke:none;" d="M237 340L237 342L239 342L239 340L237 340z"/>
<path style="fill:#beb1aa; stroke:none;" d="M213 341L215 350L216 350L217 346L213 341z"/>
<path style="fill:#1c5d89; stroke:none;" d="M3 342L3 343L6 343L3 342z"/>
<path style="fill:#7f853d; stroke:none;" d="M19 342L19 343L23 343L19 342z"/>
<path style="fill:#efebe7; stroke:none;" d="M23 342L15 348L21 349L23 342z"/>
<path style="fill:#4795c8; stroke:none;" d="M8 343L4 345L1 354L2 354L9 349L7 353L11 352L8 343z"/>
<path style="fill:#efebe7; stroke:none;" d="M4 344L4 345L8 345L4 344z"/>
<path style="fill:#1c5d89; stroke:none;" d="M183 344L186 353L183 344z"/>
<path style="fill:#beb1aa; stroke:none;" d="M207.333 344.667L207.667 345.333L207.333 344.667z"/>
<path style="fill:#4795c8; stroke:none;" d="M210 344L214 353L218 356L219 356L217 349L214 351L210 344z"/>
<path style="fill:#233725; stroke:none;" d="M211 344L214 348L211 344z"/>
<path style="fill:#1c5d89; stroke:none;" d="M0 365L6 365L6 366L4 371L8 371L6 378L5 378L5 375L4 375L0 393C7.1376 391.885 7.96873 385.016 10 379L14 380C13.5727 375.467 13.7812 372.547 19 373L15 371L16 350L7 353L9 349L2 354L1 354L4 345C-2.53912 347.629 0 359.034 0 365M226 345L228 350L226 349L226 350L229 353L229 351L232 353L226 345z"/>
<path style="fill:#8d7229; stroke:none;" d="M236 347L239 346L236 347z"/>
<path style="fill:#4795c8; stroke:none;" d="M208 346C208.317 350.724 209.708 353.799 214 356L208 346z"/>
<path style="fill:#7f853d; stroke:none;" d="M215 346L215 347L219 348L219 347L215 346z"/>
<path style="fill:#233725; stroke:none;" d="M237 346C239.006 356.161 247.729 370.181 259 371C253.217 360.174 251.221 348.537 237 346z"/>
<path style="fill:#7f853d; stroke:none;" d="M10 351L16 350L13 354L19 349L15 347L10 351z"/>
<path style="fill:#233725; stroke:none;" d="M210 347L215 358L216 358L210 347z"/>
<path style="fill:#1c5d89; stroke:none;" d="M213 348L214 351L215 351L215 348L213 348z"/>
<path style="fill:#beb1aa; stroke:none;" d="M218 348L221 352L218 348z"/>
<path style="fill:#8d7229; stroke:none;" d="M17 352L17 353L19 354L14 355L15 359L17 359L20 352L17 352z"/>
<path style="fill:#4795c8; stroke:none;" d="M156 352C156.731 360.953 160.266 367.365 164.666 374.985C166.392 377.973 169.836 382.251 173 379L174 379C174 386.158 172.434 400.031 177.434 405.671C187.967 417.552 204.451 397.96 204.641 387C204.763 379.984 196.289 372.571 189.558 377.434C183.788 381.602 181.937 392.561 183 399C174.335 392.691 176.869 384.303 175.867 375.09C175.411 370.895 172.918 367.101 172 363L171 363L168 370L167 365L164 366L162 359L160 360L156 352z"/>
<path style="fill:#beb1aa; stroke:none;" d="M197 352C197.615 358.77 202.379 365.171 207 370C208.307 363.232 202.737 355.319 197 352z"/>
<path style="fill:#efebe7; stroke:none;" d="M215 352L221 361L215 352z"/>
<path style="fill:#7f853d; stroke:none;" d="M221 352L221 354L223 354L221 352z"/>
<path style="fill:#233725; stroke:none;" d="M14 354L14 355L19 354L14 354z"/>
<path style="fill:#1c5d89; stroke:none;" d="M129 353L130 366L118 366L119 382L120 382L122 380L122 389L123 389L124 383L130 384C133.548 397.581 146.814 398.756 151.906 385.004C153.36 381.075 150.571 377.833 150 374L145 369L144 369L143 373L142 373L147 363L147 361L135 357C133.901 353.679 132.41 353.263 129 353M204 353L216.94 371L227 398C223.148 400.89 222.757 406.519 218.815 409.639C212.795 414.403 206.631 406.095 205 401L203 403L203 401L199 402L194 414L180.603 416.028L178.576 425L177 453L176 453C176 441.223 180.701 424.402 177.679 413.209C176.782 409.887 173.151 407.855 171.679 404.711C168.844 398.653 168.409 394.469 162 391L161 395L155 394C153.223 401.275 159.043 406.954 159.87 414C161.735 429.873 160.255 446.767 166.399 461.985C172.362 476.755 182.792 470.92 187.961 460C189.664 456.403 191.539 452.742 192.895 449C194.856 443.589 196.157 436.71 197 431L198 431L197 441L198 441L201 426L202 426C201.796 442.673 189.655 460.193 194.606 476C195.532 478.955 190.531 485.254 195 486L188 505L191 504L189 521L190 540C201.657 539.999 205.578 533.08 211.88 523.985C223.274 507.544 228.395 479.736 226.91 460.001C226.415 453.424 222.659 447.617 222 441L216 443L219 425C227.331 422.256 225 410.975 225 404L226 404L224.132 428L232 465L228 464L230 490L229 490L228 486L221.441 507L211 540C214.931 540 222.012 541.362 225.351 538.972C229.435 536.05 230.34 527.526 231.474 523C234.449 511.12 235.554 498.593 245 490L247 506L246 506C245.56 503.355 243.078 499.18 240.702 503.323C238.243 507.611 238.826 514.221 237.904 519C236.524 526.154 233.069 532.759 232 540C244.644 540 259.861 544.548 260 528L262 528L262 540L282 540L282 515L283 515L284 540L290 540L291 517L292 517L292 540L293 540L288 484L289 484L290 490L291 490L290 479L298 489L299 489C298.891 479.093 293.167 469.549 290.709 460.001C289.586 455.638 289.815 451.599 285 450L278 424L277 427L273 424L272 424L273 429L272 429L268 426L263 419C265.387 424.734 270.049 430.25 264 435L265 431L254 411L256 409L265 414L264 409L252 398L255 409L244 413L251 436L246 435L253 444L254 444L253 428L254 428L254 431C260.173 432.007 262.302 438.925 265 444L266 444L266 441L267 441L269 446C273.383 446.43 276.62 447.614 278 452L275 451L287 473L286 473L282 469L287 487L286 487L285 482L281 485C280.802 480.392 281.113 473.666 277 471L277 479L276 479C275.787 473.1 277.574 461.558 269 463L263 451C253.247 454.934 269.316 476.13 272 482L261 465L260 465L260 470L259 470L258 467L257 470L256 470L249 443L248 443L247 447L246 447L244 441C244.377 437.807 244.442 435.417 241 435L241 431L240 431L240 433L239 433L237 409L233 408L233 407L233 398C225.941 394.749 228.21 387.175 225.815 381C222.252 371.815 215.329 366.058 210 358L220 362L217 356L215 358L207 353L204 353M219 354L222 365L224 363L232 372L219 354M227 354L229 359L230 359L231 356L227 354M120 356L118 365L128 364C127.145 358.681 125.007 357.37 120 356M202 356L204 360L205 360L202 356z"/>
<path style="fill:#beb1aa; stroke:none;" d="M210 358C213.115 364.988 221.556 375.85 228 380L222 361L210 358z"/>
<path style="fill:#1c5d89; stroke:none;" d="M237 358L241 363C240.862 359.797 240.06 358.959 237 358z"/>
<path style="fill:#8d7229; stroke:none;" d="M254 358C253.133 362.759 254.691 366.669 259 369L254 358z"/>
<path style="fill:#1c5d89; stroke:none;" d="M205 360L212 375L213 375C211.959 369.141 209.579 363.87 205 360z"/>
<path style="fill:#233725; stroke:none;" d="M173 361C175.774 377.048 190.016 376.732 203 377C198.339 370.644 189.7 373.656 183 374C182.79 367.377 180.143 361.544 173 361z"/>
<path style="fill:#8d7229; stroke:none;" d="M16 363L15 371L21 372L22 372L22 374L23 374L26 365L17 370L18 363L16 363z"/>
<path style="fill:#233725; stroke:none;" d="M223 363L227 370L223 363z"/>
<path style="fill:#bf9a3e; stroke:none;" d="M257 363L257 367L258 367L257 363M18 364L17 370L22 368L21 364L18 364z"/>
<path style="fill:#4795c8; stroke:none;" d="M225 364L235 387L229 379L224 378C226.705 384.101 225.756 395.953 233 398L233 407L233 408L237 409L239 433L240 433L240 431L241 431L241 435C244.303 435.429 244.292 438.029 244 441L246 447L247 447C249.062 442.107 248.799 439.451 246 435L251 436C253.441 425.715 245.012 421.94 244 413L255 409L239.651 388L225 364z"/>
<path style="fill:#233725; stroke:none;" d="M0 365L2 378L0 385L1 385L8 371L4 371L6 366L0 365M243 365L245 370L246 370L243 365z"/>
<path style="fill:#1c5d89; stroke:none;" d="M236 367L234 368L239 372L236 367z"/>
<path style="fill:#8d7229; stroke:none;" d="M60 368L53 373L52 395L63 396L63 392L66 393L65 389L68 390L69 383L82 383L84 374L83 374L82 379L80 376L65 372L64 372L63 375L59 373L60 368z"/>
<path style="fill:#1c5d89; stroke:none;" d="M225 369L227 374L225 369z"/>
<path style="fill:#8d7229; stroke:none;" d="M250 369L264 385L250 369z"/>
<path style="fill:#4795c8; stroke:none;" d="M246 370L247 377L250 376L246 370M236 371L238 375L239 375L240 372L236 371z"/>
<path style="fill:#233725; stroke:none;" d="M14 380L10 379C7.32008 384.763 6.83634 391.058 0 393C0 423.791 -3.07996 456.486 1.20911 487C3.82598 505.617 11.7496 522.571 18 540L19 540L4 453L5 453L14 508L15 508C20.0319 487.575 8.01416 468.378 8 447L10 447L12 454L13 465C19.9675 461.446 23.7362 439.985 19 434L16 437L13 432L16 441L13 439L12 439L9 444L8 444C9.75043 437.771 7.496 422.264 16 423L16 412L7 415L14 391L9 391L16 389C18.2752 385.729 21.9988 377.519 18.9691 373.747C14.5582 368.254 13.54 377.363 14 380z"/>
<path style="fill:#7f853d; stroke:none;" d="M6 373L5 378L6 378L6 373z"/>
<path style="fill:#233725; stroke:none;" d="M119 373L119 379L120 379L121 373L119 373M227 373C227.825 378.283 230.284 384.203 235 387L227 373z"/>
<path style="fill:#1c5d89; stroke:none;" d="M240 373L242 378L243 378L240 373M200 374L200 375L203 377L198 377L198 378C204.662 379.978 205.497 387.839 206 394L203 392L203 399L214 398L211 391L207 392L205 374L200 374z"/>
<path style="fill:#efebe7; stroke:none;" d="M239 374L244 381L239 374z"/>
<path style="fill:#1c5d89; stroke:none;" d="M251 378L255 379L254 375L251 378z"/>
<path style="fill:#7f853d; stroke:none;" d="M254 375L258 381L254 375z"/>
<path style="fill:#1c5d89; stroke:none;" d="M160 376L159 389L160 389C162.376 384.759 164.718 379.334 160 376M208 376L211 389L216 389C215.932 383.236 214.201 377.347 208 376M239 376L240 377L239 376z"/>
<path style="fill:#beb1aa; stroke:none;" d="M243 376L248 383L243 376z"/>
<path style="fill:#1c5d89; stroke:none;" d="M244 376L250 385L244 379L252 390L250 385L254 388C252.682 382.389 249.532 377.922 244 376z"/>
<path style="fill:#233725; stroke:none;" d="M252 377L254 388C254.85 397.932 260.104 404.961 268 411L268 409L272 415L269 414C276.041 426.313 282.494 435.258 285 450C291.054 453.274 290.856 461.898 292.256 468C294.223 476.574 298.354 484.141 300 493L301 493L301 489C308.048 497.739 310.97 512.927 311 524L310 524L304 503L303 503L304 513L301 506L300 506C294.087 514.511 299.917 529.948 300 540L308 540L309 527L310 527L311 540L360 540L359.486 501.304L349.239 484L347 440L329 442C326.52 448.93 317.349 469.475 307 460L306 460L311 477L310 477L299.479 454.83L294.075 434L277.057 404L266 387L269 393L252 377z"/>
<path style="fill:#1c5d89; stroke:none;" d="M0 378L0 381L2 378L0 378z"/>
<path style="fill:#233725; stroke:none;" d="M243 378L244 379L243 378z"/>
<path style="fill:#4795c8; stroke:none;" d="M250 378L252 384L253 384L252 378L250 378z"/>
<path style="fill:#1c5d89; stroke:none;" d="M173 379L171 381L171 382L173 384C167.488 382.746 167.056 386.241 167 391L174 391L173 379z"/>
<path style="fill:#7f853d; stroke:none;" d="M243 379L244 380L243 379z"/>
<path style="fill:#233725; stroke:none;" d="M120 380L120 383L122 383L122 380L120 380z"/>
<path style="fill:#beb1aa; stroke:none;" d="M258 380L264 387L258 380M243 381L248 387L243 381z"/>
<path style="fill:#1c5d89; stroke:none;" d="M233.333 382.667L233.667 383.333L233.333 382.667z"/>
<path style="fill:#efebe7; stroke:none;" d="M248 382L250 385L248 382z"/>
<path style="fill:#beb1aa; stroke:none;" d="M253 382L254 386L255 386L253 382z"/>
<path style="fill:#1c5d89; stroke:none;" d="M242 383L246 386L245 383L242 383M165 384L164 390L165 384z"/>
<path style="fill:#4795c8; stroke:none;" d="M255 384L254 388L255 384z"/>
<path style="fill:#beb1aa; stroke:none;" d="M250 385L253 391L254 391L250 385z"/>
<path style="fill:#7f853d; stroke:none;" d="M264 385L269 393L264 385z"/>
<path style="fill:#8d7229; stroke:none;" d="M17 386L16 389C12.5452 387.658 11.4025 388.194 9 391L14 391L7 415L16 412L13 432L18 437L19.6998 414L20 387L17 386z"/>
<path style="fill:#4795c8; stroke:none;" d="M245 386L248 390L249 386L245 386z"/>
<path style="fill:#1c5d89; stroke:none;" d="M126 388L124 416L125 416L128 407L137 408L138 425C145.179 423.948 146.451 416.294 147 410L144 410L143 398C135.155 398.737 131.001 393.364 126 388M231 388L234 394L235 394L231 388z"/>
<path style="fill:#beb1aa; stroke:none;" d="M248 388L252 394L248 388z"/>
<path style="fill:#233725; stroke:none;" d="M204 389L205 394L206 394L206 389L204 389z"/>
<path style="fill:#4795c8; stroke:none;" d="M251 390L254 393L255 390L251 390z"/>
<path style="fill:#efebe7; stroke:none;" d="M252 392L255 396L252 392z"/>
<path style="fill:#233725; stroke:none;" d="M124 393L124 398L125 398L124 393z"/>
<path style="fill:#4795c8; stroke:none;" d="M252 394L251 397L256 395L252 394z"/>
<path style="fill:#1c5d89; stroke:none;" d="M236 395L245 403L236 395z"/>
<path style="fill:#beb1aa; stroke:none;" d="M275 395L274 396L278 407L281 407L292.574 428L300 452L301 452L295 431L300 432L299 425L300 424L307 431L308 431L311 424L335.83 418.471L360 439L360 418L302 411C300.011 404.857 293.873 406.404 289.039 403.825C283.902 401.084 280.723 397.154 275 395M252 396C253.812 401.375 257.172 406.082 263 407L252 396z"/>
<path style="fill:#7f853d; stroke:none;" d="M274 399L279 405L274 399M124 401L124 405L125 405L124 401z"/>
<path style="fill:#1c5d89; stroke:none;" d="M151 404C151.088 414.624 154.044 426.595 159 436L160 436L155 404L151 404z"/>
<path style="fill:#4795c8; stroke:none;" d="M225 404C225 411.602 226.795 420.8 219 425L219 433C226.061 426.946 230.009 412.361 225 404M260 408L264 409L265 414L262 413L268 426L272 429L273 429L272 424L273 424L277 427C276.211 419.913 270.932 416.544 266 412L268 412L264 406L260 408z"/>
<path style="fill:#efebe7; stroke:none;" d="M280 407L293 432L294 432C292.473 423.436 286.388 412.855 280 407z"/>
<path style="fill:#233725; stroke:none;" d="M256 409L263 419L264 419C262.863 414.219 260.44 411.116 256 409z"/>
<path style="fill:#1c5d89; stroke:none;" d="M268 409L266 413L272 415L268 409z"/>
<path style="fill:#7f853d; stroke:none;" d="M280 409L281 410L280 409z"/>
<path style="fill:#8d7229; stroke:none;" d="M127 410L128 422L129 422L129 419L130 419L130 421L131 421L129 410L127 410z"/>
<path style="fill:#4795c8; stroke:none;" d="M123 411L123 417L124 417L123 411z"/>
<path style="fill:#1c5d89; stroke:none;" d="M130 411L131 423L132 423L134 411L130 411z"/>
<path style="fill:#4795c8; stroke:none;" d="M254 411L265 431L264 435C273.297 430.125 261.496 412.167 254 411z"/>
<path style="fill:#bf9a3e; stroke:none;" d="M311 424L308 431L307 431L300 424L299 425L300 432L295 431C296.53 438.393 297.939 451.284 307 452L309 439L313 431L314 431L316 437L324 420L348 425C342.434 419.379 332 415.734 324.174 418.564C318.875 420.48 317.224 423.927 311 424z"/>
<path style="fill:#7f853d; stroke:none;" d="M324 420L316 437L314 431L313 431L309 439L307 452L302 450L301 450L303 458C307.686 454.908 313.076 455.304 316.96 450.941C327.03 439.631 329.932 419.821 350 429C347.23 420.918 331.213 418.666 324 420M11 422L11 438C14.0802 433.527 18.7573 423.296 11 422z"/>
<path style="fill:#1c5d89; stroke:none;" d="M10 423L8 444L9 444C11.6804 438.43 12.4278 428.786 10 423z"/>
<path style="fill:#8d7229; stroke:none;" d="M328 432L348 430L353 436C353 453.408 350.405 474.452 359 490C362.092 482.63 356.504 477.839 355.264 470.999C353.065 458.873 360.273 446.199 354.227 434.044C349.47 424.48 334.485 423.433 328 432M126 427L126 435L129 435L130 448L128 447L128 457L129 457C130.178 452.447 129.938 444.683 135 443L135 439L134 439L132 441L126 427z"/>
<path style="fill:#233725; stroke:none;" d="M223 428L216 443L222 441C222.537 451.49 227.439 460.075 226.961 471C226.296 486.169 221.666 505.598 214.447 519C210.415 526.485 203.515 532.324 200 540L210.262 538.972L215.59 525L228 486L229 490L230 490L228 464L232 465C231.241 455.464 229.341 435.054 223 428M253 428L254 444L253 444L249 440L256 470L257 470L258 467L259 470L260 470L260 465L261 465C262.729 470.464 266.346 479.982 272 482C270.052 474.986 253.961 456.702 263 451L263 450C254.411 445.289 256.715 435.727 253 428M269 429L273 434L269 429z"/>
<path style="fill:#1c5d89; stroke:none;" d="M327 432C326.873 439.556 323.758 451.254 317.694 456.361C313.931 459.531 306.001 457.326 305 462L306 462L307 460C308.695 463.119 315.218 462.532 318 460.667C324.541 456.281 327.714 449.405 329 442L347 440C347.844 447.149 349.075 455.049 349.454 462.09C350.2 475.932 344.487 492.249 360 500L353.495 475L353 436L348 430L327 432z"/>
<path style="fill:#4795c8; stroke:none;" d="M254 431C255.242 437.403 255.149 449.476 264 448L269 463C277.328 462.73 275.361 472.997 276 479L277 479L277 471L281 485L285 482L286 487L287 487C286.634 469.828 274.591 455.231 267 441L266 441L266 444C262.634 438.912 260.724 431.536 254 431z"/>
<path style="fill:#8d7229; stroke:none;" d="M325 433C323.451 440.215 320.064 447.716 314.42 452.682C310.485 456.145 305.059 453.899 304 460C319.182 456.91 326.269 449.769 327 433L325 433M13 434L11 440L16 441L13 434z"/>
<path style="fill:#1c5d89; stroke:none;" d="M126 435L126 439L128 438L129 448L130 448L129 435L126 435z"/>
<path style="fill:#4795c8; stroke:none;" d="M272 435L278 443L277 436L272 435z"/>
<path style="fill:#233725; stroke:none;" d="M127 438L127 443L128 443L127 438z"/>
<path style="fill:#7f853d; stroke:none;" d="M356 438C356 452.963 353.544 467.02 359 481L360 481L360 439L356 438z"/>
<path style="fill:#bf9a3e; stroke:none;" d="M137 440L136 443C131.496 443.208 131.133 445.91 131 450L132 450L138 444L137 440z"/>
<path style="fill:#1c5d89; stroke:none;" d="M134 445L131 461L130 461L130 455L129 455C129 464.814 128.573 477.015 140 480L140 478L144 479L140 460C137.073 460.29 135.611 459.895 135 463L134 463L133 458L137 457L139 448L134 445z"/>
<path style="fill:#233725; stroke:none;" d="M270 445L278 452C277.219 447.486 274.086 446.379 270 445z"/>
<path style="fill:#8d7229; stroke:none;" d="M8 447L8 457L10 457L10 447L8 447z"/>
<path style="fill:#7f853d; stroke:none;" d="M130 450L130 461L131 461L132 450L130 450M298.333 451.667L298.667 452.333L298.333 451.667z"/>
<path style="fill:#efebe7; stroke:none;" d="M299 451L307 469L308 469C307.325 462.782 303.432 455.385 299 451z"/>
<path style="fill:#1c5d89; stroke:none;" d="M4 453C4 475.635 10.1069 496.454 16 518L17 518L16 506L15 506L15 508L14 508L8.28549 473L4 453M10 454L10 471L11 471L16 468L17 463L13 465L12 454L10 454z"/>
<path style="fill:#8d7229; stroke:none;" d="M18 454L18 458L19 458L18 454z"/>
<path style="fill:#beb1aa; stroke:none;" d="M299 454L301 457L299 454z"/>
<path style="fill:#233725; stroke:none;" d="M277 458L286 473L287 473C285.329 467.201 282.468 460.949 277 458z"/>
<path style="fill:#1c5d89; stroke:none;" d="M159 460C153.911 477.21 155 500.073 155 518L156 518L160 486L161 486L162 494L163 494L167 474L165 476L164 476L162 475L163 471L161 460L159 460z"/>
<path style="fill:#7f853d; stroke:none;" d="M17 461L17 468L18 468L17 461z"/>
<path style="fill:#beb1aa; stroke:none;" d="M303 461L304 462L303 461z"/>
<path style="fill:#4795c8; stroke:none;" d="M225 462L220 487L221 487C222.957 479.679 228.102 469.463 225 462M286 462L291 469L286 462z"/>
<path style="fill:#7f853d; stroke:none;" d="M304 463L305 464L304 463z"/>
<path style="fill:#8d7229; stroke:none;" d="M16 464L15 488L16 488L16 464z"/>
<path style="fill:#7f853d; stroke:none;" d="M305 465L306 466L305 465z"/>
<path style="fill:#beb1aa; stroke:none;" d="M308 467L309 474L310 474L308 467z"/>
<path style="fill:#7f853d; stroke:none;" d="M14 486L15 486L15 468C8.43886 470.179 11.9171 481.084 14 486z"/>
<path style="fill:#8d7229; stroke:none;" d="M32 469L24 510C18.284 506.491 21.1009 498.951 20 493L19 493L19 499L18 499L18 494L17 494L19 526L20 526L23 513L27 514L28 518L29 518L34 508L33 522L32 520L31 520L32 526L43 527L44 539L46 539L46 527L52 528L50 540L80 540L91 538L88 539L87 527L84 528L80 522L82 528C77.1141 522.038 76.005 516.544 76 509L69 511L61 499L59 499L60 510L58 510L54.2052 499.971L57 482L56 482L56 487L53 483L52 483L52 488L51 488L50 485L49 488L47 486L43 489L42 489L42 486L41 486L40 490C48.5585 497.771 48.5947 510.201 50 521L49 521L46 507L38 512L33 490L33 481L34 481L36 485L37 485L35 469L32 469z"/>
<path style="fill:#7f853d; stroke:none;" d="M310 473L310 477L311 477L310 473z"/>
<path style="fill:#1c5d89; stroke:none;" d="M0 478L0.463735 510L10 540L18 540L4.01543 499L0 478z"/>
<path style="fill:#8d7229; stroke:none;" d="M131 479L130 491L121 497L122 500L121 505L120 505L117 499L116 499L118 505L116 504L116 505L121.512 515.075L120 528L119 528L108 512L108 524L105 522C101.202 528.78 102.682 533.031 105 540L150 540L134 483L133 483L133 485L132 485L131 479z"/>
<path style="fill:#4795c8; stroke:none;" d="M290 479C292.078 487.209 289.465 505.18 299 509L301 508L302 508C301.993 498.038 300.597 483.33 290 479z"/>
<path style="fill:#233725; stroke:none;" d="M288 484L293 540L295 540L294 530L295 530L295 532L296 532C296 518.223 296.293 495.625 288 484z"/>
<path style="fill:#1c5d89; stroke:none;" d="M136 485L136 494L140 485L136 485z"/>
<path style="fill:#8d7229; stroke:none;" d="M301 489L302 504L310 524L311 524C310.993 513.879 308.976 495.966 301 489z"/>
<path style="fill:#233725; stroke:none;" d="M243 490C234.321 504.982 230.619 523.078 226 540L232 540C233.72 532.563 236.984 525.535 238.245 518C238.962 513.719 238.419 506.968 241.16 503.377C243.541 500.256 245.361 503.9 246 506L247 506L245 490L243 490M274 491C272.43 496.779 275.684 500.833 281 503L274 491z"/>
<path style="fill:#8d7229; stroke:none;" d="M305 491L307 499L308 499L305 491z"/>
<path style="fill:#beb1aa; stroke:none;" d="M308 497L309 504L310 504L308 497z"/>
<path style="fill:#8d7229; stroke:none;" d="M314 498L314 504L315 504L314 498z"/>
<path style="fill:#bf9a3e; stroke:none;" d="M311 501L311 510L312 510L311 503L314 504L311 501z"/>
<path style="fill:#1c5d89; stroke:none;" d="M294 503L295 519L296 519L294 503z"/>
<path style="fill:#7f853d; stroke:none;" d="M302.333 504.667L302.667 505.333L302.333 504.667z"/>
<path style="fill:#4795c8; stroke:none;" d="M279 505L278 525L279 525L279 505z"/>
<path style="fill:#beb1aa; stroke:none;" d="M302 506L302 513L303 513L302 506z"/>
<path style="fill:#bf9a3e; stroke:none;" d="M33 508L29 518L28 518L27 514L23 513L19 531L20 531L20 529L21 529L19 540L50 540L52 528L46 527L46 539L44 539L43 527L32 526L31 520L32 520L33 522C34.557 517.088 35.7933 512.664 33 508z"/>
<path style="fill:#7f853d; stroke:none;" d="M295 508L296 514L297 514L297 508L295 508z"/>
<path style="fill:#233725; stroke:none;" d="M0 510L0 535L5 533L6 533L0 510z"/>
<path style="fill:#8d7229; stroke:none;" d="M303 510L303 513L304 513L303 510z"/>
<path style="fill:#beb1aa; stroke:none;" d="M296 514C296.003 517.987 295.402 521.668 299 524L298 514L296 514z"/>
<path style="fill:#233725; stroke:none;" d="M282 515L282 540L284 540C284 532.443 285.989 521.66 282 515z"/>
<path style="fill:#4795c8; stroke:none;" d="M291 517L290 540L292 540L291 517z"/>
<path style="fill:#beb1aa; stroke:none;" d="M291 519L291 528L292 528L291 519z"/>
<path style="fill:#1c5d89; stroke:none;" d="M296 523L296 532L295 532L295 530L294 530L295 540L297 540L296 523z"/>
<path style="fill:#4795c8; stroke:none;" d="M297 524L297 540L298 540L297 524z"/>
<path style="fill:#efebe7; stroke:none;" d="M298 524L298 540L299 540L298 524z"/>
<path style="fill:#8d7229; stroke:none;" d="M309 527L308 540L311 540L309 527z"/>
<path style="fill:#233725; stroke:none;" d="M260 528L258 540L262 540L262 528L260 528z"/>
<path style="fill:#8d7229; stroke:none;" d="M18 529L19 539L20 539L21 529L20 529L18 529z"/>
<path style="fill:#7f853d; stroke:none;" d="M4 531L0 540L10 540L8 532L4 531z"/>
<path style="fill:#8d7229; stroke:none;" d="M299 532L299 540L300 540L299 532z"/>
</svg>
