<?xml version="1.0" standalone="yes"?>
<svg width="520" height="346" xmlns="http://www.w3.org/2000/svg">
<path style="fill:#1c2b12; stroke:none;" d="M0 0L0 104L11 101L10 103L16 104C16.8972 115.25 27.8961 106.417 34 106.198C39.8069 105.989 44.057 108.034 42 114C45.0126 116.09 56.3629 124.532 59.1644 117.678C60.437 114.565 57.7098 111.379 59.696 108.304C62.241 104.364 68.2748 100.856 72 98C73.2149 106.264 87.2586 104 94 104L91 110L83 107L85 112L77 113L77 117L102.701 115.53L114.001 110.109L128 112L128 108L138 111C135.404 105.044 133.809 96.3012 127 94C126.31 100.349 122.823 104.514 117 107L114 104L113 96L116 99L128.958 90.9969L138.972 94.8634L152 83C152.004 87.8494 151.39 92.0637 157 93L154 89C161.728 84.785 174.199 87.6626 176 76C183.761 76.0703 185.803 81.1143 192.464 83.1466C198.607 85.0211 201.151 79.5451 206.039 79.108C208.366 78.9 210.715 81.2759 213.015 81.7184C223.098 83.6586 237.458 81.8633 236 70L240 70C240.066 72.0102 239.776 75.434 242.228 76.2531C244.962 77.166 248.519 73.5962 251.004 72.7678C256.916 70.7964 263.834 71.5603 270.025 69.9406C273.846 68.9408 277.403 66.087 280 70C287.677 68.5416 298.99 66.8195 305.946 63.2361C311.322 60.4669 315.426 53.9243 321.3 51.9822C326.353 50.3116 334.456 52.3863 340 51.8295C348.117 51.0142 358.097 46.9647 365.83 44.179C381.381 38.5773 399.292 26.1512 416 26L416 22C423.06 20.8605 441.473 14.9398 440 7C444.827 5.37152 447.689 1.88367 451 8L472 1L472 0L314 0L275 0L261 2L269 1L264 5L264 8C259.275 8.15384 256.785 9.07703 256 14L248 16L254 0L0 0z"/>
<path style="fill:#5d3d0e; stroke:none;" d="M254 0L248 16L256 14C257.27 9.62296 259.546 8.33698 264 8L264 5L269 1L254 0z"/>
<path style="fill:#6e8a14; stroke:none;" d="M416 22L416 26C389.556 26.0758 363.219 48.2157 338 54L342 62C328.597 64.7531 316.105 60.4532 304 65.2392C299.602 66.9782 294.664 66.9892 293 72L267 72L262 76L252 74L254 76L253 80L238 78.3927L210 84C208.643 89.1891 204.981 90.3131 200 91L200 94L192 92L191 92L189 95L189 91C172.671 86.6907 180.69 97.4975 181 107C176.577 107.349 174.925 109.086 173 113L178 114C182.55 110.553 198.13 109.349 204 110L200 124L195 124L195 129L191 129L191 130C196.078 129.779 202.499 129.435 201 123C208.031 123.186 217.917 124.716 215 114L244 115C248.399 107.446 258.284 111.533 265 113L277 110L275 119L282 120L283 115L279 115L279 112C284.747 111.013 286.856 105.205 288 100L280 109L280 104L276 104C273.548 108.505 268.915 109.687 264 110C262.32 104.258 252.944 106.315 248 106L242 111L243 106L240 100L221 102L224 105L216 106L218 101C213.366 100.888 210.252 100.291 208 96L216 93.0401L227.827 97.7353L241.261 86.9151L253 90L254 84L273 88C270.545 92.4517 266.661 91.9964 262 92L262 93C269.135 92.9992 278 93.312 284.91 91.5856C294.851 89.1022 300.678 82.7904 312 85L312 72L318 71L318 77C325.716 77.0051 337.247 79.7068 338 69L350 69L350 74L354 72C354.741 75.4571 357.259 75.4572 358 72L368 77L368 69L375 67L376 67L379 78L351 84L351 85L400 75L400 72L424 67L424 64C444.157 64 462.853 48.0684 483 52C480.333 53.1609 470.115 59.1984 479.059 60.5533C484.895 61.4374 491.888 57.745 498 58C492.445 62.201 483.802 65.3865 477 64L480 67L480 69L464 72L464 74C476.314 76.7925 489.888 85.689 496 68L520 67L520 0L472 0.553253L454 8.9946L429.166 15.6165L416 22z"/>
<path style="fill:#5d3d0e; stroke:none;" d="M440 7L440 13L460 5L451 8C448.728 1.15878 444.343 4.62909 440 7M30 16C29.4149 18.9547 29.0266 22.0519 26.6867 24.1967C25.176 25.5815 20.3955 26.7444 20.3457 29.169C20.2104 35.7502 30.7607 31.0945 32 27L40 25L38 23L38 22L42 13L30 16M128 32L134 32L135 27L137 27C139.052 30.1014 140.899 29.3136 142 26L139 25L146 16C138.589 16.2426 128.583 24.3255 128 32M280 70C278.808 64.4384 273.603 68.981 270 69.7778C263.733 71.1638 255.915 70.5659 250 72.6111C247.866 73.3489 244.358 77.1272 242.083 76.1667C239.765 75.1876 240.042 72.0102 240 70L236 70L237 78L253 80L252 74L262 76L267 72L293 72C301.009 57.1911 321.807 66.6513 334 64C332.768 54.6212 341.951 53.6992 349 51L320.464 51.8719L304.981 63.2361L280 70z"/>
<path style="fill:#8da121; stroke:none;" d="M424 64L424 67L400 72L400 75L367 83.5108L338 87.8881L300 96C298.308 90.5672 293.252 89.2441 288 89L288 90C292.927 90.7313 296.748 93.5739 299 98L293 98L293 99L304 101L305 105L298.75 119.667L307 122L306 125L309 125L308 128L318 128L318 120L312 118L312 117L321 114L344 121L344 117L350 116L352 107L348 107L348 104L352 104L352 100L355 100L355 96L347 101C347.823 90.5892 349.526 86.6707 360 89L360 93L392 89C393.696 94.105 400.239 94.8812 405 96L405 92L408 92L408 98L424 99L424 88L427 88L427 92L432 92L429 90L429 83L480 80L480 79L464 74L464 72L480 69L480 67L477 64C483.052 66.105 493.551 62.7408 498 58C490.952 57.3706 465.564 62.7489 483 52C463.603 46.6667 443.543 63.9979 424 64z"/>
<path style="fill:#1c2b12; stroke:none;" d="M342 62C339.697 48.4317 325.66 67.0556 342 62z"/>
<path style="fill:#5d3d0e; stroke:none;" d="M375 67L368 69L368 77L358 72C356.444 74.3259 355.556 74.3258 354 72L350 75C354.965 76.182 360.278 75.0635 363 80L379 78C378.983 73.2503 378.792 70.1582 375 67z"/>
<path style="fill:#8da121; stroke:none;" d="M496 68C493.353 72.6328 488.175 78.4446 483 80L483 81C485.276 81.7653 491.467 83.4857 488 86L488 87L493 91L500 92L500 88L520 85L520 67L496 68z"/>
<path style="fill:#1c2b12; stroke:none;" d="M338 69C336.596 79.014 325.619 77.0008 318 77L318 71L312 72C312.163 77.5201 313.516 83.0902 320 82L320 86L316 86C316.862 91.1669 320.402 91.3525 325 89.9066C337.612 85.9407 350.295 84.4665 363 81C361.6 72.6092 350.763 78.8718 350 69L338 69z"/>
<path style="fill:#5d3d0e; stroke:none;" d="M176 76C172.658 87.897 161.28 83.1848 154 89L157 93C151.902 91.4525 152.017 87.7829 152 83L138.972 94.169L128.958 90.5316L116 99L113 96L114 104L117 107C123.507 105.293 126.645 100.558 127 94L138 111L128 108L128 112L111.039 110.429L86 118L86 120L122 113.325L149 108L151 102C157.946 106.865 163.761 101.377 164 94L176 94C172.59 101.506 158.077 105.096 164 115L181 107C180.879 96.8757 173.321 88.3904 189 91L189 95L191 92L192 92L200 94L200 91C205.194 90.5711 209.169 89.653 210 84L234 81L215.001 81.777L206.039 78.5949L195.09 83.1559L176 76M310 76L312 85C306.04 83.3613 297.669 84.6079 292 87L292 89C300.284 92.5185 316.355 93.5554 325 91L325 90C320.451 90.7914 317.473 90.8487 316 86L320 86L320 82L310 76z"/>
<path style="fill:#d9c294; stroke:none;" d="M429 83L429 90L437 88L435 102L440 101L440 107L445 107L447 96L442 96L443 89C436.504 87.9857 436.669 84.7141 440 80L429 83z"/>
<path style="fill:#f9e9c8; stroke:none;" d="M444 89L444 83L451 83L451 80C447.22 80 442.49 79.2965 439.149 81.4337C432.753 85.5245 439.703 88.8601 444 89z"/>
<path style="fill:#e9a65c; stroke:none;" d="M451 80L451 83L444 83L442 96L447 96L447 101L450 96L454 96C454 110.581 458.602 108.224 470 104L470 108L472 108L472 96L456 100C458.211 97.5959 462.338 94.9468 459 92L474 80L451 80z"/>
<path style="fill:#d9c294; stroke:none;" d="M459 92C461.571 95.4728 457.726 96.9899 456 100L472 96L472 108L469 108C469.587 111.403 470.649 112.272 474 113C475.288 106.06 474.381 98.3421 483 97C484.968 90.6935 486.93 76.3476 475.34 80.5131C472.55 81.5157 471.145 84.5154 468.522 85.8557C464.124 88.1026 461.194 86.8293 459 92z"/>
<path style="fill:#e9a65c; stroke:none;" d="M483 81L485 86L491 86L483 81z"/>
<path style="fill:#1c2b12; stroke:none;" d="M254 84L253 90L240 86L240 97C243.585 96.7171 268.225 93.317 262.954 86.7415C261.493 84.9192 257.967 85.1635 256 84L254 84z"/>
<path style="fill:#6e8a14; stroke:none;" d="M296 91L296 92L300 96C315.921 95.9983 334.735 90.5223 350 86C339.81 81.7243 330.411 89.7734 321.001 91.6929C314.056 93.1094 303.356 91.2955 296 91z"/>
<path style="fill:#a1722d; stroke:none;" d="M486 85L476 114L482 110L482 120L483 120L483 114L492 115L492 112L488 112C486.634 108.116 483.816 108.093 480 108L480 104L486 104L488 91L496 92L496 91L488 85L486 85z"/>
<path style="fill:#6e8a14; stroke:none;" d="M500 88L500 92L496 91C497.773 97.3621 505.513 106.506 512 108L512 112L520 114L520 85L500 88z"/>
<path style="fill:#d9c294; stroke:none;" d="M347 101L352 96L355 96L355 99L356 99L360 93L360 89C349.238 85.1882 347.447 90.6004 347 101z"/>
<path style="fill:#5d3d0e; stroke:none;" d="M237 88C234.871 92.9014 229.459 99.8403 223.208 97.3966C220.136 96.1954 218.704 92.7221 215.089 92.4915C212.42 92.3213 210.219 94.8414 208 96C209.556 100.926 213.336 100.958 218 101L216 106C219.412 107.029 221.814 108.237 224 105L221 102C226.998 101.979 239.395 102.057 243 97L240 88L237 88M264 88L262 91L262 92C266.525 91.9995 271.346 92.9831 273 88L264 88z"/>
<path style="fill:#a1722d; stroke:none;" d="M424 88L424 99L425 99L425 96L432 98L431 104L434 103C431.494 106.719 429.085 104.569 428 101L426 101C426.905 108.888 434.59 109.926 432 119L440 118L440 101L435 102L437 88L427 92L427 88L424 88z"/>
<path style="fill:#e9a65c; stroke:none;" d="M357 93L352 100L352 104L348 104L348 107C357.557 106.133 371.706 105.565 374 95C381.55 95.7516 391.168 100.215 392 89L357 93M485 89L483 97L484 97L485 89z"/>
<path style="fill:#8da121; stroke:none;" d="M179 96L184 90C180.089 90.6517 179.3 92.1356 179 96z"/>
<path style="fill:#d9c294; stroke:none;" d="M286 91L286 93L299 98C297.146 91.9935 291.875 89.6664 286 91z"/>
<path style="fill:#5d3d0e; stroke:none;" d="M488 91L486 104L480 104L480 108L488 112L492 112L492 115L483 114L483 120L491 118L491 122C500.08 119.821 510.492 119.132 512 108C501.645 104.189 500.502 92.0323 488 91z"/>
<path style="fill:#e9a65c; stroke:none;" d="M244 98L244 104L258 102C259.556 103.813 260.444 103.813 262 102L285 102L286 96L292 96C280.827 85.9562 256.611 95.0757 244 98z"/>
<path style="fill:#5d3d0e; stroke:none;" d="M392 92L395 104L402 102L402 94L392 92z"/>
<path style="fill:#6e8a14; stroke:none;" d="M405 92L403 106L406 108L416 109L416 112L420 112L424 102C424.064 104.993 423.946 106.346 427 107C425.354 98.6904 415.979 93.9893 408 98L408 92L405 92z"/>
<path style="fill:#a1722d; stroke:none;" d="M256 93L256 95L266 94L256 93z"/>
<path style="fill:#6e8a14; stroke:none;" d="M164 94C163.444 101.418 157.901 105.832 151 102L147 110L160 109L160 120L154 120L152 126C154.546 135.78 153.801 135.443 144 135C140.071 141.998 136.142 138.518 130.256 140.88C127.783 141.872 126.04 145.008 123.126 144.762C118.961 144.409 115.701 139.765 112 144L118 143L118 151L124 149L124 153L132 154L130 151L138 145L143 145L139 151C139.897 157.996 133.732 158.823 128 160L128 166L112 166L111 166L110 166L108 168C114.233 179.689 127.047 168.443 136 170L138 160L142 163L149 162L151 170L152 170L158 163L160 163C162.765 167.261 166.834 165.299 171 164L170 169C175.191 169.96 178.162 167.23 177 162L181 161L180 155L183 158L184 158C184.731 148.549 195.582 149.931 200 156L194 154C195.383 158.562 197.93 159.06 202 157L201 164L212 165L214 157L225 156L225 160L226 160L226 155L222 155C220.901 151.679 219.41 151.263 216 151C211.134 159.863 201.912 155.305 198 148L190 144L196 144L196 143L190.373 136.113L184 133C179.899 135.658 180.745 140.754 182 145L165 144L167 136C171.144 137.992 176.17 139.204 178 134L177 134L176 136C173.445 132.383 164.236 130.352 160 131L160 124L164 124L168 112L164 115C159.541 104.136 173.322 102.73 176 94L164 94z"/>
<path style="fill:#5d3d0e; stroke:none;" d="M251 94L251 95L256 95L251 94z"/>
<path style="fill:#a1722d; stroke:none;" d="M374 95L373 99L378 110L374 110L372 120L388 120C382.527 111.644 380.26 106.968 379 97L388 98L374 95z"/>
<path style="fill:#1c2b12; stroke:none;" d="M389 95L381 104C381.208 110.507 384.183 116.078 391 117C393.367 109.924 401.644 99.0577 389 95M396 95L401 98L401 95L396 95z"/>
<path style="fill:#8da121; stroke:none;" d="M243 106L242 111C245.741 110.57 247.339 109.814 248 106C253.415 106.669 260.843 104.844 264 110C268.909 109.858 274.316 109.141 276 104L280 104L280 109L285 102L262 102L258 102L244 104L244 98L248 98L248 96C243.295 96.3375 235.529 104.399 243 106z"/>
<path style="fill:#a1722d; stroke:none;" d="M286 96L285 102L293 98L286 96M402 96L402 102L397 102L401 111L398 114L393 113L398 117C402.593 111.381 402.362 110.376 399 104L403 104L402 96z"/>
<path style="fill:#8da121; stroke:none;" d="M425 96C425.274 99.7779 432.224 111.289 434 103L431 104L432 98L425 96z"/>
<path style="fill:#a1722d; stroke:none;" d="M450 96L448 105L453 105L453 96L450 96z"/>
<path style="fill:#8da121; stroke:none;" d="M453 96L453 105L448 105L448 101L447 101L445 107L438 106L440 117C444.33 116.07 445.549 112.632 449.304 110.857C455.006 108.163 463.473 109.953 469 112L470 104C465.426 105.093 457.373 111.739 454.603 104.941C453.435 102.074 454.209 98.8807 453 96z"/>
<path style="fill:#5d3d0e; stroke:none;" d="M379 97L383 114L384 114L381 104L387 98L379 97z"/>
<path style="fill:#e9a65c; stroke:none;" d="M471 113L471 114L474 118L475 118L478 116C475.504 109.485 474.116 100.405 483 99L483 97C472.017 97.8355 478.227 108.578 471 113z"/>
<path style="fill:#5d3d0e; stroke:none;" d="M71 98L58.6968 109.174L59 120L82 118L82 117L77 117L77 113L85 112L83 107L91 110L94 104C85.8523 103.999 75.6894 105.187 71 98M288 98C287.216 103.684 284.882 110.165 279 112L279 115L283 115L282 120L275 119L277 110L265 113L258 113C259.375 117.196 262.902 118.144 267 119L264 114L274 114L272 120L283 126L279 130L280 127L276 126L276 130L270 126C268.444 128.326 267.556 128.326 266 126L262 129L265 128L264 131C274.463 136.803 290.22 147.594 291 128L299 132L296 137L304 128L301 129L287 123L284 126L288 112L302 113L305 105L304 101L288 98M372 99L360.608 110.148L362 122L373 121L374 110L378 110C377.103 105.378 376.96 100.607 372 99M0 104L0 120L6 120L6 116L15 120L24 110C19.395 109.747 16.7845 108.806 16 104L10 103L11 101L0 104z"/>
<path style="fill:#a1722d; stroke:none;" d="M457 101L458 106L460 106L461 101L457 101z"/>
<path style="fill:#8da121; stroke:none;" d="M423 102L420 112L416 112L416 109L406 108L399 104C402.032 112.586 398.671 111.933 397 120L365 122L374 135L381 133L380 140L386 139L377 144C378.88 136.155 371.112 136.872 370 144L366 150L365 150L365 144C359.663 148.491 363.306 150.885 367 155L368 155L370 149L374 149L374 152C379.339 152.659 383.485 153.463 384 147L390 147L389 144L399 149L399 144L402 144L402 139L405 142L409 141L408 136L414 137L413 128L416 128L416 132L429 132L431 126L432 129L439 130L438 134L446 131L438 147L441 147L441 152L433 149L432 154L440 154L440 158C434.761 158.018 430.867 158.101 430 164L434 162L435 171C429.691 169.765 425.135 170.885 423 165L427 165L426 162L420 164L420 168L386 170L390 164L390 163C383.344 163.197 376.743 167.947 370.113 167.243C364.218 166.617 367.715 158.053 360 162L360 158L354 158L355 144L360 144C361.619 139.345 361.422 136.797 356 136L358 141C355.922 139.703 349.82 138.964 354 137L354 136C348.563 135.11 348.735 131.843 349 127L358 125L355 117L344 128C340.763 126.076 325.767 122.641 331.613 131.058C334.203 134.788 339.687 133.872 343 137C339.12 136.984 333.006 134.305 332 139L328 138L328 144L324 143C322.71 147.097 320.008 148.033 316 149L320 136C314.357 138.227 312.075 139.689 312 146L304 145L304 141L278 151L280 148L280 147C276.074 147.841 276.392 152.4 280.222 153.694C285.849 155.597 293.285 155.081 299 154L299 159L302 156L306 162L310 162L306 154L312 158C317.231 156.51 320.375 153.435 325 158C320.387 159.303 319.934 161.965 322 166C314.245 164.149 308.395 164.289 301 167L302 163L298 163L286 180C281.721 176.529 273.388 167.539 281 163L281 162C275.507 162.504 273.186 164.596 272 170C280.854 174.136 277.146 200.293 276 209C280.616 207.953 283.276 208.311 285 213L275 214L275 209L270 207L269 213L270 213L270 211L271 211L272 249L271 246L270 246L269 255L277 256L277 258L282 257L282 256L280 251L283 253L284 253L286 252C283.935 249.141 282.337 249.097 279 250L280 246C276.946 246.654 277.064 248.007 277 251L275 251C275.375 246.081 277.046 244.447 282 245L285 239L283 235C292.392 238.672 296.194 238.097 296 249L289 248L290 252L296 251L296 257L301 255L297 251L301 253L301 248L312 253L311 250L317 256L320 253L321 253L327 256L324 249L328 249L331 231L336 231C335.999 236.671 330.852 246.759 338 248L338 249C334.812 252.356 341.349 262.936 343 267L344 267C345.984 263.183 345.984 260.817 344 257L351 260L360 259C360.064 261.993 359.946 263.346 363 264L363 265L360 267L368 270L368 271L360 275L359 275L355 271L355 275L351 271C346.119 271.565 342.548 271.71 340 267L333 270L333 266L336 266L335 256L331 256L328 262L318 260L315 257L315 261L312 258L309 258L309 261L302 262L304 268L293 270L296 268L296 264L292 264L289 270L286 263L288 270L283 267C283.728 270.351 284.597 271.412 288 272L288 277L289 277L289 274L293 274L293 272L289 272L289 271L299 272L299 276L301 273L309 275L310 264L316 264L316 266C310.758 266.875 310.664 270.43 312 275L322 278L314 276L319 282L311 280C308.462 286.878 305.296 282.457 301 280L302 284C294.561 280.148 286.651 280.166 280 285L282 281L282 280L272 278L272 279L278 283L269 282L269 288L266 288L266 284L259 284L260 288C256.598 288.593 255.862 289.558 256 293L248 291L249 295L245 295L256 283L248 282L248 286L237 279C237.575 276.604 237.475 276.513 235 276L237 274L237 273L222 264L228 265C227.715 259.858 226.136 257.836 221 257L221 256L243 254L243 250L244 250L247 260L248 260L249 248L244 245L240 247L240 248L242 250L219 255L224 259L224 261L211 261L232 277C226.296 277.414 218.658 270.36 216 277L225 280L222 288L227 288L227 292L232 290L233 290L221 297L224 292L210 296L210 294C222.404 292.177 209.344 284.277 203 284L205 282L205 281L182 285L181 282L184 282L167 280C161.462 284.196 143.765 282.866 139 278L137 278L136 282L128 280L127 280L112 289C102.029 285.203 100.907 290.841 99 299C104.332 297.694 107.666 290.072 113 294L107 296L107 297L114 299L114 300L114 301L112 303C115.351 302.272 116.412 301.403 117 298L123 300L123 303L120 306L131 305L131 304L125 303L125 298L121 298L132 290L131 295L136 296L135 290L138 289L139 289L141 291L141 292L137 295L142 295L142 296L138 296L139 300L131 299L134 302L133 307L128 307L122 311L120 315L118 312L118 311L118 310L120 308L107 304L106 310L112 312L113 312L115 310L118 315L112 314C115.028 323.116 125.954 312.712 131 311L134 315L133 311L160 310.907L177 309L184 304L187 299C187.654 302.054 189.007 301.936 192 302L192 306L199 311L193 310L193 319L196 318L193 320L193 326L189 326C187.47 321.395 184.688 322.871 184 327L180 325C179.022 327.158 178.812 327.501 177 326L176 326L171 328L171 315L160 314L157 315L158 312L153 312L153 317L158 320L154 321C153.549 317.408 150.218 318.013 147 318L149 312L135 316L136 322L133 322L133 327L137 324C135.057 330.418 129.348 330.031 124 328L125 323L121 323C121.398 330.637 115.322 329.729 112 335L104 334L104 338L108 338C109.044 347.074 118.985 342.643 125.576 344.916C132.385 347.264 140.859 346 148 346L193 346L472 346L469 342L472 341L480 331L480 341L483 339L484 339L485 339L491 340L491 344L496 344L492 336C495.194 335.987 497.271 336.403 498 333L504 336L501 326L509 328L505 325L505 324L507 320L516 318L514 315L518 315L518 312L505 310L504 301L507 301L507 300L505 296L508 298L509 298L508 290L512 291L512 289L520 295C520 289.675 521.012 283.228 519.889 278.028C519.136 274.543 516.645 275.004 516 278L514 276L513 276L512 276L505 285L504 279L503 279L500 290L506 289L501 292L500 297L504 298L504 307L499 306L500 309L498 312L489 309L482 312L482 313C487.043 313.331 492.363 315.562 495 320L492 318L491 318L490 318L484 328L482 320L479 322L472 320L468 311L463 313C464.123 317.252 465.552 319.293 470 320L470 324L456 324L452 330L434 328C435.981 324.777 439.93 320.86 436 318L435 322L431 320C432.236 324.249 430.898 326.111 427 328C426.109 323.202 427.551 315.658 425.397 311.434C421.664 304.117 418.836 315.012 419 318L407 320L408 324L400 324L402 329L396 331C395.259 327.543 392.741 327.543 392 331L389 329L394 324L392 321L392 320L402 319L402 308L399 309L402 306L400 304L402 301L398 297L402 297L402 296L400 295C408.559 288.806 408.697 290.733 408 280L419 283L418 280C422.512 279.028 420.816 273.087 419 270L418 270L415 272L415 260L408 261L407 266L412 268L412 264L413 264L413 272C409.061 271.599 408.299 273.243 408 277L407 277L407 272L406 272L392 279L391 275L394 276L392 270L388 272L387 269L394 264L394 263L387 264L384 268L385 271L382 270L383 275C378.159 273.013 371.788 268.546 372 263L367 264L367 258L361 260C362.771 254.323 364.479 248.657 362 243L355 245L347 229L351 229L351 227L347 227L351 222L352 230L360 226L360 218L361 218L363 220L363 221L361 223L365 223L365 224L363 224L363 225L368 225L369 234L381 232L381 237L391 236L391 242L392 242L392 238L395 238L395 233C400.788 239.36 397.202 243.32 398 251L408 253L411 258L412 258L416 256C416.147 251.387 417.252 248.77 421 246L420 250L424 250L424 248L429 249L431 247L430 244L432 239L435 244L440 244L439 247L443 246L440 248L440 249L445 249L445 252L440 252L442 257L443 262L437 260L437 268C444.985 266.727 446.551 260.825 443 254L446 252L447 252L448 252L451 254L454 248L453 241L438 243C441.287 236.429 445.22 238.523 451 240C450.305 234.738 448.312 231.917 453 228L455 238L459 233L460 233L464 236L461 248C454.024 250.115 458.001 254.848 459 260L472 255L472 253L471 246C468.43 244.811 466.649 243.793 468 241L468 240L467 232L468 232C468.271 235.726 470.175 240.184 474 241L474 240L473 234L476 237L477 237L476 230L471 232C468.098 226.447 462.027 224.071 456 224L455 212L451 213L450 207L454 206L453 209L459 211L459 208L466 209L464 220L498 222L495 211L501 212L499 216L503 215L504 219L508 219L508 216L513 218L520 216L520 189L509 191L512 184L512 183L496 193L499 188C495.065 188.047 492.343 187.954 491 192L488 192L486 185L485 185L482 190L481 187L478 188L480 192L474 192L472 199L471 199L467 197L467 195L471 195L475 180L472 180L472 184L460 189L456 192L456 193L463 195L464 195L464 192L465 192L466 200L453 203L454 190L448 190L448 186L444 186L447 176L448 176L448 180L456 176C457.136 179.882 460.304 179.882 464 180L464 178L459 178L464 176L472 176C468.529 166.318 455.204 177.045 452 166L456 166L456 160C469.601 159.952 462.724 154.687 460 147L464 148L464 136L488.961 134.258L504 133L504 138L508 142L511 139L514 148L486 151L483 148L483 152L486 155L493 154L498 159L498 160L496 164L478 165L478 168L482 168L482 171C491.234 170.24 498.443 169.531 501 160L510 161L509 157L520 158L520 117L514 116L515 120L510 115L509 115L504 118L504 119L509 119L509 124L503 120L491 122L491 118C487.072 118.264 484.303 119.076 483 123C476.708 121.038 474.643 117.162 471 112L470 112L470 116C462.096 116.19 449.496 115.966 449 125L440 126C438.655 121.974 435.873 122.276 432 122L428 125L430 112L427 107L424 107L423 102z"/>
<path style="fill:#5d3d0e; stroke:none;" d="M208 107L212 104L208 107z"/>
<path style="fill:#a1722d; stroke:none;" d="M348 116L348 117L353 120L369 106C357.587 97.3531 353.081 109.596 348 116z"/>
<path style="fill:#1c2b12; stroke:none;" d="M168 109L173 110L172 105L168 109z"/>
<path style="fill:#6e8a14; stroke:none;" d="M15 120C12.7095 116.266 10.2077 116.05 6 116L6 120L0 120L0 197C0 202.107 -2.72675 219.517 1.58873 222.802C5.10244 225.478 15.8929 218.889 20 218C18.5686 220.885 18.3083 222.061 21 224L21 221L22 221L25 221C26.4661 225.394 29.6881 225.872 34 226L30 237L29 237L29 232L16 231L24 227L24 225L14 223L8 227L0 230L0 234L16 232L16 241L29 243C25.5464 246.174 17.3254 244.027 14 241L8 241L8 243L0 242L0 288C8.65716 288.001 24.6502 287.491 31 294L19 295L24 304L16 304L16 308L8 305L15 300L15 293L13 295L9 294L5 294L4 294L3 294L0 296L0 325C0.000291953 329.54 -0.986797 334.345 4 336L4 346L44 346L44 344L40 344L41 340L36 338L36 337C39.9069 337.202 41.7881 336.906 43 333L52 336L52 339L56 339L56 336C60.517 337.417 59.8262 340.015 56 342L56 346L126 346C121.005 339.063 110.238 348.731 108 338L104 338L104 334L112 335C116.305 330.475 122.298 330.563 121 323L125 323L124 328C129.085 330.642 135.889 330.677 137 324L133 327L133 322L136 322L135 316L149 312L147 318C149.974 318.012 153.492 317.535 154 321L158 320L153 317L153 312L158 312L157 315L160 314C160.928 318.308 167.357 315.612 171 315L171 328L176 326L177 326C178.417 328.523 179.483 327.458 180 325L184 327C185.109 323.429 186.945 322.515 189 326L193 326L196 318L193 319L193 310L199 311L192 306L192 302L187 299C183.964 300 183.506 300.863 184 304L177 306L177 309L181 312L176 308L133 311L134 315L131 311C124.969 312.222 116.597 322.254 112 314L118 315L115 310L113 312L112 312L106 310L107 304L120 308L118 310L118 311L118 312L120 315L122 311L128 307L133 307L134 302L131 299L139 300L138 296L142 296L142 295L137 295L141 292L141 291L139 289L138 289L135 290L136 296L131 295L132 290L121 298L125 298L125 303L131 304L131 305L120 306L123 303L123 300L117 298L112 303L114 301L114 300L114 299L107 297L107 296L113 294L112 291L99 299C102.122 290.862 101.582 286.573 112 289L116 286L115 283C110.527 283.783 107.91 283.717 105 280L104 280L101 284L101 285L104 285L104 286C99.0447 286.004 88.2947 286.23 85 290L82 289C78.8381 290.825 75.8467 290.187 73 288L72 288C66.9951 292.685 59.7781 290.215 54 288C48.9069 296.55 39.5529 289.743 32 291C31.0558 285.177 32.7127 281.036 37 277L37 276L27 254L27 251L33.1667 241.167L49.3333 213L57.5 206.667L61 200L61 199C56.7486 199.352 53.6713 199.802 52 204L46 202L48 196L48 195L41 198C42.4154 190.233 39.0144 185.693 31 189C33.2285 184.879 36.5116 184.131 41 184L40 174L50 176L50 171L55 171L59 167L59 166L56 166L56 159L64 159L64 156L72 158L70 153C76.8854 157.788 81.7523 158 90 158C89.2955 153.189 86.337 150.864 82 149C81.0521 150.345 79.4722 152.053 78.179 149.625C76.5102 146.492 79.503 143.251 79.2847 140.116C78.9788 135.721 75.6366 131.29 73 128L72 131L64 131L65 128L42 133L45 130C46.708 124.37 50.9702 125.104 56 124.356C65.7704 122.901 76.0993 118.894 86 120C84.912 114.923 78.7786 118.452 75 119.056C61.6929 121.181 53.6042 118.994 42 114C45.7467 106.625 36.9733 104.957 31.0008 106.42C24.5943 107.989 18.245 114.537 15 120z"/>
<path style="fill:#d9c294; stroke:none;" d="M334 106L334 109L340 106L334 106z"/>
<path style="fill:#5d3d0e; stroke:none;" d="M397 106L391 117L384 115C387.632 119.768 391.307 119.996 397 120L393 113L398 114L401 111L397 106z"/>
<path style="fill:#d9c294; stroke:none;" d="M308 107C309.157 110.901 311.059 112.196 315 113L308 107z"/>
<path style="fill:#5d3d0e; stroke:none;" d="M427 107L427 112L432 112C431.412 108.597 430.351 107.728 427 107z"/>
<path style="fill:#a1722d; stroke:none;" d="M146 111L146 112L158 110C156.505 119.565 143.406 115 136 115L139 120L133 116L128 116L128 119C123.745 119.003 118.407 118.19 117 123L113 123L110 120L110 119L112 119L112 118L107 123L102 123C101.039 128.097 100.857 133.234 96 136L94 159L102 155L102 154L98 154L98 150L104 149L101 148L104 134L113 134C115.466 131.748 117.17 129.515 120 132L121 132L122 132L126 130L123 134L124 139L128 139L131 131L140 132L140 136L134 135L136 142L144 135C153.672 135.837 155.714 135.875 152 126L154 120L160 120L160 109L146 111z"/>
<path style="fill:#8da121; stroke:none;" d="M178 114L168 112L168 113L172 113L172 116L168 114C163.849 116.289 164.016 119.579 164 124L160 124L160 131L177 136L181 127L191 126L190 129L195 129L195 124L200 124L204 110C199.347 108.992 180.928 110.649 178 114z"/>
<path style="fill:#5d3d0e; stroke:none;" d="M448 110L440 126L449 125C449.443 121.032 450.422 118.877 454 117L454 116L448 118L448 114L470 114C465.348 107.255 455.183 110 448 110z"/>
<path style="fill:#8da121; stroke:none;" d="M139 111L139 112L150 111L139 111z"/>
<path style="fill:#e9a65c; stroke:none;" d="M110 119L110 120L113 123L117 123C119.496 118.921 123.545 119.037 128 119L128 116L133 116C134.099 119.321 135.59 119.737 139 120L136 115C143.57 115 157.213 120.312 158 110C142.306 111.912 123.846 110.85 110 119z"/>
<path style="fill:#1c2b12; stroke:none;" d="M244 115L239 115L239 125C250.182 125.038 255.219 131.077 266 126C266.741 129.457 269.259 129.457 270 126L276 130L276 126L280 127L279 130L283 126L272 120L274 114L264 114L267 119C264.35 118.141 256.898 116.156 261 113C256.901 108.745 246.157 108.845 244 115z"/>
<path style="fill:#d9c294; stroke:none;" d="M478 116L475 116C475.718 120.882 478.447 121.998 483 123L482 110L478 116z"/>
<path style="fill:#5d3d0e; stroke:none;" d="M215 114C216.945 124.962 207.844 122.135 201 123C201.574 129.477 195.134 129.998 190 129L191 126L181 127C178.929 135.134 175.402 139.038 167 136L165 144L182 145C180.892 140.345 180.409 136.517 184 133C185.005 137.688 187.96 133.836 190.583 136.417C192.328 138.133 190.349 141.678 193.25 142.639C197.779 144.139 201.629 138.392 203 146C191.87 148.423 211.413 164.881 216 151L222 155L226 155L226 160L229 160L227 152C233.362 151.942 236.384 150.728 237 144L236 144C232.422 150.615 229.392 147.094 225 144L226 141L219 140L220 137L215 136L200 139C200.761 127.654 211.541 125.673 221 126L221 123L241 123L240 114L215 114z"/>
<path style="fill:#8da121; stroke:none;" d="M288 112L287 118L293 118L288 112z"/>
<path style="fill:#d9c294; stroke:none;" d="M430 112L428 125C432.833 123.396 433.435 116.637 434 112L430 112z"/>
<path style="fill:#6e8a14; stroke:none;" d="M446 112L432 122C441.976 123.793 443.783 120.283 448 112L446 112z"/>
<path style="fill:#e9a65c; stroke:none;" d="M510 112C510.128 116.218 510.69 118.782 515 120L516 115L510 112z"/>
<path style="fill:#d9c294; stroke:none;" d="M514 112L520 117C519.022 113.536 517.526 112.518 514 112z"/>
<path style="fill:#a1722d; stroke:none;" d="M120 113L120 114L131 114L120 113z"/>
<path style="fill:#d9c294; stroke:none;" d="M168 113L168 116L172 116L172 113L168 113z"/>
<path style="fill:#6e8a14; stroke:none;" d="M292 114L293 118L287 115L286 115L284 126L287 123L301 129L307 122C300.07 120.63 299.233 119.522 301 113L292 114z"/>
<path style="fill:#1c2b12; stroke:none;" d="M448 114L448 118L459.015 118.618L470 116C466.505 110.608 453.929 114.122 448 114z"/>
<path style="fill:#6e8a14; stroke:none;" d="M320 114L312 117L312 118L318 120L318 128C313.179 128 308.07 126.852 306 132L309 131L304 145L312 146C312.201 139.868 315.025 138.739 320 136L316 149C320.272 148.355 323.211 147.555 324 143L328 144L328 138L332 139C334.449 135.448 339.036 136.968 343 137C340.195 133.11 335.101 134.832 332.167 131.058C325.859 122.942 341.196 126.728 344 128C347.844 123.908 352.496 123.531 352 117L344 117L344 121L320 114M358 114L358 125L349 127C348.397 132.131 348.027 135.524 354 136L354 137L351 137L352 140L358 141L356 136C360.918 137.287 360.913 139.503 360 144L355 144L354 158L360 158L360 162C367.742 159.304 363.693 166.521 369.229 167.512C375.962 168.718 383.314 163.434 390 163L390 164L386 170L407 166.108L420 168L420 164L426 162L427 163L427 164L427 165L423 165C424.404 171.575 429.494 170.088 435 171L434 162L430 164C431.403 158.633 434.902 158.057 440 158L440 154L432 154L433 149L441 152L441 147L438 147C442.239 141.742 445.419 138.045 446 131L438 134L439 130L431 126L429 132L416 132L416 128L413 128L414 137L408 136L409 141L405 142L405 139L402 139L402 144L399 144L399 149L389 144L390 147L384 147C383.026 152.96 379.11 152.357 374 152L374 149L370 149L368 155L367 155C364.182 150.295 360.943 149.222 365 144L365 150L366 150L370 144C371.677 138.101 377.821 136.51 377 144L386 139L380 140L381 133L374 135C373.13 129.534 367.235 123.509 362 122L360 114L358 114z"/>
<path style="fill:#a1722d; stroke:none;" d="M112 117L117 116L112 117z"/>
<path style="fill:#1c2b12; stroke:none;" d="M367 115L366 120L371 121L371 115L367 115z"/>
<path style="fill:#8da121; stroke:none;" d="M42 133L65 128L64 131C68.0105 131 70.6527 131.566 73 128C75.0259 131.738 78.6945 135.727 79.0833 140.139C79.3635 143.317 76.2129 146.55 77.3611 149.889C78.5801 153.433 81.4821 151.417 82 149L90 158L70 153L72 158L69 159L64 156L64 159L56 159C56 162.363 55.2842 165.204 59 166L59 167L55 171L50 171L50 176L40 174L41 184C36.5175 184.05 32.564 184.291 31 189C38.7898 186.801 41.8791 190.332 41 198L48 195L48 196L46 202L52 204L61 199L61 200L58 200L58 207C61.9354 207.169 66.9431 208.923 70.7145 207.397C73.7907 206.152 75.5693 203.029 79.0008 202.407C83.2085 201.646 87.6228 203.157 92 202.385C106.68 199.797 121.256 194.956 136 193.125C143.41 192.205 160.958 193.86 166 188C180.956 190.917 196.006 178.311 211 178L212 165L200 164L200 161L195 165L191 160L180 155L181 161L177 162C177.419 166.959 174.887 169.178 170 169L171 164C166.529 164.914 163.535 166.554 160 163L158 163L152 170L151 170L149 162L142 163L138 160L136 170C125.817 167.611 116.745 178.824 108 168L110 166L111 166L112 166L128 166L128 160C133.893 159.282 140.752 158.188 139 151L143 145L138 145L130 151L132 154L124 153L124 149L118 151L118 143L110 144L108 152C114.779 151.249 119.735 150.983 123 158L104 164L105 160L106 160L108 162L105 150L97 160L92 160C91.9524 156.102 92.2087 152.231 88 151C89.2855 146.836 91.7893 145.565 96 145L96 136C101.349 134.166 101.369 127.965 102 123L107 123L112 118C105.147 115.298 99.4748 118.957 92.9606 119.856C81.355 121.457 69.7319 121.747 58 123.657C50.6137 124.859 44.5744 124.785 42 133z"/>
<path style="fill:#e9a65c; stroke:none;" d="M503 119C503.652 122.911 505.136 123.7 509 124L509 119L503 119z"/>
<path style="fill:#5d3d0e; stroke:none;" d="M16 126C21.4638 125.884 26.2983 125.164 29 120C24.4662 120.301 17.6262 121.375 16 126M347 120L347 123L350 123L350 120L347 120z"/>
<path style="fill:#8da121; stroke:none;" d="M221 123C215.564 131.146 200.467 123.284 200 139L215 138L215 131C219.687 132.482 219.717 135.562 219 140L226 141L225 144L229 141L223 136C228.123 137.174 231.538 136.794 232 131L224 128L227 125L221 123z"/>
<path style="fill:#6e8a14; stroke:none;" d="M224 123L224 124C225.851 125.976 226.431 126.57 224 128C226.499 130.974 228.157 131.631 232 131L230 138L248.015 132.719L266 132L266 131L265 128L224 123z"/>
<path style="fill:#d9c294; stroke:none;" d="M305 125L299 137L309 125L305 125M214 126L214 131L215 131L216 126L214 126z"/>
<path style="fill:#8da121; stroke:none;" d="M354 128L354 132L366 128L354 128z"/>
<path style="fill:#1c2b12; stroke:none;" d="M285 129L290 132L290 128L285 129z"/>
<path style="fill:#6e8a14; stroke:none;" d="M291 128C290.604 132.943 290.883 135.567 296 137L299 132L291 128z"/>
<path style="fill:#5d3d0e; stroke:none;" d="M113 134L104 134L101 148L105 144L115.054 142.407L123.87 145.262L136 140L134 135L140 136L140 132L131 131L128 139L124 139L123 134L126 130L122 132L121 132C117.454 129.275 115.564 130.707 113 134z"/>
<path style="fill:#1c2b12; stroke:none;" d="M215 131C215.304 134.829 216.205 136.173 220 137C219.57 133.259 218.814 131.661 215 131z"/>
<path style="fill:#6e8a14; stroke:none;" d="M275 131L280 135L275 131z"/>
<path style="fill:#5d3d0e; stroke:none;" d="M296 145C302.676 143.646 306.503 136.938 309 131L296 145z"/>
<path style="fill:#d9c294; stroke:none;" d="M248 132L248 133L267 133L248 132z"/>
<path style="fill:#8da121; stroke:none;" d="M363 136L368 132L363 136M244 133L244 134L248 134L244 133z"/>
<path style="fill:#f9e9c8; stroke:none;" d="M223 136L231 142L232 142L233 142L243 140L244 144L238 161C243.919 161.447 246.491 164.924 249 170L243 172L245 192L246 203C251.849 200.762 251.305 194.498 252 189L256 189L260 196C277.866 191.772 272.873 180.471 269 166L281 161L275 144L264 147L263 143L245 145L245 144L248 144L248 143L246 142L246 141L248 138L258 137L257 140L263 136L264 136L275 139C267.074 125.071 245.858 136.65 235 137.751C231.047 138.151 226.853 136.747 223 136z"/>
<path style="fill:#8da121; stroke:none;" d="M267.667 133.333L268.333 133.667L267.667 133.333z"/>
<path style="fill:#a1722d; stroke:none;" d="M303 133L299 141L305 133L303 133z"/>
<path style="fill:#6e8a14; stroke:none;" d="M501 133C497.737 138.437 493.87 134.126 488.961 134.108C480.601 134.077 472.479 136 464 136L464 148L460 147C461.542 154.253 469.347 159.842 456 160L456 166L452 166C453.733 176.867 467.032 167.666 472 176L464 176L459 178L464 178L464 180L456 176L448 180L448 176L447 176L444 186L448 186L448 190L454 190L453 203L456 200L466 200L465 192L464 192L464 195L463 195L456 193L456 192L460 189L472 184L472 180L475 180L471 195L467 195L467 197L471 199L472 199L474 192L480 192L478 188L480 187L481 187L482 190L485 185L486 185L488 192L491 192C492.928 188.502 495.122 188.125 499 188L496 193L512 183L512 184L509 184L509 191L520 189L520 158L509 157L510 161L501 160C497.631 168.947 491.123 169.746 482 171L482 168L478 168L478 165L496 164L498 160L498 159L493 154L486 155L483 152L483 148L486 151L514 148L511 139L508 142L504 138L504 133L501 133z"/>
<path style="fill:#d9c294; stroke:none;" d="M263 136L257 140L258 137L248 138L248 143L248 144L245 144L245 145L263 143L264 147L275 144L276 150L289 143L288 141L293 140L293 139L277 138L263 136z"/>
<path style="fill:#8da121; stroke:none;" d="M289 139L296 138C293.05 136.007 291.121 136.091 289 139z"/>
<path style="fill:#f9e9c8; stroke:none;" d="M288 141L289 144L299 136L288 141z"/>
<path style="fill:#d9c294; stroke:none;" d="M298 138L291 145C294.917 144.288 299.52 142.702 298 138z"/>
<path style="fill:#6e8a14; stroke:none;" d="M284 139L284 140L288 140L284 139z"/>
<path style="fill:#8da121; stroke:none;" d="M413 139L413 142L416 142L416 139L413 139z"/>
<path style="fill:#a1722d; stroke:none;" d="M229 140L228 143L233 143L231 140L229 140z"/>
<path style="fill:#e9a65c; stroke:none;" d="M233 140L237 144L236 140L233 140z"/>
<path style="fill:#d9c294; stroke:none;" d="M237 142L237 146L240 144L240 154L239 154L239 152L238 152L235 156L238 159L244 144L243 140L237 142z"/>
<path style="fill:#8da121; stroke:none;" d="M190 144C193.04 149.513 197.893 147.351 203 146C201.686 138.126 195.227 143.616 190 144z"/>
<path style="fill:#6e8a14; stroke:none;" d="M214 146L220 142C216.59 142.263 215.099 142.679 214 146z"/>
<path style="fill:#1c2b12; stroke:none;" d="M227 143L227 147L236 147L235 142L227 143z"/>
<path style="fill:#a1722d; stroke:none;" d="M281 146L288 145C285.05 143.273 282.963 143.056 281 146z"/>
<path style="fill:#6e8a14; stroke:none;" d="M288 143L285 145L285 146C288.925 146 293.78 144.881 293 148L298 146L298 145L288 143M105 144L103 152L104 152L105 150L108 162L106 160L105 160L104 164L123 158C120.789 150.263 114.553 150.677 108 152L110 146L107 144L105 144z"/>
<path style="fill:#e9a65c; stroke:none;" d="M239 144L238 147L240 151L241 151L239 144z"/>
<path style="fill:#8da121; stroke:none;" d="M411 144L411 147L414 147L414 144L411 144z"/>
<path style="fill:#d9c294; stroke:none;" d="M88 151L92 160L97 160L97 159L94 159C94.6915 155.677 97.6346 150.678 96.3063 147.319C94.1281 141.81 88.5377 147.831 88 151z"/>
<path style="fill:#1c2b12; stroke:none;" d="M280 149L294 147C289.699 145.191 281.85 143.756 280 149z"/>
<path style="fill:#a1722d; stroke:none;" d="M237 146L236 152L239 154L240 154L237 146z"/>
<path style="fill:#6e8a14; stroke:none;" d="M228 147L228 149L233 149L233 147L228 147z"/>
<path style="fill:#a1722d; stroke:none;" d="M278 148L278 151L289 150L278 148z"/>
<path style="fill:#8da121; stroke:none;" d="M414 152L415 152L419 149C416.012 148.017 414.937 149.15 414 152z"/>
<path style="fill:#d9c294; stroke:none;" d="M415 152L419 149L415 152z"/>
<path style="fill:#5d3d0e; stroke:none;" d="M98 150L98 154L103 150L98 150M191 160L195 165C196.777 161.821 198.285 161.545 201 164L202 157C197.929 158.399 196.001 157.943 194 154L200 156C193.232 142.192 175.958 159.167 191 160z"/>
<path style="fill:#6e8a14; stroke:none;" d="M227 152L229 157L230 157L230 153L236 151L227 152z"/>
<path style="fill:#8da121; stroke:none;" d="M400 157L406 155L406 151C402.029 151.584 400.584 153.029 400 157z"/>
<path style="fill:#f9e9c8; stroke:none;" d="M232 159L238 152C234.15 153.352 232.64 154.949 232 159z"/>
<path style="fill:#d9c294; stroke:none;" d="M278 152L281 161L274 162L274 163L281 162L281 166L283 166L284 156L278 152z"/>
<path style="fill:#8da121; stroke:none;" d="M230 153L230 157L232 153L230 153M469 158L474 158L474 153C470.526 153.577 469.577 154.526 469 158z"/>
<path style="fill:#e9a65c; stroke:none;" d="M280 154L280 155L284 156L284 160C288.638 158.243 297.468 159.238 299 154L280 154z"/>
<path style="fill:#6e8a14; stroke:none;" d="M306 154L310 162L306 162L302 156L302 163L301 167L322 166C320.574 161.93 320.916 159.886 325 158C321.427 152.401 316.716 155.875 312 158L306 154z"/>
<path style="fill:#a1722d; stroke:none;" d="M214 157L212 164L228 161L228 160L225 160L225 156L214 157z"/>
<path style="fill:#e9a65c; stroke:none;" d="M229 157C225.458 163.486 219.431 159.712 214.303 163.028C209.962 165.835 211 173.594 211 178L200 179L200 180L203 180L203 181C197.056 182.129 188.133 184.306 187 191L166 188L144 192.169L106 199L106 200L123 198L120 203L112 205L112 208L99 208L99 211C92.846 211 84.4194 210.211 80.8187 216.519C78.4281 220.706 78.0814 236.248 85.0193 236.369C93.8293 236.523 101.104 223.513 108 220L106 225L111 229L106 229L106 230C109.194 229.987 111.271 230.403 112 227L116 228L116 224L126 222L142 228L141 234L142 234L145 234L146 234L153 224C154.35 219.402 159.531 214.566 163 220L169 217L159 232L176 224L180 222L179 225C182.696 224.882 185.864 224.882 187 221L188 221L208 226L208 219L219 216L220 208L223 208L228 200L228 212L229 212L234 184L224 183L222 190C214.251 190.945 205.862 194.263 202.883 202.166C201.9 204.774 203.691 208.411 202.137 210.59C199.688 214.024 191.852 215.611 188 217C193.432 210.07 192.431 208.407 192 200L195 200C198.531 188.665 211.031 193.155 216.952 187.107C221.535 182.427 211.562 173.843 214.858 167.344C218.686 159.797 229.777 167.749 232 157L229 157z"/>
<path style="fill:#a1722d; stroke:none;" d="M214 176L215 176C216.082 166.296 224.004 166.62 232 167L237 164L237 163L233 163L237 160L234.889 157.444L227 163.5L215.722 165.111L214 176z"/>
<path style="fill:#5d3d0e; stroke:none;" d="M296 157L296 160C290.476 158.978 285.095 158.294 284 165L285 165C287.614 160.742 291.515 161.684 296 162L296 166C299.698 163.863 299.944 160.938 299 157L296 157z"/>
<path style="fill:#a1722d; stroke:none;" d="M286 160L296 160C293.552 157.198 288.448 157.198 286 160z"/>
<path style="fill:#5d3d0e; stroke:none;" d="M234 159L233 163L237 163L236 159L234 159z"/>
<path style="fill:#8da121; stroke:none;" d="M237 159L237 168L238 168L237 159z"/>
<path style="fill:#a1722d; stroke:none;" d="M282 159L283 166L281 163C272.391 165.895 281.539 177.268 286 180C286.854 177.303 286.851 176.614 284 176L284 159L282 159z"/>
<path style="fill:#e9a65c; stroke:none;" d="M238 161L242 175L241 171L242 170L249 170C247.062 164.261 244.176 161.201 238 161z"/>
<path style="fill:#1c2b12; stroke:none;" d="M285 162L284 176C290.382 174.029 295.776 168.79 296 162L285 162z"/>
<path style="fill:#a1722d; stroke:none;" d="M240 163L240 164L242 166L243 166L240 163z"/>
<path style="fill:#d9c294; stroke:none;" d="M273 163L269 166C270.289 172.551 275.244 182.727 272 189C272.052 194.1 270.312 197.903 276 200C277.561 192.795 280.396 172.401 272 170L273 163z"/>
<path style="fill:#5d3d0e; stroke:none;" d="M229 167L229 171L232 174L238 173L237 164L229 167M240 164L240 166L242 166L242 164L240 164z"/>
<path style="fill:#1c2b12; stroke:none;" d="M278 164L280 167L280 164L278 164M227 166C224.462 167.927 220.379 167.46 218.314 169.894C213.502 175.565 217.715 181.791 224 182L229 166L227 166z"/>
<path style="fill:#5d3d0e; stroke:none;" d="M215 178L216 178C217.777 170.892 219.211 168.087 227 168C218.669 164.506 215.068 170.467 215 178z"/>
<path style="fill:#a1722d; stroke:none;" d="M238 168L238 173L232 174L232 171L228 176L232 175L229 184L234 184L229 212L228 212L228 200L223 208L220 208L219 216L208 219L208 226L188 221L187 221L179 225L180 222L176 224L159 232L169 217L163 220C160.887 212.783 153.591 219.005 153 224C143.818 227.037 147 238.56 147 246L149 246L151 238C155.967 239.13 156.85 236.575 157 232L158 232L163 246L164 246L174 233L179 236L171 240L170 248L183 248L181 240L187 240L187 237L178 233L178 232L195 231L195 234L212 234C216.952 239.667 226.961 234.531 228 228C233.933 227.128 236.228 220.25 238.562 215.196C240.905 210.125 238.701 203.377 238.371 198C237.801 188.704 241.664 176.733 238 168z"/>
<path style="fill:#d9c294; stroke:none;" d="M239 168L240 185L243 184L241 190L244 196L247 192L245 192C246.208 186.225 240.515 175.782 246 172L246 171L242 170L241 171L242 175L239 168z"/>
<path style="fill:#5d3d0e; stroke:none;" d="M227 172C226.19 177.173 221.802 182.433 229 184L232 175L228 176L227 172z"/>
<path style="fill:#a1722d; stroke:none;" d="M216 178L218 181L216 178z"/>
<path style="fill:#d9c294; stroke:none;" d="M61 180L61 183L64 183L64 180L61 180M184 185L184 186L203 181C197.437 178.736 189.395 183.018 184 185z"/>
<path style="fill:#a1722d; stroke:none;" d="M218 182L218 183L224 183L218 182z"/>
<path style="fill:#f9e9c8; stroke:none;" d="M219 183C214.496 192.671 197.213 187.15 195 200L192 200C192.192 208.252 191.901 209.838 188 217C205.732 212.579 202.498 194.019 222 190L224 183L219 183M174 188C176.747 193.235 181.979 191.104 187 191L192 185L174 188z"/>
<path style="fill:#e9a65c; stroke:none;" d="M239 184C238.167 188.552 238.689 203.457 244.314 205.264C247.077 206.151 251.217 203.529 254 203C259.538 193.947 271.445 201.731 278 205L277 199L269 194L259 194L258 198L246 203L247 194L246 194L244 196L241 190L243 184L239 184z"/>
<path style="fill:#6e8a14; stroke:none;" d="M75 185L63 191L62 197L65 196L70 201C69.0225 196.833 68.8439 194.094 72 191L77 201L79 199C84.5012 200.96 87.5575 200.288 88 194C82.745 193.249 78.6913 194.417 75 190L85 192L77 185L75 185z"/>
<path style="fill:#d9c294; stroke:none;" d="M77 185L77 187L80 187L80 185L77 185M176 186L176 187L181 187L176 186M252 189L251 199L258 198L252 189z"/>
<path style="fill:#a1722d; stroke:none;" d="M253 189L259 196L256 189L253 189z"/>
<path style="fill:#d9c294; stroke:none;" d="M56 190L56 192L62 192L62 190L56 190z"/>
<path style="fill:#a1722d; stroke:none;" d="M272.333 190.667L272.667 191.333L272.333 190.667M270 192L269 196L272 192L270 192z"/>
<path style="fill:#f9e9c8; stroke:none;" d="M134 200C134.34 204.365 135.635 205.66 140 206L140 211L146 209L146 213L152 213L152 216L157 216C155.822 209.36 156.39 203.186 163 200L164 194L134 200z"/>
<path style="fill:#5d3d0e; stroke:none;" d="M238 194L238 216L243 214L242 244L232 244L232 245C236.386 245 241.385 243.967 244 248L250 248L257 241L257 236C244.686 236.485 246.999 230.185 247 220L251 220L251 224C260.967 229.118 261.583 218.473 264 210L252 207L253 212C249.583 209.978 248.966 207.775 250 204L246 210L238 194z"/>
<path style="fill:#d9c294; stroke:none;" d="M49 195L53 198L49 195M91 202L88 208L96 208L96 209L91 209L91 211L99 211L99 208L112 208L112 205L120 203L123 198L91 202z"/>
<path style="fill:#5d3d0e; stroke:none;" d="M254 202L272 204L272 200C266.409 199.559 257.942 196.822 254 202M5 200L7 204L2 204C3.6425 208.073 6.01778 207.699 10 207L5 200z"/>
<path style="fill:#d9c294; stroke:none;" d="M392 200L392 201L398 201L392 200z"/>
<path style="fill:#f9e9c8; stroke:none;" d="M392 201L392 202L398 202L392 201z"/>
<path style="fill:#d9c294; stroke:none;" d="M76 202L76 203L83 203L76 202z"/>
<path style="fill:#1c2b12; stroke:none;" d="M253 212L252 207L255 210L264 210C260.413 218.804 261.32 227.32 251 224L251 220L247 220C246.993 230.582 244.038 237.013 257 236L256 245L260 243C261.049 249.162 262.344 252.733 269 251L269.968 239.014L264.438 228.985L270 207L276 209C274.601 200.606 257.553 199.645 251.399 203.434C247.253 205.986 249.33 210.679 253 212z"/>
<path style="fill:#a1722d; stroke:none;" d="M272 202L276 205L272 202z"/>
<path style="fill:#d9c294; stroke:none;" d="M476 202L476 204L480 204L480 202L476 202z"/>
<path style="fill:#f9e9c8; stroke:none;" d="M72 209C67.192 208.353 61.8738 206.098 57.0147 207.434C46.7713 210.252 39.6802 228.534 39 238L40 238C41.244 233.283 43.5889 230.142 48 228C50.7997 235.809 61.7315 232.269 68 232C69.7882 249.285 86.9955 235.183 95 235L111 229L106 225L108 220C101.382 222.061 92.1868 238.027 84.0586 235.659C80.0073 234.478 80.0633 229.337 79.8704 226C79.2838 215.853 86.1725 210.28 96 209L96 208L88 208L91 203C84.1028 203 74.3804 200.794 72 209z"/>
<path style="fill:#d9c294; stroke:none;" d="M483 204L483 206L488 206L488 204L483 204z"/>
<path style="fill:#5d3d0e; stroke:none;" d="M14 206L13 215L6 210C8.02823 220.494 17.3613 214.722 14 214C16.3393 211.333 17.5886 211.57 20 214L21 211L32 209L32 207L14 206z"/>
<path style="fill:#a1722d; stroke:none;" d="M243 206L246 210L247 206L243 206z"/>
<path style="fill:#6e8a14; stroke:none;" d="M450 207L451 213L455 212L456 224C462.046 224.193 467.277 227.28 471 232L476 230L477 237L476 237L473 234L474 240L474 241L468 232L467 232L468 240L468 241C464.801 243.337 468.327 245.375 471 246C469.416 249.116 468.875 250.98 472 253L472 255L459 260C458.415 254.677 454.992 251.049 461 248L464 236L460 233L459 233L455 238L453 228C447.566 230.996 449.894 235.038 451 240C445.585 237.804 440.173 235.778 438 243L440 240L453 241L454 248L451 254L448 252L447 252L446 252L443 254C445.703 261.055 444.97 265.941 437 268L437 260L443 262L442 257L440 252L445 252L445 249L440 249L440 248L443 246L439 247L440 244L435 244L432 239L430 244L429 249L424 248L424 250L420 250L421 246C416.567 248.196 416.055 251.321 416 256L408 258L408 253L398 251C397.641 243.589 401.858 238.394 395 233L395 238L392 238L392 242L391 242L391 236L381 237L381 232L369 234L368 225L363 225L363 224L365 224L365 223L361 223L363 221L363 220L361 218L360 218L360 226L352 230L351 222L347 227L351 227L351 229L347 229C347.208 236.015 351.061 239.66 355 245L362 243L361 260L367 258L367 264L372 263C370.916 268.694 377.869 273.584 383 275L382 270L385 271L384 268L387 264L394 263L394 264C390.173 265.447 387.8 267.818 388 272L392 270L394 276L391 275L392 279L400 271L406 272L407 272L407 277L408 277C408.572 273.51 409.451 272.388 413 272L413 264L412 264L412 268L407 266L408 261L415 260L415 272L418 270L419 270C420.105 273.623 421.379 277.547 418 280L419 283L408 285L408 286C411.786 292.228 398.693 291.677 402 296L402 297L398 297L402 301L400 304L400 305C403.154 309.095 403.27 314.13 402 319L392 320L392 321L394 324L389 329L392 331C393.556 328.674 394.444 328.674 396 331L402 329L400 324L408 324L407 320L419 318C418.939 314.841 421.977 304.784 425.397 312.233C427.423 316.648 425.847 323.158 427 328C431.515 326.692 433.094 324.354 431 320L435 322L436 318L439 319L434 328L452 330L459 324L459 323L456 320L470 324L470 320L463 313L468 311L472 320L479 322L482 320L484 328L490 318L491 318L492 318L495 320C493.172 314.894 487.019 313.149 482 313L482 312L489 309C489.904 313.217 494.356 312 498 312L500 309L499 306L504 307L504 298L500 297L501 292L506 289L500 290L503 279L504 279L505 285L512 276L513 276L514 276L516 278L520 276L520 233L520 217L520 216L513 218L508 216L508 219L504 219L503 215L499 216L496 214L498 222L502 222L501 226L510 224C507.334 228.93 503.084 229.194 498 228C497.056 231.613 495.613 233.056 492 234L494 228L488 223L492 223L492 221L464 220L466 209L459 208L459 211L453 209L454 206L450 207z"/>
<path style="fill:#d9c294; stroke:none;" d="M68 208L68 209L72 209L68 208M128 208L128 216L132 216L133 208L128 208M202 208L200 211L200 212L204 208L202 208M275 214L285 213C283.468 205.979 275.55 207.105 275 214M49 214L52 211L49 214z"/>
<path style="fill:#e9a65c; stroke:none;" d="M270 211C267.067 219.687 267.673 223.542 271 232L272 232L270 211z"/>
<path style="fill:#d9c294; stroke:none;" d="M495 211L495 214L501 214L495 211z"/>
<path style="fill:#8da121; stroke:none;" d="M254 212L254 216L258 216L254 212z"/>
<path style="fill:#a1722d; stroke:none;" d="M249 213L254 222C255.089 218.573 256.44 217.863 260 218L259 214L254 216L254 213L249 213z"/>
<path style="fill:#1c2b12; stroke:none;" d="M241 214C237.587 218.114 237.38 220.748 238 226L237 226L235 224L234 235L230 232L229 232C228.945 236.605 228.596 239.31 224 241L224 245L219 245L219 248L242 244L243 214L241 214z"/>
<path style="fill:#8da121; stroke:none;" d="M518 217L518 220L520 220L520 217L518 217M0 223L0 230C3.51053 230 7.14562 230.987 8 227L24 225L24 227L16 231L29 232L29 237L30 237L34 226C29.7896 225.717 27.0917 224.773 25 221L21 221L21 224L20 224L20 218L0 223z"/>
<path style="fill:#5d3d0e; stroke:none;" d="M236 218C233.993 222.622 233.322 226.609 228 228C226.083 234.765 217.899 238.468 212 234L195 234L195 231L178 232L178 233L187 237L187 240L181 240L183 248C189.424 247.867 196.452 246.891 200 241L198 244L194 244L200 238C202.801 241.658 207.387 244.148 212 244C215.026 248.67 219.474 245.576 224 245L224 241C229.13 239.881 228.983 236.704 229 232L230 232L230 235L234 235L235 224L237 226L238 226L238 218L236 218z"/>
<path style="fill:#d9c294; stroke:none;" d="M322 222L327 218L322 222z"/>
<path style="fill:#a1722d; stroke:none;" d="M266 221C263.341 231.051 267.033 233.195 271 242L272 242C271.999 234.175 270.694 227.486 266 221M492 221L492 223L496 226L495 226L492 224L492 231L492 232L498 232L499 222L492 221M126 222L119 224C118.692 228.089 117.7 230.135 114 232L112 227C109.444 230.943 100.649 232.852 96 233L91 245L92 245C97.0496 239.504 112.608 243.688 120 244L120 248L121 248C122.088 239.453 123.466 235.904 132 237L132 241L136 243L142 228L126 222z"/>
<path style="fill:#8da121; stroke:none;" d="M499 222C497.676 230.542 507.64 231.104 510 224L501 226L502 222L499 222z"/>
<path style="fill:#d9c294; stroke:none;" d="M464 224L464 225L469 225L464 224z"/>
<path style="fill:#8da121; stroke:none;" d="M488 223L493 228L492 224L495 226C496.458 222.131 490.572 223.002 488 223z"/>
<path style="fill:#d9c294; stroke:none;" d="M42 224L40 232L41 232L42 224M116 224L115 229L118 231L119 224L116 224M440 227L446 226L440 227z"/>
<path style="fill:#8da121; stroke:none;" d="M465 225L465 226L469 226L465 225z"/>
<path style="fill:#d9c294; stroke:none;" d="M316 226L321 229L316 226z"/>
<path style="fill:#e9a65c; stroke:none;" d="M40 238L39 238L39 234L38 234L36 240L40 239L41 250L42 250L48 228C43.0381 229.473 40.8038 233.023 40 238M114 229L117 232L117 231L114 229z"/>
<path style="fill:#f9e9c8; stroke:none;" d="M115 229L115 231L117 231L117 229L115 229z"/>
<path style="fill:#6e8a14; stroke:none;" d="M317 229L320 235L321 235L320 229L317 229z"/>
<path style="fill:#d9c294; stroke:none;" d="M34 268L38 268L42 264C40.8827 271.011 44.4113 270.408 49 274L53 276L54 276C53.4691 260.345 62.0783 274.631 68 277L68 273L65 274C68.4106 267.447 67.8964 260.093 67 253L62 255C61.2708 251.597 59.1942 252.013 56 252L56 247L67 249L64 235C77.3122 242.502 80.3842 262.935 97 267L95 262L104 264C107.001 267.158 131.931 259.34 131 268L131 269L140 272L154 272L161 256C155.967 254.39 150.184 253.461 147.854 247.946C146.426 244.566 148.963 233.502 143.84 232.792C139.116 232.138 136.605 242.114 131 243L131 237C120.571 233.314 124.644 242.811 119.262 248.42C116.589 251.206 112.916 250.807 112 255C105.077 255 91.3525 255.629 91.5741 244.91C91.6494 241.268 94.8188 237.437 96 234C87.2614 234.913 71.0697 248.888 68 232L47.5139 232.233L43.6335 242.83L34 268z"/>
<path style="fill:#e9a65c; stroke:none;" d="M96 232L96 233L104 232L96 232z"/>
<path style="fill:#6e8a14; stroke:none;" d="M331 231L328 249L324 249L327 256L321 253L320 253L317 256C316.364 252.007 314.993 250.636 311 250L312 253L301 248L301 253L297 251L301 255L296 257L296 251L290 252L289 248L296 249C296.448 238.397 293.21 237.534 283 235L285 239L282 245C276.638 243.884 275.173 245.739 275 251L277 251L280 246L279 250L286 252L283 253L280 251L282 256L282 257L277 258L277 256L273 257L273 258L288 270L286 263L289 270L292 264L296 264L293 270L304 268L302 262C305.284 261.379 308.24 261.545 309 258L312 258L315 261L315 257L318 260L328 262L331 256L335 256L336 266L333 266L333 270L336 267L340 267C341.758 272.293 346.255 271.867 351 271L355 275L355 271L359 275L360 275L368 271L368 270L360 267L363 265L363 264L360 264L360 259L348 261L348 257L344 257L344 267L343 267L338 249L338 248C331.939 246.065 336 236.494 336 231L331 231z"/>
<path style="fill:#8da121; stroke:none;" d="M0 234L0 242L8 243L8 241L14 241C16.4191 244.628 26.3502 247.021 29 243L16 241L16 232L0 234z"/>
<path style="fill:#5d3d0e; stroke:none;" d="M157 232C156.669 236.331 155.57 238.396 151 238C146.097 251.568 152.342 254.834 166 257C165.994 248.143 162.185 239.235 157 232z"/>
<path style="fill:#8da121; stroke:none;" d="M353 232L353 235L356 235L356 232L353 232z"/>
<path style="fill:#d9c294; stroke:none;" d="M492 232L492 233L496 233L492 232M174 233L169 239L170 243L171 243L179 236L174 233M400 233L400 236L405 236L400 233z"/>
<path style="fill:#8da121; stroke:none;" d="M492 233L492 234L496 234L492 233M64 235L65 243L66 243L68 239L67 235L64 235z"/>
<path style="fill:#e9a65c; stroke:none;" d="M131 237L131 243L135 243L132 241L131 237z"/>
<path style="fill:#6e8a14; stroke:none;" d="M312 237L312 239L314 239L314 237L312 237z"/>
<path style="fill:#1c2b12; stroke:none;" d="M194 244L198 244L200 238L194 244z"/>
<path style="fill:#a1722d; stroke:none;" d="M32 250L38 248L40 239L32 250M66 239L66 244L67 244L67 241L70 242L66 239z"/>
<path style="fill:#8da121; stroke:none;" d="M27 251L27 254L31 255L36 240L27 251z"/>
<path style="fill:#f9e9c8; stroke:none;" d="M168 240C162.16 249.656 172.215 260.748 166.682 269.852C162.63 276.52 151.102 270.701 145.004 271.045C141.365 271.25 138.454 273.153 135 274L136 278L150 278L150 281L168 277L166 274C180.305 270.214 192.366 266.965 186 249C178.096 248.595 168.339 249.576 170 240L168 240z"/>
<path style="fill:#8da121; stroke:none;" d="M195 245C196.49 247.75 204.254 251.473 205 247L213 248L212 244L202.205 240.633L195 245z"/>
<path style="fill:#a1722d; stroke:none;" d="M255 240L253 243L256 260L265 255L259.618 263.985L259 272L259 273L280 275L284 266L280 264L279 264C278.467 273.706 270.666 272 263 272L270 254L269 251C262.41 252.04 261.62 249.041 260 243L256 245L255 240M366 240L366 243L369 243L369 240L366 240z"/>
<path style="fill:#5d3d0e; stroke:none;" d="M38 241L38 248C27.4831 249.423 27.7516 267.513 35 273C34.7569 267.323 34.1121 262.567 35.9282 257.004C37.6787 251.642 44.4207 245.888 38 241M67 241L69 254L75 251L69 241L67 241M110 255C112.244 250.854 115.365 249.337 120 249L120 244C114.03 243.529 99.2786 239.717 94.2292 242.197C90.0515 244.248 91.9265 249.015 94.6134 251.387C98.4751 254.795 105.109 254.899 110 255z"/>
<path style="fill:#d9c294; stroke:none;" d="M271 242L271 249L272 249L271 242z"/>
<path style="fill:#a1722d; stroke:none;" d="M70.6667 243.333L71.3333 243.667L70.6667 243.333z"/>
<path style="fill:#d9c294; stroke:none;" d="M164 243L164 246L165 246L166 243L164 243z"/>
<path style="fill:#e9a65c; stroke:none;" d="M169 243L169 248L170 248L171 243L169 243z"/>
<path style="fill:#d9c294; stroke:none;" d="M248 260L247 260L244 250L243 250L243 254L221 256L221 257C225.66 258.247 227.458 260.185 228 265L222 264C226.379 270.827 238.092 275.81 246 276L246 275L242 274L244 269L247 269L247 272C253.393 270.933 250.289 266.199 253 262L254 243C246.964 246.767 247.859 253.138 248 260z"/>
<path style="fill:#5d3d0e; stroke:none;" d="M408 244L410 250L411 250L411 245L414 246C413.235 242.431 411.059 242.89 408 244z"/>
<path style="fill:#8da121; stroke:none;" d="M72 244L72 246L74 246L74 244L72 244z"/>
<path style="fill:#5d3d0e; stroke:none;" d="M488 244L491 248L491 244L488 244z"/>
<path style="fill:#a1722d; stroke:none;" d="M68 245L67 249L56 247L56 252L68 252L68 259L69 259L70 255L80 257L76 248L75 248L69 254L68 245M194 245L189 247L189 248L193 248L192 251L199 249L192 253L192 254L224 261L224 259L219 255L242 250L240 248L240 247L242 245L205 247C205 252.212 195.94 246.509 194 245z"/>
<path style="fill:#1c2b12; stroke:none;" d="M70 246L70 251L72 251L72 246L70 246z"/>
<path style="fill:#8da121; stroke:none;" d="M74.3333 246.667L74.6667 247.333L74.3333 246.667z"/>
<path style="fill:#6e8a14; stroke:none;" d="M269 246L269 251L270 251L269 246z"/>
<path style="fill:#e9a65c; stroke:none;" d="M180 248L180 249L189 249L180 248z"/>
<path style="fill:#d9c294; stroke:none;" d="M186 249C187.32 254.917 188.591 265.261 182.891 269.258C178.414 272.398 171.16 272.116 166 274L168 277L151 281L151 282L167 280C169.759 280.814 172.112 280.991 175 280.789C178.241 280.562 182.895 280.869 185.697 278.986C194.853 272.832 185.363 255.948 193 249L186 249z"/>
<path style="fill:#8da121; stroke:none;" d="M254 248C252.064 253.28 250.73 256.536 253 262L251 266L252 266L257 267L256 248L254 248z"/>
<path style="fill:#a1722d; stroke:none;" d="M112 255C112 251.29 116.729 250.086 120 250C116.692 248.423 107.37 251.59 112 255z"/>
<path style="fill:#1c2b12; stroke:none;" d="M192 253C195.714 252.877 197.563 252.576 199 249L192 253z"/>
<path style="fill:#e9a65c; stroke:none;" d="M190 250L190 261C194.082 259.45 196.618 258.844 200 262L196 262L210 269L216 266L216 265C207.167 260.212 201.904 254.983 191 257L192 250L190 250z"/>
<path style="fill:#a1722d; stroke:none;" d="M38 251L36 258L37 258L40 251L38 251z"/>
<path style="fill:#8da121; stroke:none;" d="M191 251L191 257L202 257L191 251z"/>
<path style="fill:#e9a65c; stroke:none;" d="M62 255L67 253L67 257L68 257L68 252L62 255z"/>
<path style="fill:#8da121; stroke:none;" d="M476 252L476 256L478 256L478 252L476 252z"/>
<path style="fill:#a1722d; stroke:none;" d="M96 253L96 254L104 255L104 254L96 253z"/>
<path style="fill:#e9a65c; stroke:none;" d="M80 254C77.8531 257.02 75.3353 255.648 72 255L72 256C80.7427 259.818 83.6573 264.724 86 274L75 278L75 279C78.6653 279 90.5666 272.734 89 279L99 281L99 280L96 279L96 278L99 278L99 277L94 272L88 271L94 266L94 265L80 254z"/>
<path style="fill:#a1722d; stroke:none;" d="M154 254L154 255L160 255L154 254z"/>
<path style="fill:#e9a65c; stroke:none;" d="M166 254L161 256L157 264L168 262L166 254z"/>
<path style="fill:#d9c294; stroke:none;" d="M70 255C70 267.523 70.0276 277.759 86 274C84.8939 263.29 79.5926 258.454 70 255z"/>
<path style="fill:#5d3d0e; stroke:none;" d="M264 255C254.868 259.267 259.185 262.323 256.128 269.946C254.869 273.086 252.022 274.703 251 278L274 277L274 276L259 273L259 272L264 255z"/>
<path style="fill:#d9c294; stroke:none;" d="M267 255L263 272C266.713 272 274.218 273.432 277.258 270.972C285.298 264.467 272.656 255.81 267 255z"/>
<path style="fill:#e9a65c; stroke:none;" d="M408 256L408 258L411 258L411 256L408 256M69 258L65 274L68 273L68 277L69 277L69 258z"/>
<path style="fill:#8da121; stroke:none;" d="M298 261L301 258L298 261z"/>
<path style="fill:#5d3d0e; stroke:none;" d="M348 261L351 258L348 261z"/>
<path style="fill:#8da121; stroke:none;" d="M416 258L420 262L416 258z"/>
<path style="fill:#a1722d; stroke:none;" d="M192 259L192 260L200 262L192 259z"/>
<path style="fill:#1c2b12; stroke:none;" d="M189 279L206 280L208 275L199 276L205 270L194 262L198 262L198 260C189.405 260.282 189.081 271.692 189 279z"/>
<path style="fill:#a1722d; stroke:none;" d="M154 272C156.831 272 160.062 272.403 162.826 271.697C173.37 269.003 164.221 254.959 157.009 264.61C155.523 266.599 154.89 269.685 154 272M190 261L189 272L190 272L190 261z"/>
<path style="fill:#d9c294; stroke:none;" d="M385 261L385 263L388 263L388 261L385 261z"/>
<path style="fill:#a1722d; stroke:none;" d="M95 262L97 267C92.4904 266.206 89.3837 266.105 88 271L94 272L98 277L96 273L112 276L110 271L114 272C120.668 266.954 135.022 277.718 140 270L131 269L131 268C133.724 264.885 128.342 264.35 125.999 264.34C120.963 264.317 107.738 266.145 104 264L95 262z"/>
<path style="fill:#6e8a14; stroke:none;" d="M194 262L200 266L200 265L194 262z"/>
<path style="fill:#5d3d0e; stroke:none;" d="M38 270L42 264C38.6787 265.099 38.2626 266.59 38 270z"/>
<path style="fill:#6e8a14; stroke:none;" d="M252 264C251.709 272.938 246.238 269.149 242 274L249 273L242 276L242 277L248 276L240 278L235 274L238 276L237 279L248 286L248 282L256 283L245 295L249 295L248 291L256 293C256.059 289.739 256.87 288.854 260 288L259 284L266 284L266 288L269 288L269 282L278 283L272 279L272 278L282 280L282 281L280 285C288.8 280.612 292.979 280.386 302 284L301 280C304.855 283.259 309.36 287.516 311 280L319 282L314 276L322 278C319.531 274.396 316.081 274.215 312 275C310.972 270.462 311.195 267.459 316 266L316 264L310 264L309 275C304.601 273.431 302.77 272.987 299 276L299 272L289 271L289 272L293 272L293 274L289 277L288 277L288 272L281 269L280 275L264 274L264 275L274 276L274 277L251 278C253.72 272.632 260.292 268.186 252 264z"/>
<path style="fill:#8da121; stroke:none;" d="M374 264L374 267L382 268L374 264z"/>
<path style="fill:#5d3d0e; stroke:none;" d="M200 266L200 267L203 267L200 266z"/>
<path style="fill:#d9c294; stroke:none;" d="M210 267C212.625 273.285 225.496 278.054 232 277C230.44 267.925 217.529 265.607 210 267z"/>
<path style="fill:#f9e9c8; stroke:none;" d="M51 281L56 280L56 285L72 282C70.4969 278.984 59.516 266.401 56.2423 267.662C53.1875 268.839 51.4505 277.96 51 281z"/>
<path style="fill:#5d3d0e; stroke:none;" d="M190 267L190 272L191 272L190 267M203 267L205 270L199 276L208 275L208 278L212 278L214 272L203 267z"/>
<path style="fill:#a1722d; stroke:none;" d="M35 268L35 272L36 272L36 270L37 270L34 276C44.7075 274.225 43.0061 278.727 43 288C57.8381 286.817 44.4501 272.544 41 268L40 268L39 270L35 268z"/>
<path style="fill:#5d3d0e; stroke:none;" d="M501 268L501 272L504 272L504 268L501 268z"/>
<path style="fill:#8da121; stroke:none;" d="M166 269L155 272L155 273C160.317 273 164.738 273.772 168 269L166 269z"/>
<path style="fill:#a1722d; stroke:none;" d="M244 269L244 272L247 272L247 269L244 269z"/>
<path style="fill:#e9a65c; stroke:none;" d="M36 270L35 273L36 270z"/>
<path style="fill:#5d3d0e; stroke:none;" d="M114 272L110 271L112 276L96 273L111 281L122 284L116 284L116 285C125.739 286.549 127.363 281.439 129 273C124.541 271.302 117.846 267.598 114 272z"/>
<path style="fill:#d9c294; stroke:none;" d="M133 271L131 278C134.496 283.41 136.28 278.084 135 274L139 274L139 273L133 271M400 271L400 273L403 273L403 271L400 271z"/>
<path style="fill:#5d3d0e; stroke:none;" d="M18 272L17 276L20 272L18 272z"/>
<path style="fill:#e9a65c; stroke:none;" d="M45 272L45 273L52 277L53 273L49 274L45 272z"/>
<path style="fill:#a1722d; stroke:none;" d="M69 272C69.2237 278.813 75.6815 281.34 78 274L69 272z"/>
<path style="fill:#e9a65c; stroke:none;" d="M129 272L128 282L136 282L136 281L131 278C136.4 276.843 133.171 272.304 129 272z"/>
<path style="fill:#6e8a14; stroke:none;" d="M214 272L212 278L206 277L181 282L182 285L205 281L205 282L203 284C208.738 284.473 221.457 291.003 210 294L210 296L224 292L221 297C225.361 295.625 231.47 294.616 233 290L232 290L227 292L227 288L222 288L225 280L216 277L216 272L214 272z"/>
<path style="fill:#d9c294; stroke:none;" d="M462.667 272.333L463.333 272.667L462.667 272.333z"/>
<path style="fill:#5d3d0e; stroke:none;" d="M243 273L243 275L249 275L249 273L243 273M501 273L503 277L503 273L501 273z"/>
<path style="fill:#d9c294; stroke:none;" d="M32 291C39.2558 289.278 48.5114 294.741 54 288L55 288L56 288C59.3148 291.813 68.9828 292.271 72 288C78.7088 289.827 80.4357 285.189 86.0903 283.144C89.7315 281.826 95.0582 282.498 99 282L99 281L89 279C88.1792 273.064 75.2724 278.945 71 279L72 282L56 285L56 280L51 281L51 277L50 277L48 286L48 287L50 288L50 289L46 291C44.2088 287.471 44.6077 276.713 42.3858 275.072C35.1483 269.726 31.0726 286.953 32 291z"/>
<path style="fill:#5d3d0e; stroke:none;" d="M188 274L186 280L197 280L197 279L189 279L188 274z"/>
<path style="fill:#a1722d; stroke:none;" d="M99 277L99 278L103 278L103 280L99 280L104 284L104 278L112 280C108.118 275.605 104.379 276.579 99 277z"/>
<path style="fill:#d9c294; stroke:none;" d="M137 276C139.728 281.505 144.511 280.999 150 281L150 278L137 276z"/>
<path style="fill:#5d3d0e; stroke:none;" d="M240 276C242.232 278.554 245.768 278.554 248 276L240 276z"/>
<path style="fill:#8da121; stroke:none;" d="M443 277C443.304 280.829 444.205 282.173 448 283L448 278L443 277z"/>
<path style="fill:#d9c294; stroke:none;" d="M96 278L96 279L103 280L103 278L96 278z"/>
<path style="fill:#1c2b12; stroke:none;" d="M104 278L107 284L115 285L122 284L104 278z"/>
<path style="fill:#5d3d0e; stroke:none;" d="M446 278L446 281L448 281L448 278L446 278z"/>
<path style="fill:#6e8a14; stroke:none;" d="M344 279L337 285L338 288L334 288L335 293L336 293L341 291C337.494 295.335 332.727 301.662 341 304L346 290L354 288L354 289L351 289L347 295L347 296L351 296L349 304L345 302C346.334 306.045 350.061 307.071 354 308L352 305L354 302L360 303C360.013 306.194 359.597 308.271 363 309L361 304L364 303C361.733 298.385 361.167 295.739 366 293L365 288L372 288L372 285L363 285L364 288L362 293L356 294L358 287L349 287L355 281L344 279z"/>
<path style="fill:#e9a65c; stroke:none;" d="M49 280L49 286L50 286L49 280z"/>
<path style="fill:#a1722d; stroke:none;" d="M291 281L291 282L296 280L291 281M408 280L408 285L416 280L408 280z"/>
<path style="fill:#e9a65c; stroke:none;" d="M85 282L85 283L95 284L85 282z"/>
<path style="fill:#a1722d; stroke:none;" d="M95 282L95 283L98 283L95 282z"/>
<path style="fill:#5d3d0e; stroke:none;" d="M98 282L98 283L100 285L101 285L98 282z"/>
<path style="fill:#a1722d; stroke:none;" d="M79 291L85 290L83 286L89 286C84.4758 281.313 80.3526 286.097 79 291z"/>
<path style="fill:#1c2b12; stroke:none;" d="M95 283L95 286L104 286L95 283z"/>
<path style="fill:#5d3d0e; stroke:none;" d="M109 283L109 284L113 284L109 283z"/>
<path style="fill:#1c2b12; stroke:none;" d="M446 283L446 285L448 285L448 283L446 283z"/>
<path style="fill:#5d3d0e; stroke:none;" d="M90 284L90 285L91 288L95 288L95 284L90 284M83 288L88 287C85.5748 285.519 84.5951 285.652 83 288z"/>
<path style="fill:#1c2b12; stroke:none;" d="M87 288L92 285L87 288z"/>
<path style="fill:#6e8a14; stroke:none;" d="M315 285L315 298L318 298C318 293.503 318.899 287.968 315 285z"/>
<path style="fill:#f9e9c8; stroke:none;" d="M45 288L46 291L50 287L45 288z"/>
<path style="fill:#d9c294; stroke:none;" d="M0 288L0 291L8 291L0 288z"/>
<path style="fill:#8da121; stroke:none;" d="M5 288L5 289L8 291L0 291L0 296L3 294L4 294L5 294C6.55561 295.813 7.44439 295.813 9 294L15 293L15 300L8 305L16 308L16 304L24 304L19 295L31 294C27.1543 288.045 11.6604 288.137 5 288M73 289L73 290L80 289L73 289z"/>
<path style="fill:#6e8a14; stroke:none;" d="M242 288L242 292L246 288L242 288z"/>
<path style="fill:#8da121; stroke:none;" d="M357 288L356 294L358 294L357 288z"/>
<path style="fill:#e9a65c; stroke:none;" d="M358 288L358 291L360 291L360 288L358 288M366 288L369 290L366 288z"/>
<path style="fill:#6e8a14; stroke:none;" d="M375 288L375 290L379 290L379 288L375 288M512 289L512 291L508 290L509 298L508 298L505 296L507 301L504 301L504 302L505 310L518 312L518 315L514 315L516 318L507 320L505 324L505 325L509 328L501 326L504 336L498 333L492 336L496 344L491 344L491 340L485 339L484 339L483 339L480 341L480 331L469 342L472 346C483.295 346 496.179 348.746 505 341L506 346L520 346L520 339L512 339C513.711 335.195 515.881 333.615 520 333C520 320.762 525.461 294.861 512 289z"/>
<path style="fill:#8da121; stroke:none;" d="M35 290L35 291L43 292L35 290M43 292L43 293L54 291L43 292z"/>
<path style="fill:#d9c294; stroke:none;" d="M346 291L346 293L349 293L349 291L346 291z"/>
<path style="fill:#a1722d; stroke:none;" d="M358 291L358 293L360 293L360 291L358 291z"/>
<path style="fill:#5d3d0e; stroke:none;" d="M445 292L445 296L448 296L448 292L445 292z"/>
<path style="fill:#6e8a14; stroke:none;" d="M377 293L377 303L375 302L377 312L372 322L383 320L385 313L378 312L378 311L382 311C380.773 308.102 379.182 306.11 382 304L377 293z"/>
<path style="fill:#d9c294; stroke:none;" d="M216 297L216 299L221 299L216 297z"/>
<path style="fill:#8da121; stroke:none;" d="M424 301L428 307L429 304L431 306C432.048 301.944 427.141 301.211 424 301z"/>
<path style="fill:#5d3d0e; stroke:none;" d="M443 304L443 308L444 308L443 304M246 308L250 305L246 308z"/>
<path style="fill:#d9c294; stroke:none;" d="M399 309L402 306L399 309z"/>
<path style="fill:#5d3d0e; stroke:none;" d="M182 309L186 309C184.444 307.187 183.556 307.187 182 309z"/>
<path style="fill:#8da121; stroke:none;" d="M187 308L183 314L187 308z"/>
<path style="fill:#6e8a14; stroke:none;" d="M205 308L208 314L209 314L214 311L214 310L205 308z"/>
<path style="fill:#5d3d0e; stroke:none;" d="M176 309L181 312C180.346 308.946 178.993 309.064 176 309z"/>
<path style="fill:#6e8a14; stroke:none;" d="M320 310L320 315L313 312L312 312L312 322L301 331L297 325L296 325L292 337L310 340L309 333L322 335L320 318L328 318L328 323L332 323L332 324L328 325L328 326C332.815 326.542 334.753 328.34 336 333L331 334L328 329L327 329L324 333L324 334L328 338L356 335L356 339L359 339C360.616 333.694 364.241 334.641 369 335L368 329C363.281 329.607 358.563 331.708 357 326L342 323C343.218 327.31 345.782 327.872 350 328L350 332L338 336L337 330L341 327L336 328L336 321L332 321L335 312L328 316L328 309L320 310z"/>
<path style="fill:#e9a65c; stroke:none;" d="M136 310L136 312L139 312L139 310L136 310z"/>
<path style="fill:#5d3d0e; stroke:none;" d="M166 312L166 314L168 314L168 312L166 312M1 317L1 319L10 317L1 317M66 320L64 326L69 326L69 323L78 323L80 319L66 320z"/>
<path style="fill:#e9a65c; stroke:none;" d="M456 320L456 323L459 323L459 320L456 320z"/>
<path style="fill:#8da121; stroke:none;" d="M30 323L32 326L33 325L32 323L30 323z"/>
<path style="fill:#5d3d0e; stroke:none;" d="M88 330L95 326L108 327C102.923 323.154 90.3009 322.977 88 330z"/>
<path style="fill:#6e8a14; stroke:none;" d="M164 324L168 328L167 324L164 324M272 327L275 324L272 327z"/>
<path style="fill:#5d3d0e; stroke:none;" d="M77 326L77 328L84 328L77 326z"/>
<path style="fill:#6e8a14; stroke:none;" d="M378 330L378 336L381 330L378 330z"/>
<path style="fill:#e9a65c; stroke:none;" d="M453 334L460 333L460 330C456.308 330.12 454.223 330.313 453 334z"/>
<path style="fill:#6e8a14; stroke:none;" d="M385 331L385 334L388 334L388 331L385 331z"/>
<path style="fill:#8da121; stroke:none;" d="M43 333C41.335 336.469 39.7732 337.015 36 337L36 338L41 340L40 344L56 346L56 342C60.7731 340.549 61.3007 336.887 56 336L56 339L52 339L52 336L43 333M512 339L520 339L520 333C515.626 333.325 513.197 334.662 512 339z"/>
<path style="fill:#d9c294; stroke:none;" d="M515 334L515 336L517 336L517 334L515 334z"/>
<path style="fill:#8da121; stroke:none;" d="M0 335L0 346L4 346L4 336L0 335z"/>
<path style="fill:#d9c294; stroke:none;" d="M429 336L429 338L434 338L434 336L429 336M418 337L418 339L425 339L425 337L418 337z"/>
<path style="fill:#6e8a14; stroke:none;" d="M244 338C245.37 342.096 248.572 342.053 250 338L244 338M425 339L424 343L427 339L425 339z"/>
<path style="fill:#8da121; stroke:none;" d="M501 346L506 346L505 341L501 346z"/>
</svg>
